{
.appVersion = "983";
copyright = "Copyright 2016 Google Inc. All Rights Reserved.";
customParameters = (
{
name = description;
value = "Designed by Monotype design team.";
},
{
name = license;
value = "This Font Software is licensed under the SIL Open Font License, Version 1.1. This Font Software is distributed on an \"AS IS\" BASIS, WITHOUT WARRANTIES OR CONDITIONS OF ANY KIND, either express or implied. See the SIL Open Font License for the specific language, permissions and limitations governing your use of this Font Software.";
},
{
name = licenseURL;
value = "http://scripts.sil.org/OFL";
},
{
name = vendorID;
value = GOOG;
},
{
name = trademark;
value = "Noto is a trademark of Google Inc.";
},
{
name = fsType;
value = (
);
},
{
name = panose;
value = (
2,
11,
5,
2,
4,
5,
4,
2,
2,
4
);
},
{
name = unicodeRanges;
value = (
115
);
},
{
name = codePageRanges;
value = (
1252
);
},
{
name = glyphOrder;
value = (
.notdef,
null,
nonmarkingreturn,
space,
uniA880,
uniA881,
uniA882,
uniA883,
uniA884,
uniA885,
uniA886,
uniA887,
uniA888,
uniA889,
uniA88A,
uniA88B,
uniA88C,
uniA88D,
uniA88E,
uniA88F,
uniA890,
uniA891,
uniA892,
uniA893,
uniA894,
uniA895,
uniA896,
uniA897,
uniA898,
uniA899,
uniA89A,
uniA89B,
uniA89C,
uniA89D,
uniA89E,
uniA89F,
uniA8A0,
uniA8A1,
uniA8A2,
uniA8A3,
uniA8A4,
uniA8A5,
uniA8A6,
uniA8A7,
uniA8A8,
uniA8A9,
uniA8AA,
uniA8AB,
uniA8AC,
uniA8AD,
uniA8AE,
uniA8AF,
uniA8B0,
uniA8B1,
uniA8B2,
uniA8B3,
uniA8B4,
uniA8B5,
uniA8B6,
uniA8B7,
uniA8B8,
uniA8B9,
uniA8BA,
uniA8BB,
uniA8BC,
uniA8BD,
uniA8BE,
uniA8BF,
uniA8C0,
uniA8C1,
uniA8C2,
uniA8C3,
uniA8C4,
uniA8CE,
uniA8CF,
uniA8D0,
uniA8D1,
uniA8D2,
uniA8D3,
uniA8D4,
uniA8D5,
uniA8D6,
uniA8D7,
uniA8D8,
uniA8D9,
uni25CC,
zwnj,
zwj,
uniA892A8B0,
uniA8AFA8AC,
uniA8B0A89D,
uniA8B0A89CA8AC,
uniA8A1A8AB
);
}
);
date = "2016-11-10 17:39:19 +0000";
designer = "Monotype Design Team";
designerURL = "http://www.monotype.com/studio";
disablesNiceNames = 1;
familyName = "Noto Sans Saurashtra";
features = (
{

glyphs = (
{
glyphname = .notdef;
lastChange = "2016-11-10 17:39:07 +0000";
layers = (
{
layerId = "C218C3DC-F535-40CE-915C-45F049FE9E78";
paths = (
{
closed = 1;
nodes = (
"1034 0 LINE",
"1034 1462 LINE",
"193 1462 LINE",
"193 0 LINE"
);
},
{
closed = 1;
nodes = (
"297 1358 LINE",
"930 1358 LINE",
"930 104 LINE",
"297 104 LINE"
);
}
);
width = 1229;
}
);
note = .notdef;
},
{
glyphname = uniA880;
lastChange = "2016-11-10 17:39:07 +0000";
layers = (
{
layerId = "C218C3DC-F535-40CE-915C-45F049FE9E78";
paths = (
{
closed = 1;
nodes = (
"542 745 OFFCURVE",
"643 847 OFFCURVE",
"643 1008 CURVE SMOOTH",
"643 1171 OFFCURVE",
"544 1268 OFFCURVE",
"387 1268 CURVE SMOOTH",
"226 1268 OFFCURVE",
"131 1168 OFFCURVE",
"131 1008 CURVE SMOOTH",
"131 845 OFFCURVE",
"230 745 OFFCURVE",
"387 745 CURVE SMOOTH"
);
},
{
closed = 1;
nodes = (
"308 877 OFFCURVE",
"270 920 OFFCURVE",
"270 1006 CURVE SMOOTH",
"270 1094 OFFCURVE",
"305 1130 OFFCURVE",
"385 1130 CURVE SMOOTH",
"468 1130 OFFCURVE",
"502 1094 OFFCURVE",
"502 1006 CURVE SMOOTH",
"502 920 OFFCURVE",
"463 877 OFFCURVE",
"385 877 CURVE SMOOTH"
);
}
);
width = 772;
}
);
note = uniA880;
unicode = A880;
},
{
glyphname = uniA881;
lastChange = "2016-11-10 17:39:07 +0000";
layers = (
{
layerId = "C218C3DC-F535-40CE-915C-45F049FE9E78";
paths = (
{
closed = 1;
nodes = (
"542 745 OFFCURVE",
"643 847 OFFCURVE",
"643 1008 CURVE SMOOTH",
"643 1171 OFFCURVE",
"544 1268 OFFCURVE",
"387 1268 CURVE SMOOTH",
"226 1268 OFFCURVE",
"131 1168 OFFCURVE",
"131 1008 CURVE SMOOTH",
"131 845 OFFCURVE",
"230 745 OFFCURVE",
"387 745 CURVE SMOOTH"
);
},
{
closed = 1;
nodes = (
"542 92 OFFCURVE",
"643 191 OFFCURVE",
"643 354 CURVE SMOOTH",
"643 517 OFFCURVE",
"544 614 OFFCURVE",
"387 614 CURVE SMOOTH",
"226 614 OFFCURVE",
"131 514 OFFCURVE",
"131 354 CURVE SMOOTH",
"131 190 OFFCURVE",
"231 92 OFFCURVE",
"387 92 CURVE SMOOTH"
);
},
{
closed = 1;
nodes = (
"308 223 OFFCURVE",
"270 266 OFFCURVE",
"270 352 CURVE SMOOTH",
"270 440 OFFCURVE",
"305 477 OFFCURVE",
"385 477 CURVE SMOOTH",
"468 477 OFFCURVE",
"502 440 OFFCURVE",
"502 352 CURVE SMOOTH",
"502 266 OFFCURVE",
"463 223 OFFCURVE",
"385 223 CURVE SMOOTH"
);
},
{
closed = 1;
nodes = (
"308 877 OFFCURVE",
"270 920 OFFCURVE",
"270 1006 CURVE SMOOTH",
"270 1094 OFFCURVE",
"305 1130 OFFCURVE",
"385 1130 CURVE SMOOTH",
"468 1130 OFFCURVE",
"502 1094 OFFCURVE",
"502 1006 CURVE SMOOTH",
"502 920 OFFCURVE",
"463 877 OFFCURVE",
"385 877 CURVE SMOOTH"
);
}
);
width = 791;
}
);
note = uniA881;
unicode = A881;
},
{
glyphname = uniA882;
lastChange = "2016-11-10 17:39:07 +0000";
layers = (
{
layerId = "C218C3DC-F535-40CE-915C-45F049FE9E78";
paths = (
{
closed = 1;
nodes = (
"1066 -18 OFFCURVE",
"1241 101 OFFCURVE",
"1241 338 CURVE SMOOTH",
"1241 394 OFFCURVE",
"1231 449 OFFCURVE",
"1210 504 CURVE",
"1057 455 LINE",
"1072 427 OFFCURVE",
"1079 392 OFFCURVE",
"1079 350 CURVE SMOOTH",
"1079 301 OFFCURVE",
"1065 262 OFFCURVE",
"1036 233 CURVE SMOOTH",
"978 173 OFFCURVE",
"885 145 OFFCURVE",
"717 145 CURVE SMOOTH",
"612 145 OFFCURVE",
"534 153 OFFCURVE",
"481 168 CURVE SMOOTH",
"376 198 OFFCURVE",
"315 258 OFFCURVE",
"315 367 CURVE SMOOTH",
"315 484 OFFCURVE",
"356 536 OFFCURVE",
"460 561 CURVE SMOOTH",
"512 574 OFFCURVE",
"595 580 OFFCURVE",
"709 580 CURVE SMOOTH",
"836 580 LINE SMOOTH",
"1151 580 OFFCURVE",
"1294 716 OFFCURVE",
"1294 995 CURVE SMOOTH",
"1294 1247 OFFCURVE",
"1188 1380 OFFCURVE",
"995 1380 CURVE SMOOTH",
"870 1380 OFFCURVE",
"766 1316 OFFCURVE",
"731 1217 CURVE",
"689 1326 OFFCURVE",
"602 1380 OFFCURVE",
"469 1380 CURVE SMOOTH",
"284 1380 OFFCURVE",
"162 1257 OFFCURVE",
"162 1065 CURVE SMOOTH",
"162 962 OFFCURVE",
"208 832 OFFCURVE",
"279 737 CURVE",
"408 817 LINE",
"356 885 OFFCURVE",
"317 989 OFFCURVE",
"317 1057 CURVE SMOOTH",
"317 1160 OFFCURVE",
"384 1225 OFFCURVE",
"492 1225 CURVE SMOOTH",
"612 1225 OFFCURVE",
"664 1160 OFFCURVE",
"664 1028 CURVE SMOOTH",
"664 862 LINE",
"805 862 LINE",
"805 1028 LINE SMOOTH",
"805 1158 OFFCURVE",
"867 1223 OFFCURVE",
"991 1223 CURVE SMOOTH",
"1102 1223 OFFCURVE",
"1157 1148 OFFCURVE",
"1157 999 CURVE SMOOTH",
"1157 796 OFFCURVE",
"1044 709 OFFCURVE",
"803 709 CURVE SMOOTH",
"709 709 LINE SMOOTH",
"546 709 OFFCURVE",
"431 699 OFFCURVE",
"362 678 CURVE SMOOTH",
"225 637 OFFCURVE",
"158 546 OFFCURVE",
"158 377 CURVE SMOOTH",
"158 112 OFFCURVE",
"318 -18 OFFCURVE",
"715 -18 CURVE SMOOTH"
);
}
);
width = 1397;
}
);
note = uniA882;
unicode = A882;
},
{
glyphname = uniA883;
lastChange = "2016-11-10 17:39:07 +0000";
layers = (
{
layerId = "C218C3DC-F535-40CE-915C-45F049FE9E78";
paths = (
{
closed = 1;
nodes = (
"879 -18 OFFCURVE",
"1015 45 OFFCURVE",
"1094 166 CURVE",
"1149 57 OFFCURVE",
"1235 2 OFFCURVE",
"1354 2 CURVE SMOOTH",
"1376 2 LINE",
"1397 4 LINE",
"1378 166 LINE",
"1362 166 LINE SMOOTH",
"1241 166 OFFCURVE",
"1180 222 OFFCURVE",
"1180 334 CURVE",
"1184 395 LINE",
"1038 414 LINE",
"1009 241 OFFCURVE",
"878 145 OFFCURVE",
"645 145 CURVE SMOOTH",
"541 145 OFFCURVE",
"463 153 OFFCURVE",
"410 168 CURVE SMOOTH",
"305 198 OFFCURVE",
"244 258 OFFCURVE",
"244 367 CURVE SMOOTH",
"244 478 OFFCURVE",
"294 533 OFFCURVE",
"410 560 CURVE SMOOTH",
"468 573 OFFCURVE",
"557 580 OFFCURVE",
"676 580 CURVE SMOOTH",
"797 580 LINE SMOOTH",
"1092 580 OFFCURVE",
"1233 716 OFFCURVE",
"1233 995 CURVE SMOOTH",
"1233 1258 OFFCURVE",
"1129 1380 OFFCURVE",
"932 1380 CURVE SMOOTH",
"808 1380 OFFCURVE",
"705 1318 OFFCURVE",
"670 1219 CURVE",
"628 1328 OFFCURVE",
"541 1382 OFFCURVE",
"408 1382 CURVE SMOOTH",
"224 1382 OFFCURVE",
"100 1260 OFFCURVE",
"100 1067 CURVE SMOOTH",
"100 960 OFFCURVE",
"152 826 OFFCURVE",
"217 737 CURVE",
"346 817 LINE",
"298 880 OFFCURVE",
"256 988 OFFCURVE",
"256 1059 CURVE SMOOTH",
"256 1162 OFFCURVE",
"323 1227 OFFCURVE",
"430 1227 CURVE SMOOTH",
"550 1227 OFFCURVE",
"602 1162 OFFCURVE",
"602 1030 CURVE SMOOTH",
"602 862 LINE",
"743 862 LINE",
"743 1030 LINE SMOOTH",
"743 1160 OFFCURVE",
"805 1225 OFFCURVE",
"930 1225 CURVE SMOOTH",
"1041 1225 OFFCURVE",
"1096 1150 OFFCURVE",
"1096 999 CURVE SMOOTH",
"1096 798 OFFCURVE",
"989 709 OFFCURVE",
"764 709 CURVE SMOOTH",
"676 709 LINE SMOOTH",
"509 709 OFFCURVE",
"390 699 OFFCURVE",
"317 678 CURVE SMOOTH",
"172 636 OFFCURVE",
"96 545 OFFCURVE",
"96 377 CURVE SMOOTH",
"96 108 OFFCURVE",
"252 -18 OFFCURVE",
"643 -18 CURVE SMOOTH"
);
}
);
width = 1405;
}
);
note = uniA883;
unicode = A883;
},
{
glyphname = uniA884;
lastChange = "2016-11-10 17:39:07 +0000";
layers = (
{
layerId = "C218C3DC-F535-40CE-915C-45F049FE9E78";
paths = (
{
closed = 1;
nodes = (
"810 -20 OFFCURVE",
"920 -1 OFFCURVE",
"1019 38 CURVE SMOOTH",
"1217 114 OFFCURVE",
"1323 258 OFFCURVE",
"1323 446 CURVE SMOOTH",
"1323 502 OFFCURVE",
"1313 556 OFFCURVE",
"1292 607 CURVE SMOOTH",
"1250 710 OFFCURVE",
"1123 854 OFFCURVE",
"1055 927 CURVE SMOOTH",
"994 992 OFFCURVE",
"963 1051 OFFCURVE",
"963 1106 CURVE SMOOTH",
"963 1175 OFFCURVE",
"1005 1217 OFFCURVE",
"1081 1217 CURVE SMOOTH",
"1152 1217 OFFCURVE",
"1188 1175 OFFCURVE",
"1188 1092 CURVE",
"1343 1116 LINE",
"1336 1283 OFFCURVE",
"1242 1378 OFFCURVE",
"1081 1378 CURVE SMOOTH",
"906 1378 OFFCURVE",
"811 1287 OFFCURVE",
"811 1122 CURVE SMOOTH",
"811 1057 OFFCURVE",
"833 1001 OFFCURVE",
"866 948 CURVE SMOOTH",
"898 895 OFFCURVE",
"942 844 OFFCURVE",
"987 788 CURVE SMOOTH",
"1058 704 LINE SMOOTH",
"1141 608 OFFCURVE",
"1174 541 OFFCURVE",
"1174 465 CURVE SMOOTH",
"1174 260 OFFCURVE",
"985 145 OFFCURVE",
"688 145 CURVE SMOOTH",
"380 145 OFFCURVE",
"240 240 OFFCURVE",
"240 428 CURVE SMOOTH",
"240 600 OFFCURVE",
"365 680 OFFCURVE",
"676 680 CURVE",
"676 825 LINE",
"421 825 OFFCURVE",
"295 918 OFFCURVE",
"295 1081 CURVE SMOOTH",
"295 1168 OFFCURVE",
"350 1219 OFFCURVE",
"438 1219 CURVE SMOOTH",
"520 1219 OFFCURVE",
"561 1179 OFFCURVE",
"561 1099 CURVE SMOOTH",
"561 1092 LINE",
"713 1092 LINE",
"714 1118 LINE",
"714 1274 OFFCURVE",
"625 1378 OFFCURVE",
"430 1378 CURVE SMOOTH",
"257 1378 OFFCURVE",
"139 1263 OFFCURVE",
"139 1083 CURVE SMOOTH",
"139 912 OFFCURVE",
"243 795 OFFCURVE",
"420 760 CURVE",
"201 743 OFFCURVE",
"86 628 OFFCURVE",
"86 420 CURVE SMOOTH",
"86 137 OFFCURVE",
"314 -20 OFFCURVE",
"690 -20 CURVE SMOOTH"
);
}
);
width = 1444;
}
);
note = uniA884;
unicode = A884;
},
{
glyphname = uniA885;
lastChange = "2016-11-10 17:39:07 +0000";
layers = (
{
layerId = "C218C3DC-F535-40CE-915C-45F049FE9E78";
paths = (
{
closed = 1;
nodes = (
"815 -20 OFFCURVE",
"926 -1 OFFCURVE",
"1025 38 CURVE SMOOTH",
"1223 114 OFFCURVE",
"1331 257 OFFCURVE",
"1331 446 CURVE SMOOTH",
"1331 487 OFFCURVE",
"1326 525 OFFCURVE",
"1316 560 CURVE SMOOTH",
"1295 630 OFFCURVE",
"1263 685 OFFCURVE",
"1151 813 CURVE",
"1286 914 OFFCURVE",
"1354 1015 OFFCURVE",
"1354 1116 CURVE SMOOTH",
"1354 1273 OFFCURVE",
"1240 1382 OFFCURVE",
"1077 1382 CURVE SMOOTH",
"917 1382 OFFCURVE",
"807 1293 OFFCURVE",
"807 1149 CURVE SMOOTH",
"807 1030 OFFCURVE",
"862 928 OFFCURVE",
"995 784 CURVE SMOOTH",
"1059 714 OFFCURVE",
"1100 665 OFFCURVE",
"1118 638 CURVE SMOOTH",
"1154 583 OFFCURVE",
"1174 530 OFFCURVE",
"1174 465 CURVE SMOOTH",
"1174 403 OFFCURVE",
"1155 348 OFFCURVE",
"1116 300 CURVE SMOOTH",
"1039 204 OFFCURVE",
"875 145 OFFCURVE",
"692 145 CURVE SMOOTH",
"405 145 OFFCURVE",
"244 247 OFFCURVE",
"244 428 CURVE SMOOTH",
"244 597 OFFCURVE",
"363 678 OFFCURVE",
"678 678 CURVE",
"678 829 LINE",
"425 829 OFFCURVE",
"299 913 OFFCURVE",
"299 1081 CURVE SMOOTH",
"299 1168 OFFCURVE",
"359 1221 OFFCURVE",
"446 1221 CURVE SMOOTH",
"527 1221 OFFCURVE",
"567 1181 OFFCURVE",
"567 1100 CURVE SMOOTH",
"567 1092 LINE",
"721 1092 LINE",
"721 1105 LINE SMOOTH",
"721 1280 OFFCURVE",
"615 1382 OFFCURVE",
"438 1382 CURVE SMOOTH",
"265 1382 OFFCURVE",
"139 1260 OFFCURVE",
"139 1081 CURVE SMOOTH",
"139 917 OFFCURVE",
"245 796 OFFCURVE",
"428 760 CURVE",
"211 745 OFFCURVE",
"90 621 OFFCURVE",
"90 420 CURVE SMOOTH",
"90 137 OFFCURVE",
"318 -20 OFFCURVE",
"694 -20 CURVE SMOOTH"
);
},
{
closed = 1;
nodes = (
"1000 994 OFFCURVE",
"967 1058 OFFCURVE",
"967 1114 CURVE SMOOTH",
"967 1183 OFFCURVE",
"1011 1225 OFFCURVE",
"1083 1225 CURVE SMOOTH",
"1148 1225 OFFCURVE",
"1198 1182 OFFCURVE",
"1198 1118 CURVE SMOOTH",
"1198 1054 OFFCURVE",
"1175 1010 OFFCURVE",
"1067 922 CURVE"
);
}
);
width = 1448;
}
);
note = uniA885;
unicode = A885;
},
{
glyphname = uniA886;
lastChange = "2016-11-10 17:39:07 +0000";
layers = (
{
layerId = "C218C3DC-F535-40CE-915C-45F049FE9E78";
paths = (
{
closed = 1;
nodes = (
"819 -18 OFFCURVE",
"925 1 OFFCURVE",
"1018 40 CURVE SMOOTH",
"1205 116 OFFCURVE",
"1300 253 OFFCURVE",
"1300 440 CURVE SMOOTH",
"1300 663 OFFCURVE",
"1163 797 OFFCURVE",
"936 797 CURVE",
"889 795 LINE",
"969 838 OFFCURVE",
"1014 919 OFFCURVE",
"1014 1030 CURVE SMOOTH",
"1014 1061 OFFCURVE",
"1011 1090 OFFCURVE",
"1004 1118 CURVE",
"1032 1122 OFFCURVE",
"1061 1124 OFFCURVE",
"1092 1124 CURVE SMOOTH",
"1212 1124 OFFCURVE",
"1260 1094 OFFCURVE",
"1260 1034 CURVE SMOOTH",
"1260 997 OFFCURVE",
"1230 969 OFFCURVE",
"1171 952 CURVE",
"1227 797 LINE",
"1347 836 OFFCURVE",
"1407 907 OFFCURVE",
"1407 1010 CURVE SMOOTH",
"1407 1170 OFFCURVE",
"1291 1253 OFFCURVE",
"1083 1253 CURVE",
"948 1247 LINE",
"849 1340 OFFCURVE",
"722 1386 OFFCURVE",
"567 1386 CURVE SMOOTH",
"468 1386 OFFCURVE",
"347 1364 OFFCURVE",
"260 1333 CURVE",
"309 1186 LINE",
"409 1227 OFFCURVE",
"507 1247 OFFCURVE",
"602 1247 CURVE SMOOTH",
"661 1247 OFFCURVE",
"719 1237 OFFCURVE",
"774 1217 CURVE",
"337 1137 OFFCURVE",
"63 897 OFFCURVE",
"63 557 CURVE SMOOTH",
"63 444 OFFCURVE",
"88 345 OFFCURVE",
"139 260 CURVE SMOOTH",
"239 89 OFFCURVE",
"461 -18 OFFCURVE",
"702 -18 CURVE SMOOTH"
);
},
{
closed = 1;
nodes = (
"598 145 OFFCURVE",
"514 162 OFFCURVE",
"441 196 CURVE SMOOTH",
"293 263 OFFCURVE",
"215 389 OFFCURVE",
"215 557 CURVE SMOOTH",
"215 842 OFFCURVE",
"453 1040 OFFCURVE",
"862 1104 CURVE",
"867 1087 OFFCURVE",
"870 1063 OFFCURVE",
"870 1032 CURVE SMOOTH",
"870 913 OFFCURVE",
"801 831 OFFCURVE",
"621 782 CURVE",
"664 633 LINE",
"727 654 OFFCURVE",
"817 672 OFFCURVE",
"870 672 CURVE SMOOTH",
"944 672 OFFCURVE",
"1000 665 OFFCURVE",
"1037 650 CURVE SMOOTH",
"1111 620 OFFCURVE",
"1153 555 OFFCURVE",
"1153 440 CURVE SMOOTH",
"1153 385 OFFCURVE",
"1134 335 OFFCURVE",
"1096 290 CURVE SMOOTH",
"1019 201 OFFCURVE",
"851 145 OFFCURVE",
"692 145 CURVE SMOOTH"
);
}
);
width = 1466;
}
);
note = uniA886;
unicode = A886;
},
{
glyphname = uniA887;
lastChange = "2016-11-10 17:39:07 +0000";
layers = (
{
layerId = "C218C3DC-F535-40CE-915C-45F049FE9E78";
paths = (
{
closed = 1;
nodes = (
"842 -20 OFFCURVE",
"946 0 OFFCURVE",
"1041 39 CURVE SMOOTH",
"1232 118 OFFCURVE",
"1325 252 OFFCURVE",
"1325 428 CURVE SMOOTH",
"1325 664 OFFCURVE",
"1193 804 OFFCURVE",
"960 804 CURVE",
"905 801 LINE",
"981 846 OFFCURVE",
"1026 933 OFFCURVE",
"1026 1036 CURVE SMOOTH",
"1026 1068 OFFCURVE",
"1023 1098 OFFCURVE",
"1016 1126 CURVE",
"1102 1130 LINE",
"1387 1130 OFFCURVE",
"1497 994 OFFCURVE",
"1497 662 CURVE SMOOTH",
"1497 0 LINE",
"1663 0 LINE",
"1663 662 LINE SMOOTH",
"1663 1082 OFFCURVE",
"1481 1278 OFFCURVE",
"1090 1278 CURVE SMOOTH",
"1057 1278 OFFCURVE",
"1010 1276 OFFCURVE",
"950 1272 CURVE",
"853 1352 OFFCURVE",
"740 1386 OFFCURVE",
"584 1386 CURVE SMOOTH",
"489 1386 OFFCURVE",
"367 1364 OFFCURVE",
"283 1331 CURVE",
"330 1188 LINE",
"435 1229 OFFCURVE",
"533 1249 OFFCURVE",
"625 1249 CURVE SMOOTH",
"680 1249 OFFCURVE",
"731 1242 OFFCURVE",
"778 1227 CURVE",
"359 1132 OFFCURVE",
"104 869 OFFCURVE",
"104 520 CURVE SMOOTH",
"104 411 OFFCURVE",
"129 316 OFFCURVE",
"178 237 CURVE SMOOTH",
"277 78 OFFCURVE",
"488 -20 OFFCURVE",
"731 -20 CURVE SMOOTH"
);
},
{
closed = 1;
nodes = (
"431 145 OFFCURVE",
"262 285 OFFCURVE",
"262 522 CURVE SMOOTH",
"262 618 OFFCURVE",
"287 707 OFFCURVE",
"336 788 CURVE SMOOTH",
"434 950 OFFCURVE",
"642 1074 OFFCURVE",
"866 1106 CURVE",
"875 1081 OFFCURVE",
"879 1059 OFFCURVE",
"879 1038 CURVE SMOOTH",
"879 909 OFFCURVE",
"802 835 OFFCURVE",
"635 791 CURVE",
"686 639 LINE",
"742 659 OFFCURVE",
"844 682 OFFCURVE",
"903 682 CURVE SMOOTH",
"1095 682 OFFCURVE",
"1176 605 OFFCURVE",
"1176 449 CURVE SMOOTH",
"1176 390 OFFCURVE",
"1157 337 OFFCURVE",
"1120 292 CURVE SMOOTH",
"1044 201 OFFCURVE",
"891 145 OFFCURVE",
"731 145 CURVE SMOOTH"
);
}
);
width = 1769;
}
);
note = uniA887;
unicode = A887;
},
{
glyphname = uniA888;
lastChange = "2016-11-10 17:39:07 +0000";
layers = (
{
layerId = "C218C3DC-F535-40CE-915C-45F049FE9E78";
paths = (
{
closed = 1;
nodes = (
"1095 -18 OFFCURVE",
"1351 119 OFFCURVE",
"1476 406 CURVE SMOOTH",
"1601 693 OFFCURVE",
"1579 1058 OFFCURVE",
"1548 1362 CURVE",
"1397 1362 LINE",
"1410 1173 OFFCURVE",
"1417 1068 OFFCURVE",
"1418 1049 CURVE SMOOTH",
"1419 1030 OFFCURVE",
"1419 1010 OFFCURVE",
"1419 991 CURVE SMOOTH",
"1419 790 OFFCURVE",
"1393 629 OFFCURVE",
"1341 508 CURVE SMOOTH",
"1236 266 OFFCURVE",
"1019 143 OFFCURVE",
"672 143 CURVE SMOOTH",
"377 143 OFFCURVE",
"250 214 OFFCURVE",
"250 371 CURVE SMOOTH",
"250 495 OFFCURVE",
"329 545 OFFCURVE",
"553 545 CURVE SMOOTH",
"784 545 LINE SMOOTH",
"913 545 OFFCURVE",
"1014 561 OFFCURVE",
"1086 594 CURVE SMOOTH",
"1229 659 OFFCURVE",
"1298 798 OFFCURVE",
"1298 1034 CURVE SMOOTH",
"1298 1257 OFFCURVE",
"1216 1378 OFFCURVE",
"1063 1378 CURVE SMOOTH",
"974 1378 OFFCURVE",
"892 1321 OFFCURVE",
"791 1197 CURVE SMOOTH",
"680 1062 OFFCURVE",
"601 975 OFFCURVE",
"552 936 CURVE SMOOTH",
"503 897 OFFCURVE",
"452 877 OFFCURVE",
"399 877 CURVE SMOOTH",
"282 877 OFFCURVE",
"223 945 OFFCURVE",
"223 1081 CURVE SMOOTH",
"223 1173 OFFCURVE",
"266 1221 OFFCURVE",
"346 1221 CURVE SMOOTH",
"429 1221 OFFCURVE",
"447 1176 OFFCURVE",
"447 1108 CURVE",
"446 1087 LINE",
"594 1087 LINE",
"596 1130 LINE",
"596 1281 OFFCURVE",
"499 1370 OFFCURVE",
"346 1370 CURVE SMOOTH",
"185 1370 OFFCURVE",
"72 1258 OFFCURVE",
"72 1083 CURVE SMOOTH",
"72 870 OFFCURVE",
"188 748 OFFCURVE",
"397 748 CURVE SMOOTH",
"506 748 OFFCURVE",
"588 783 OFFCURVE",
"666 851 CURVE SMOOTH",
"705 885 OFFCURVE",
"767 956 OFFCURVE",
"852 1063 CURVE SMOOTH",
"932 1167 OFFCURVE",
"983 1217 OFFCURVE",
"1038 1217 CURVE SMOOTH",
"1113 1217 OFFCURVE",
"1147 1171 OFFCURVE",
"1147 1034 CURVE SMOOTH",
"1147 770 OFFCURVE",
"1035 676 OFFCURVE",
"756 676 CURVE SMOOTH",
"524 676 LINE SMOOTH",
"409 676 OFFCURVE",
"324 666 OFFCURVE",
"267 646 CURVE SMOOTH",
"153 606 OFFCURVE",
"98 520 OFFCURVE",
"98 371 CURVE SMOOTH",
"98 118 OFFCURVE",
"296 -18 OFFCURVE",
"672 -18 CURVE SMOOTH"
);
}
);
width = 1700;
}
);
note = uniA888;
unicode = A888;
},
{
glyphname = uniA889;
lastChange = "2016-11-10 17:39:07 +0000";
layers = (
{
layerId = "C218C3DC-F535-40CE-915C-45F049FE9E78";
paths = (
{
closed = 1;
nodes = (
"799 -23 OFFCURVE",
"964 42 OFFCURVE",
"1083 190 CURVE",
"1123 50 OFFCURVE",
"1210 -7 OFFCURVE",
"1366 -7 CURVE SMOOTH",
"1411 -6 LINE",
"1391 156 LINE",
"1363 155 LINE",
"1242 155 OFFCURVE",
"1181 221 OFFCURVE",
"1181 352 CURVE",
"1182 371 LINE",
"1053 401 LINE",
"973 234 OFFCURVE",
"824 143 OFFCURVE",
"580 143 CURVE SMOOTH",
"337 143 OFFCURVE",
"240 208 OFFCURVE",
"240 371 CURVE SMOOTH",
"240 495 OFFCURVE",
"319 545 OFFCURVE",
"543 545 CURVE SMOOTH",
"774 545 LINE SMOOTH",
"903 545 OFFCURVE",
"1004 561 OFFCURVE",
"1076 594 CURVE SMOOTH",
"1219 659 OFFCURVE",
"1288 798 OFFCURVE",
"1288 1034 CURVE SMOOTH",
"1288 1257 OFFCURVE",
"1206 1378 OFFCURVE",
"1053 1378 CURVE SMOOTH",
"964 1378 OFFCURVE",
"885 1324 OFFCURVE",
"781 1197 CURVE SMOOTH",
"670 1062 OFFCURVE",
"591 975 OFFCURVE",
"542 936 CURVE SMOOTH",
"493 897 OFFCURVE",
"442 877 OFFCURVE",
"389 877 CURVE SMOOTH",
"272 877 OFFCURVE",
"213 945 OFFCURVE",
"213 1081 CURVE SMOOTH",
"213 1173 OFFCURVE",
"256 1221 OFFCURVE",
"336 1221 CURVE SMOOTH",
"417 1221 OFFCURVE",
"436 1176 OFFCURVE",
"436 1103 CURVE SMOOTH",
"436 1087 LINE",
"584 1087 LINE",
"586 1130 LINE",
"586 1281 OFFCURVE",
"489 1370 OFFCURVE",
"336 1370 CURVE SMOOTH",
"173 1370 OFFCURVE",
"61 1258 OFFCURVE",
"61 1083 CURVE SMOOTH",
"61 870 OFFCURVE",
"175 748 OFFCURVE",
"387 748 CURVE SMOOTH",
"496 748 OFFCURVE",
"578 783 OFFCURVE",
"656 851 CURVE SMOOTH",
"695 885 OFFCURVE",
"757 956 OFFCURVE",
"842 1063 CURVE SMOOTH",
"922 1167 OFFCURVE",
"973 1217 OFFCURVE",
"1028 1217 CURVE SMOOTH",
"1103 1217 OFFCURVE",
"1137 1171 OFFCURVE",
"1137 1034 CURVE SMOOTH",
"1137 774 OFFCURVE",
"1028 676 OFFCURVE",
"745 676 CURVE SMOOTH",
"514 676 LINE SMOOTH",
"399 676 OFFCURVE",
"314 666 OFFCURVE",
"257 646 CURVE SMOOTH",
"143 606 OFFCURVE",
"88 520 OFFCURVE",
"88 371 CURVE SMOOTH",
"88 106 OFFCURVE",
"251 -23 OFFCURVE",
"580 -23 CURVE SMOOTH"
);
}
);
width = 1386;
}
);
note = uniA889;
unicode = A889;
},
{
glyphname = uniA88A;
lastChange = "2016-11-10 17:39:07 +0000";
layers = (
{
layerId = "C218C3DC-F535-40CE-915C-45F049FE9E78";
paths = (
{
closed = 1;
nodes = (
"1442 -18 OFFCURVE",
"1602 243 OFFCURVE",
"1602 764 CURVE SMOOTH",
"1602 1161 OFFCURVE",
"1456 1378 OFFCURVE",
"1208 1378 CURVE SMOOTH",
"1022 1378 OFFCURVE",
"901 1286 OFFCURVE",
"844 1102 CURVE",
"838 1100 LINE",
"796 1285 OFFCURVE",
"681 1378 OFFCURVE",
"492 1378 CURVE SMOOTH",
"224 1378 OFFCURVE",
"84 1158 OFFCURVE",
"84 762 CURVE SMOOTH",
"84 271 OFFCURVE",
"268 -5 OFFCURVE",
"608 -10 CURVE",
"608 160 LINE",
"359 165 OFFCURVE",
"240 351 OFFCURVE",
"240 764 CURVE SMOOTH",
"240 1064 OFFCURVE",
"329 1214 OFFCURVE",
"508 1214 CURVE SMOOTH",
"683 1214 OFFCURVE",
"760 1056 OFFCURVE",
"764 715 CURVE",
"922 715 LINE",
"923 824 OFFCURVE",
"934 915 OFFCURVE",
"953 990 CURVE SMOOTH",
"991 1139 OFFCURVE",
"1063 1214 OFFCURVE",
"1198 1214 CURVE SMOOTH",
"1374 1214 OFFCURVE",
"1452 1057 OFFCURVE",
"1452 764 CURVE SMOOTH",
"1452 363 OFFCURVE",
"1329 145 OFFCURVE",
"1104 145 CURVE SMOOTH",
"995 145 OFFCURVE",
"936 187 OFFCURVE",
"936 262 CURVE SMOOTH",
"936 337 OFFCURVE",
"976 373 OFFCURVE",
"1100 373 CURVE SMOOTH",
"1188 373 LINE",
"1208 514 LINE",
"651 514 LINE",
"631 373 LINE",
"850 373 LINE",
"815 339 OFFCURVE",
"797 298 OFFCURVE",
"797 250 CURVE SMOOTH",
"797 197 OFFCURVE",
"810 150 OFFCURVE",
"835 111 CURVE SMOOTH",
"886 31 OFFCURVE",
"999 -18 OFFCURVE",
"1122 -18 CURVE SMOOTH"
);
}
);
width = 1694;
}
);
note = uniA88A;
unicode = A88A;
},
{
glyphname = uniA88B;
lastChange = "2016-11-10 17:39:07 +0000";
layers = (
{
layerId = "C218C3DC-F535-40CE-915C-45F049FE9E78";
paths = (
{
closed = 1;
nodes = (
"1288 -514 OFFCURVE",
"1413 -418 OFFCURVE",
"1413 -246 CURVE SMOOTH",
"1413 -122 OFFCURVE",
"1344 -31 OFFCURVE",
"1223 -6 CURVE",
"1468 46 OFFCURVE",
"1602 319 OFFCURVE",
"1602 764 CURVE SMOOTH",
"1602 1161 OFFCURVE",
"1456 1378 OFFCURVE",
"1208 1378 CURVE SMOOTH",
"1022 1378 OFFCURVE",
"901 1286 OFFCURVE",
"844 1102 CURVE",
"838 1100 LINE",
"796 1285 OFFCURVE",
"681 1378 OFFCURVE",
"492 1378 CURVE SMOOTH",
"224 1378 OFFCURVE",
"84 1158 OFFCURVE",
"84 762 CURVE SMOOTH",
"84 271 OFFCURVE",
"268 -5 OFFCURVE",
"608 -10 CURVE",
"608 160 LINE",
"359 165 OFFCURVE",
"240 351 OFFCURVE",
"240 764 CURVE SMOOTH",
"240 1064 OFFCURVE",
"329 1214 OFFCURVE",
"508 1214 CURVE SMOOTH",
"683 1214 OFFCURVE",
"760 1056 OFFCURVE",
"764 715 CURVE",
"922 715 LINE",
"923 824 OFFCURVE",
"934 915 OFFCURVE",
"953 990 CURVE SMOOTH",
"991 1139 OFFCURVE",
"1063 1214 OFFCURVE",
"1198 1214 CURVE SMOOTH",
"1374 1214 OFFCURVE",
"1452 1057 OFFCURVE",
"1452 764 CURVE SMOOTH",
"1452 360 OFFCURVE",
"1329 131 OFFCURVE",
"1104 131 CURVE SMOOTH",
"1004 131 OFFCURVE",
"936 185 OFFCURVE",
"936 262 CURVE SMOOTH",
"936 337 OFFCURVE",
"976 373 OFFCURVE",
"1100 373 CURVE SMOOTH",
"1188 373 LINE",
"1208 514 LINE",
"651 514 LINE",
"631 373 LINE",
"850 373 LINE",
"815 339 OFFCURVE",
"797 298 OFFCURVE",
"797 250 CURVE SMOOTH",
"797 105 OFFCURVE",
"894 9 OFFCURVE",
"1061 -14 CURVE",
"954 -45 OFFCURVE",
"921 -122 OFFCURVE",
"921 -193 CURVE",
"924 -229 LINE",
"1069 -229 LINE",
"1068 -212 LINE",
"1068 -159 OFFCURVE",
"1104 -121 OFFCURVE",
"1159 -121 CURVE SMOOTH",
"1218 -121 OFFCURVE",
"1253 -159 OFFCURVE",
"1253 -227 CURVE SMOOTH",
"1253 -323 OFFCURVE",
"1182 -377 OFFCURVE",
"1063 -377 CURVE SMOOTH",
"928 -377 OFFCURVE",
"778 -296 OFFCURVE",
"641 -139 CURVE",
"537 -240 LINE",
"700 -423 OFFCURVE",
"878 -514 OFFCURVE",
"1069 -514 CURVE SMOOTH"
);
}
);
width = 1700;
}
);
note = uniA88B;
unicode = A88B;
},
{
glyphname = uniA88C;
lastChange = "2016-11-10 17:39:07 +0000";
layers = (
{
layerId = "C218C3DC-F535-40CE-915C-45F049FE9E78";
paths = (
{
closed = 1;
nodes = (
"900 -20 OFFCURVE",
"1055 91 OFFCURVE",
"1055 274 CURVE SMOOTH",
"1055 293 OFFCURVE",
"1050 329 OFFCURVE",
"1040 381 CURVE",
"1224 441 OFFCURVE",
"1311 564 OFFCURVE",
"1311 713 CURVE SMOOTH",
"1311 764 OFFCURVE",
"1300 808 OFFCURVE",
"1277 846 CURVE SMOOTH",
"1232 922 OFFCURVE",
"1148 967 OFFCURVE",
"1055 967 CURVE SMOOTH",
"896 967 OFFCURVE",
"795 886 OFFCURVE",
"795 745 CURVE SMOOTH",
"795 665 OFFCURVE",
"823 581 OFFCURVE",
"852 498 CURVE",
"791 498 OFFCURVE",
"749 506 OFFCURVE",
"724 522 CURVE SMOOTH",
"675 554 OFFCURVE",
"653 618 OFFCURVE",
"653 745 CURVE SMOOTH",
"653 954 LINE",
"487 942 LINE",
"487 727 LINE SMOOTH",
"487 644 OFFCURVE",
"499 575 OFFCURVE",
"524 520 CURVE SMOOTH",
"573 411 OFFCURVE",
"671 362 OFFCURVE",
"887 362 CURVE",
"894 334 OFFCURVE",
"897 308 OFFCURVE",
"897 283 CURVE SMOOTH",
"897 194 OFFCURVE",
"806 139 OFFCURVE",
"647 139 CURVE SMOOTH",
"561 139 OFFCURVE",
"487 162 OFFCURVE",
"425 207 CURVE SMOOTH",
"300 297 OFFCURVE",
"231 468 OFFCURVE",
"231 680 CURVE SMOOTH",
"231 1027 OFFCURVE",
"417 1235 OFFCURVE",
"741 1235 CURVE SMOOTH",
"894 1235 OFFCURVE",
"1048 1169 OFFCURVE",
"1171 1036 CURVE",
"1278 1135 LINE",
"1130 1298 OFFCURVE",
"934 1386 OFFCURVE",
"727 1386 CURVE SMOOTH",
"596 1386 OFFCURVE",
"481 1358 OFFCURVE",
"384 1303 CURVE SMOOTH",
"189 1192 OFFCURVE",
"82 975 OFFCURVE",
"82 678 CURVE SMOOTH",
"82 541 OFFCURVE",
"105 419 OFFCURVE",
"151 314 CURVE SMOOTH",
"243 102 OFFCURVE",
"420 -20 OFFCURVE",
"655 -20 CURVE SMOOTH"
);
},
{
closed = 1;
nodes = (
"968 611 OFFCURVE",
"950 672 OFFCURVE",
"950 725 CURVE SMOOTH",
"950 788 OFFCURVE",
"991 823 OFFCURVE",
"1059 823 CURVE SMOOTH",
"1124 823 OFFCURVE",
"1157 786 OFFCURVE",
"1157 713 CURVE SMOOTH",
"1157 630 OFFCURVE",
"1096 553 OFFCURVE",
"999 516 CURVE"
);
}
);
width = 1401;
}
);
note = uniA88C;
unicode = A88C;
},
{
glyphname = uniA88D;
lastChange = "2016-11-10 17:39:07 +0000";
layers = (
{
layerId = "C218C3DC-F535-40CE-915C-45F049FE9E78";
paths = (
{
closed = 1;
nodes = (
"698 -23 OFFCURVE",
"765 -10 OFFCURVE",
"826 17 CURVE SMOOTH",
"947 70 OFFCURVE",
"1016 175 OFFCURVE",
"1016 311 CURVE SMOOTH",
"1016 332 OFFCURVE",
"1014 356 OFFCURVE",
"1010 381 CURVE",
"1182 432 OFFCURVE",
"1290 560 OFFCURVE",
"1290 713 CURVE SMOOTH",
"1290 765 OFFCURVE",
"1279 810 OFFCURVE",
"1256 847 CURVE SMOOTH",
"1211 922 OFFCURVE",
"1127 965 OFFCURVE",
"1036 965 CURVE SMOOTH",
"875 965 OFFCURVE",
"776 884 OFFCURVE",
"776 745 CURVE SMOOTH",
"776 665 OFFCURVE",
"807 581 OFFCURVE",
"836 498 CURVE",
"775 498 OFFCURVE",
"732 506 OFFCURVE",
"707 522 CURVE SMOOTH",
"655 553 OFFCURVE",
"633 618 OFFCURVE",
"633 745 CURVE SMOOTH",
"633 954 LINE",
"471 942 LINE",
"471 727 LINE SMOOTH",
"471 598 OFFCURVE",
"501 503 OFFCURVE",
"558 447 CURVE SMOOTH",
"615 390 OFFCURVE",
"701 362 OFFCURVE",
"870 362 CURVE",
"872 341 LINE",
"872 322 LINE SMOOTH",
"872 210 OFFCURVE",
"766 137 OFFCURVE",
"625 137 CURVE SMOOTH",
"400 137 OFFCURVE",
"262 309 OFFCURVE",
"262 565 CURVE SMOOTH",
"262 703 OFFCURVE",
"289 823 OFFCURVE",
"344 925 CURVE SMOOTH",
"453 1128 OFFCURVE",
"665 1239 OFFCURVE",
"934 1239 CURVE SMOOTH",
"1242 1239 OFFCURVE",
"1407 1063 OFFCURVE",
"1407 735 CURVE SMOOTH",
"1407 0 LINE",
"1573 0 LINE",
"1573 735 LINE SMOOTH",
"1573 1154 OFFCURVE",
"1335 1395 OFFCURVE",
"938 1395 CURVE SMOOTH",
"781 1395 OFFCURVE",
"638 1359 OFFCURVE",
"510 1288 CURVE SMOOTH",
"253 1145 OFFCURVE",
"113 887 OFFCURVE",
"113 578 CURVE SMOOTH",
"113 462 OFFCURVE",
"133 358 OFFCURVE",
"174 267 CURVE SMOOTH",
"255 83 OFFCURVE",
"412 -23 OFFCURVE",
"625 -23 CURVE SMOOTH"
);
},
{
closed = 1;
nodes = (
"948 611 OFFCURVE",
"930 672 OFFCURVE",
"930 725 CURVE SMOOTH",
"930 786 OFFCURVE",
"970 823 OFFCURVE",
"1038 823 CURVE SMOOTH",
"1104 823 OFFCURVE",
"1137 786 OFFCURVE",
"1137 713 CURVE SMOOTH",
"1137 630 OFFCURVE",
"1075 553 OFFCURVE",
"979 516 CURVE"
);
}
);
width = 1722;
}
);
note = uniA88D;
unicode = A88D;
},
{
glyphname = uniA88E;
lastChange = "2016-11-10 17:39:07 +0000";
layers = (
{
layerId = "C218C3DC-F535-40CE-915C-45F049FE9E78";
paths = (
{
closed = 1;
nodes = (
"785 -23 OFFCURVE",
"870 -10 OFFCURVE",
"951 17 CURVE SMOOTH",
"1111 70 OFFCURVE",
"1194 166 OFFCURVE",
"1194 283 CURVE SMOOTH",
"1194 313 OFFCURVE",
"1190 346 OFFCURVE",
"1182 381 CURVE",
"1346 433 OFFCURVE",
"1434 548 OFFCURVE",
"1434 713 CURVE SMOOTH",
"1434 764 OFFCURVE",
"1424 808 OFFCURVE",
"1403 847 CURVE SMOOTH",
"1361 923 OFFCURVE",
"1281 967 OFFCURVE",
"1190 967 CURVE SMOOTH",
"1145 967 OFFCURVE",
"1104 958 OFFCURVE",
"1067 941 CURVE SMOOTH",
"994 906 OFFCURVE",
"948 840 OFFCURVE",
"948 745 CURVE SMOOTH",
"948 668 OFFCURVE",
"963 585 OFFCURVE",
"993 496 CURVE",
"938 492 LINE",
"874 492 OFFCURVE",
"850 519 OFFCURVE",
"837 579 CURVE SMOOTH",
"830 608 OFFCURVE",
"827 650 OFFCURVE",
"827 705 CURVE SMOOTH",
"827 954 LINE",
"668 942 LINE",
"668 686 LINE SMOOTH",
"668 606 OFFCURVE",
"677 543 OFFCURVE",
"696 498 CURVE",
"672 494 OFFCURVE",
"650 492 OFFCURVE",
"631 492 CURVE SMOOTH",
"584 492 OFFCURVE",
"553 509 OFFCURVE",
"538 542 CURVE SMOOTH",
"522 575 OFFCURVE",
"514 636 OFFCURVE",
"514 725 CURVE SMOOTH",
"514 934 LINE",
"354 922 LINE",
"354 666 LINE SMOOTH",
"354 457 OFFCURVE",
"432 358 OFFCURVE",
"608 358 CURVE SMOOTH",
"662 358 OFFCURVE",
"722 368 OFFCURVE",
"788 389 CURVE",
"828 368 OFFCURVE",
"880 358 OFFCURVE",
"944 358 CURVE",
"1038 362 LINE",
"1053 313 OFFCURVE",
"1062 266 OFFCURVE",
"1003 213 CURVE SMOOTH",
"944 160 OFFCURVE",
"819 129 OFFCURVE",
"694 129 CURVE SMOOTH",
"374 129 OFFCURVE",
"190 329 OFFCURVE",
"190 690 CURVE SMOOTH",
"190 1039 OFFCURVE",
"394 1241 OFFCURVE",
"741 1241 CURVE SMOOTH",
"921 1241 OFFCURVE",
"1107 1170 OFFCURVE",
"1212 1055 CURVE",
"1313 1161 LINE",
"1166 1312 OFFCURVE",
"958 1393 OFFCURVE",
"727 1393 CURVE SMOOTH",
"593 1393 OFFCURVE",
"474 1365 OFFCURVE",
"370 1308 CURVE SMOOTH",
"161 1194 OFFCURVE",
"39 975 OFFCURVE",
"39 686 CURVE SMOOTH",
"39 548 OFFCURVE",
"67 425 OFFCURVE",
"123 317 CURVE SMOOTH",
"235 101 OFFCURVE",
"447 -23 OFFCURVE",
"696 -23 CURVE SMOOTH"
);
},
{
closed = 1;
nodes = (
"1115 596 OFFCURVE",
"1102 666 OFFCURVE",
"1102 725 CURVE SMOOTH",
"1102 792 OFFCURVE",
"1133 825 OFFCURVE",
"1194 825 CURVE SMOOTH",
"1251 825 OFFCURVE",
"1280 788 OFFCURVE",
"1280 713 CURVE SMOOTH",
"1280 630 OFFCURVE",
"1237 553 OFFCURVE",
"1141 516 CURVE"
);
}
);
width = 1505;
}
);
note = uniA88E;
unicode = A88E;
},
{
glyphname = uniA88F;
lastChange = "2016-11-10 17:39:07 +0000";
layers = (
{
layerId = "C218C3DC-F535-40CE-915C-45F049FE9E78";
paths = (
{
closed = 1;
nodes = (
"1005 -25 OFFCURVE",
"1180 100 OFFCURVE",
"1180 315 CURVE SMOOTH",
"1180 470 OFFCURVE",
"1086 551 OFFCURVE",
"897 551 CURVE",
"897 559 LINE",
"1052 578 OFFCURVE",
"1120 651 OFFCURVE",
"1120 815 CURVE SMOOTH",
"1120 978 OFFCURVE",
"995 1081 OFFCURVE",
"799 1081 CURVE SMOOTH",
"611 1081 OFFCURVE",
"480 981 OFFCURVE",
"469 817 CURVE",
"631 801 LINE",
"641 891 OFFCURVE",
"697 936 OFFCURVE",
"799 936 CURVE SMOOTH",
"912 936 OFFCURVE",
"969 892 OFFCURVE",
"969 803 CURVE SMOOTH",
"969 743 OFFCURVE",
"946 700 OFFCURVE",
"899 673 CURVE SMOOTH",
"852 646 OFFCURVE",
"762 632 OFFCURVE",
"631 631 CURVE",
"633 485 LINE",
"759 485 OFFCURVE",
"845 481 OFFCURVE",
"892 473 CURVE SMOOTH",
"985 457 OFFCURVE",
"1018 421 OFFCURVE",
"1018 332 CURVE SMOOTH",
"1018 208 OFFCURVE",
"912 139 OFFCURVE",
"707 139 CURVE SMOOTH",
"403 139 OFFCURVE",
"236 332 OFFCURVE",
"236 688 CURVE SMOOTH",
"236 1041 OFFCURVE",
"430 1247 OFFCURVE",
"733 1247 CURVE SMOOTH",
"884 1247 OFFCURVE",
"995 1209 OFFCURVE",
"1104 1124 CURVE",
"1192 1253 LINE",
"1063 1353 OFFCURVE",
"907 1403 OFFCURVE",
"725 1403 CURVE SMOOTH",
"597 1403 OFFCURVE",
"485 1375 OFFCURVE",
"388 1318 CURVE SMOOTH",
"194 1205 OFFCURVE",
"84 984 OFFCURVE",
"84 684 CURVE SMOOTH",
"84 536 OFFCURVE",
"110 409 OFFCURVE",
"161 302 CURVE SMOOTH",
"264 88 OFFCURVE",
"457 -25 OFFCURVE",
"713 -25 CURVE SMOOTH"
);
}
);
width = 1303;
}
);
note = uniA88F;
unicode = A88F;
},
{
glyphname = uniA890;
lastChange = "2016-11-10 17:39:07 +0000";
layers = (
{
layerId = "C218C3DC-F535-40CE-915C-45F049FE9E78";
paths = (
{
closed = 1;
nodes = (
"1021 -18 OFFCURVE",
"1202 105 OFFCURVE",
"1202 309 CURVE SMOOTH",
"1202 474 OFFCURVE",
"1123 551 OFFCURVE",
"928 551 CURVE",
"928 559 LINE",
"1069 576 OFFCURVE",
"1141 654 OFFCURVE",
"1141 815 CURVE SMOOTH",
"1141 978 OFFCURVE",
"1014 1081 OFFCURVE",
"819 1081 CURVE SMOOTH",
"632 1081 OFFCURVE",
"502 982 OFFCURVE",
"489 817 CURVE",
"651 801 LINE",
"663 891 OFFCURVE",
"719 936 OFFCURVE",
"819 936 CURVE SMOOTH",
"932 936 OFFCURVE",
"989 892 OFFCURVE",
"989 803 CURVE SMOOTH",
"989 742 OFFCURVE",
"967 698 OFFCURVE",
"922 673 CURVE SMOOTH",
"877 648 OFFCURVE",
"791 634 OFFCURVE",
"666 633 CURVE",
"668 483 LINE",
"789 482 OFFCURVE",
"871 477 OFFCURVE",
"916 468 CURVE SMOOTH",
"1005 449 OFFCURVE",
"1038 412 OFFCURVE",
"1038 317 CURVE SMOOTH",
"1038 209 OFFCURVE",
"920 145 OFFCURVE",
"723 145 CURVE SMOOTH",
"444 145 OFFCURVE",
"262 336 OFFCURVE",
"262 621 CURVE SMOOTH",
"262 738 OFFCURVE",
"288 843 OFFCURVE",
"339 936 CURVE SMOOTH",
"442 1121 OFFCURVE",
"649 1239 OFFCURVE",
"885 1239 CURVE SMOOTH",
"1192 1239 OFFCURVE",
"1350 1079 OFFCURVE",
"1350 764 CURVE SMOOTH",
"1350 0 LINE",
"1516 0 LINE",
"1516 764 LINE SMOOTH",
"1516 1175 OFFCURVE",
"1301 1393 OFFCURVE",
"893 1393 CURVE SMOOTH",
"746 1393 OFFCURVE",
"611 1360 OFFCURVE",
"490 1294 CURVE SMOOTH",
"246 1161 OFFCURVE",
"111 924 OFFCURVE",
"111 625 CURVE SMOOTH",
"111 496 OFFCURVE",
"137 383 OFFCURVE",
"189 286 CURVE SMOOTH",
"293 92 OFFCURVE",
"492 -18 OFFCURVE",
"725 -18 CURVE SMOOTH"
);
}
);
width = 1653;
}
);
note = uniA890;
unicode = A890;
},
{
glyphname = uniA891;
lastChange = "2016-11-10 17:39:07 +0000";
layers = (
{
layerId = "C218C3DC-F535-40CE-915C-45F049FE9E78";
paths = (
{
closed = 1;
nodes = (
"1005 -25 OFFCURVE",
"1180 100 OFFCURVE",
"1180 315 CURVE SMOOTH",
"1180 336 OFFCURVE",
"1177 359 OFFCURVE",
"1171 383 CURVE",
"1234 393 OFFCURVE",
"1307 413 OFFCURVE",
"1389 444 CURVE",
"1438 379 OFFCURVE",
"1462 327 OFFCURVE",
"1462 289 CURVE SMOOTH",
"1462 233 OFFCURVE",
"1434 193 OFFCURVE",
"1321 129 CURVE",
"1407 -4 LINE",
"1536 59 OFFCURVE",
"1608 161 OFFCURVE",
"1608 270 CURVE SMOOTH",
"1608 340 OFFCURVE",
"1572 424 OFFCURVE",
"1499 522 CURVE",
"1570 586 OFFCURVE",
"1620 662 OFFCURVE",
"1620 770 CURVE SMOOTH",
"1620 882 OFFCURVE",
"1536 954 OFFCURVE",
"1423 954 CURVE SMOOTH",
"1303 954 OFFCURVE",
"1223 885 OFFCURVE",
"1223 770 CURVE SMOOTH",
"1223 710 OFFCURVE",
"1247 648 OFFCURVE",
"1319 553 CURVE",
"1263 526 OFFCURVE",
"1185 511 OFFCURVE",
"1085 508 CURVE",
"1042 537 OFFCURVE",
"979 551 OFFCURVE",
"897 551 CURVE",
"899 557 LINE",
"1052 576 OFFCURVE",
"1120 648 OFFCURVE",
"1120 815 CURVE SMOOTH",
"1120 978 OFFCURVE",
"995 1081 OFFCURVE",
"799 1081 CURVE SMOOTH",
"611 1081 OFFCURVE",
"480 981 OFFCURVE",
"469 817 CURVE",
"631 801 LINE",
"641 891 OFFCURVE",
"697 936 OFFCURVE",
"799 936 CURVE SMOOTH",
"912 936 OFFCURVE",
"969 892 OFFCURVE",
"969 803 CURVE SMOOTH",
"969 743 OFFCURVE",
"946 700 OFFCURVE",
"899 673 CURVE SMOOTH",
"852 646 OFFCURVE",
"762 632 OFFCURVE",
"631 631 CURVE",
"633 485 LINE",
"759 485 OFFCURVE",
"845 481 OFFCURVE",
"892 473 CURVE SMOOTH",
"985 457 OFFCURVE",
"1018 421 OFFCURVE",
"1018 332 CURVE SMOOTH",
"1018 208 OFFCURVE",
"912 139 OFFCURVE",
"707 139 CURVE SMOOTH",
"403 139 OFFCURVE",
"236 332 OFFCURVE",
"236 688 CURVE SMOOTH",
"236 1041 OFFCURVE",
"430 1247 OFFCURVE",
"733 1247 CURVE SMOOTH",
"884 1247 OFFCURVE",
"995 1209 OFFCURVE",
"1104 1124 CURVE",
"1192 1253 LINE",
"1063 1353 OFFCURVE",
"907 1403 OFFCURVE",
"725 1403 CURVE SMOOTH",
"597 1403 OFFCURVE",
"485 1375 OFFCURVE",
"388 1318 CURVE SMOOTH",
"194 1205 OFFCURVE",
"84 984 OFFCURVE",
"84 684 CURVE SMOOTH",
"84 536 OFFCURVE",
"110 409 OFFCURVE",
"161 302 CURVE SMOOTH",
"264 88 OFFCURVE",
"457 -25 OFFCURVE",
"713 -25 CURVE SMOOTH"
);
},
{
closed = 1;
nodes = (
"1382 672 OFFCURVE",
"1358 711 OFFCURVE",
"1358 764 CURVE SMOOTH",
"1358 799 OFFCURVE",
"1384 825 OFFCURVE",
"1423 825 CURVE SMOOTH",
"1462 825 OFFCURVE",
"1489 804 OFFCURVE",
"1489 764 CURVE SMOOTH",
"1489 719 OFFCURVE",
"1466 671 OFFCURVE",
"1421 621 CURVE"
);
}
);
width = 1694;
}
);
note = uniA891;
unicode = A891;
},
{
glyphname = uniA892;
lastChange = "2016-11-10 17:39:07 +0000";
layers = (
{
layerId = "C218C3DC-F535-40CE-915C-45F049FE9E78";
paths = (
{
closed = 1;
nodes = (
"1131 113 OFFCURVE",
"1167 509 OFFCURVE",
"1167 756 CURVE SMOOTH",
"1167 892 OFFCURVE",
"1165 987 OFFCURVE",
"1161 1041 CURVE SMOOTH",
"1152 1148 OFFCURVE",
"1133 1229 OFFCURVE",
"1097 1283 CURVE SMOOTH",
"1060 1337 OFFCURVE",
"1005 1366 OFFCURVE",
"922 1366 CURVE SMOOTH",
"851 1366 OFFCURVE",
"763 1316 OFFCURVE",
"639 1215 CURVE SMOOTH",
"532 1130 LINE",
"532 1281 OFFCURVE",
"441 1376 OFFCURVE",
"301 1376 CURVE SMOOTH",
"136 1376 OFFCURVE",
"43 1282 OFFCURVE",
"43 1122 CURVE SMOOTH",
"43 949 OFFCURVE",
"138 852 OFFCURVE",
"305 852 CURVE SMOOTH",
"334 852 OFFCURVE",
"362 857 OFFCURVE",
"389 866 CURVE",
"389 0 LINE",
"543 0 LINE",
"543 956 LINE",
"657 1052 OFFCURVE",
"730 1112 OFFCURVE",
"763 1135 CURVE SMOOTH",
"827 1182 OFFCURVE",
"869 1200 OFFCURVE",
"913 1200 CURVE SMOOTH",
"950 1200 OFFCURVE",
"978 1170 OFFCURVE",
"995 1111 CURVE SMOOTH",
"1012 1051 OFFCURVE",
"1020 933 OFFCURVE",
"1020 756 CURVE SMOOTH",
"1020 504 OFFCURVE",
"985 123 OFFCURVE",
"961 12 CURVE",
"1104 -16 LINE"
);
},
{
closed = 1;
nodes = (
"225 999 OFFCURVE",
"190 1042 OFFCURVE",
"190 1130 CURVE SMOOTH",
"190 1182 OFFCURVE",
"221 1229 OFFCURVE",
"293 1229 CURVE SMOOTH",
"368 1229 OFFCURVE",
"389 1180 OFFCURVE",
"389 1075 CURVE SMOOTH",
"389 1022 LINE",
"358 1007 OFFCURVE",
"330 999 OFFCURVE",
"305 999 CURVE SMOOTH"
);
}
);
width = 1270;
}
);
note = uniA892;
unicode = A892;
},
{
glyphname = uniA893;
lastChange = "2016-11-10 17:39:07 +0000";
layers = (
{
layerId = "C218C3DC-F535-40CE-915C-45F049FE9E78";
paths = (
{
closed = 1;
nodes = (
"323 -20 OFFCURVE",
"381 -6 OFFCURVE",
"443 21 CURVE SMOOTH",
"567 76 OFFCURVE",
"691 182 OFFCURVE",
"787 317 CURVE SMOOTH",
"883 452 OFFCURVE",
"955 607 OFFCURVE",
"1006 850 CURVE",
"1048 848 LINE",
"1092 848 LINE SMOOTH",
"1155 848 OFFCURVE",
"1203 851 OFFCURVE",
"1237 856 CURVE",
"1297 715 OFFCURVE",
"1334 623 OFFCURVE",
"1348 582 CURVE SMOOTH",
"1376 498 OFFCURVE",
"1389 437 OFFCURVE",
"1389 377 CURVE SMOOTH",
"1389 273 OFFCURVE",
"1331 191 OFFCURVE",
"1206 156 CURVE",
"1239 -12 LINE",
"1423 25 OFFCURVE",
"1544 177 OFFCURVE",
"1544 356 CURVE SMOOTH",
"1544 460 OFFCURVE",
"1507 595 OFFCURVE",
"1434 762 CURVE SMOOTH",
"1378 889 LINE",
"1511 938 OFFCURVE",
"1599 1026 OFFCURVE",
"1599 1157 CURVE SMOOTH",
"1599 1288 OFFCURVE",
"1511 1372 OFFCURVE",
"1384 1372 CURVE SMOOTH",
"1232 1372 OFFCURVE",
"1147 1286 OFFCURVE",
"1147 1133 CURVE SMOOTH",
"1147 1085 OFFCURVE",
"1157 1035 OFFCURVE",
"1176 983 CURVE",
"1157 980 OFFCURVE",
"1130 979 OFFCURVE",
"1094 979 CURVE SMOOTH",
"1060 979 LINE",
"1024 981 LINE",
"1028 1073 LINE",
"1028 1262 OFFCURVE",
"951 1376 OFFCURVE",
"786 1376 CURVE SMOOTH",
"658 1376 OFFCURVE",
"561 1288 OFFCURVE",
"561 1157 CURVE SMOOTH",
"561 1004 OFFCURVE",
"673 907 OFFCURVE",
"866 868 CURVE",
"825 673 OFFCURVE",
"741 494 OFFCURVE",
"634 362 CURVE SMOOTH",
"527 230 OFFCURVE",
"398 145 OFFCURVE",
"303 145 CURVE SMOOTH",
"268 145 OFFCURVE",
"250 160 OFFCURVE",
"250 189 CURVE SMOOTH",
"250 197 OFFCURVE",
"254 212 OFFCURVE",
"262 235 CURVE",
"269 258 OFFCURVE",
"277 282 OFFCURVE",
"285 309 CURVE SMOOTH",
"292 335 OFFCURVE",
"302 362 OFFCURVE",
"313 389 CURVE SMOOTH",
"446 709 OFFCURVE",
"492 889 OFFCURVE",
"492 1022 CURVE SMOOTH",
"492 1097 OFFCURVE",
"463 1152 OFFCURVE",
"387 1212 CURVE SMOOTH",
"168 1389 LINE",
"72 1268 LINE",
"305 1085 LINE",
"331 1067 OFFCURVE",
"344 1039 OFFCURVE",
"344 1001 CURVE SMOOTH",
"344 955 OFFCURVE",
"332 890 OFFCURVE",
"307 806 CURVE SMOOTH",
"282 721 OFFCURVE",
"238 599 OFFCURVE",
"174 440 CURVE SMOOTH",
"153 389 OFFCURVE",
"126 311 OFFCURVE",
"92 207 CURVE SMOOTH",
"84 182 OFFCURVE",
"80 160 OFFCURVE",
"80 141 CURVE SMOOTH",
"80 37 OFFCURVE",
"153 -20 OFFCURVE",
"270 -20 CURVE SMOOTH"
);
},
{
closed = 1;
nodes = (
"769 1032 OFFCURVE",
"711 1090 OFFCURVE",
"711 1159 CURVE SMOOTH",
"711 1202 OFFCURVE",
"751 1235 OFFCURVE",
"791 1235 CURVE SMOOTH",
"856 1235 OFFCURVE",
"889 1180 OFFCURVE",
"889 1069 CURVE SMOOTH",
"889 1045 OFFCURVE",
"888 1022 OFFCURVE",
"885 1001 CURVE"
);
},
{
closed = 1;
nodes = (
"1294 1053 OFFCURVE",
"1286 1091 OFFCURVE",
"1286 1126 CURVE SMOOTH",
"1286 1191 OFFCURVE",
"1319 1231 OFFCURVE",
"1380 1231 CURVE SMOOTH",
"1425 1231 OFFCURVE",
"1450 1200 OFFCURVE",
"1450 1157 CURVE SMOOTH",
"1450 1096 OFFCURVE",
"1401 1045 OFFCURVE",
"1309 1014 CURVE"
);
}
);
width = 1698;
}
);
note = uniA893;
unicode = A893;
},
{
glyphname = uniA894;
lastChange = "2016-11-10 17:39:07 +0000";
layers = (
{
layerId = "C218C3DC-F535-40CE-915C-45F049FE9E78";
paths = (
{
closed = 1;
nodes = (
"1318 161 OFFCURVE",
"1395 419 OFFCURVE",
"1395 700 CURVE SMOOTH",
"1395 1127 OFFCURVE",
"1262 1376 OFFCURVE",
"1038 1376 CURVE SMOOTH",
"949 1376 OFFCURVE",
"880 1359 OFFCURVE",
"832 1326 CURVE SMOOTH",
"735 1259 OFFCURVE",
"688 1118 OFFCURVE",
"688 877 CURVE SMOOTH",
"688 504 LINE SMOOTH",
"688 417 OFFCURVE",
"681 347 OFFCURVE",
"668 295 CURVE SMOOTH",
"640 191 OFFCURVE",
"595 143 OFFCURVE",
"500 143 CURVE SMOOTH",
"427 143 OFFCURVE",
"372 188 OFFCURVE",
"334 277 CURVE SMOOTH",
"295 366 OFFCURVE",
"276 495 OFFCURVE",
"276 664 CURVE SMOOTH",
"276 897 OFFCURVE",
"337 1092 OFFCURVE",
"506 1288 CURVE",
"389 1389 LINE",
"210 1198 OFFCURVE",
"123 948 OFFCURVE",
"123 664 CURVE SMOOTH",
"123 221 OFFCURVE",
"257 -18 OFFCURVE",
"500 -18 CURVE SMOOTH",
"589 -18 OFFCURVE",
"658 0 OFFCURVE",
"705 35 CURVE SMOOTH",
"799 105 OFFCURVE",
"840 249 OFFCURVE",
"840 494 CURVE SMOOTH",
"840 877 LINE SMOOTH",
"840 990 OFFCURVE",
"852 1075 OFFCURVE",
"880 1132 CURVE SMOOTH",
"907 1188 OFFCURVE",
"945 1217 OFFCURVE",
"1028 1217 CURVE SMOOTH",
"1097 1217 OFFCURVE",
"1151 1172 OFFCURVE",
"1188 1082 CURVE SMOOTH",
"1225 992 OFFCURVE",
"1243 865 OFFCURVE",
"1243 700 CURVE SMOOTH",
"1243 499 OFFCURVE",
"1158 233 OFFCURVE",
"1034 66 CURVE",
"1182 -31 LINE"
);
}
);
width = 1503;
}
);
note = uniA894;
unicode = A894;
},
{
glyphname = uniA895;
lastChange = "2016-11-10 17:39:07 +0000";
layers = (
{
layerId = "C218C3DC-F535-40CE-915C-45F049FE9E78";
paths = (
{
closed = 1;
nodes = (
"963 -23 OFFCURVE",
"1186 179 OFFCURVE",
"1274 598 CURVE",
"1365 537 OFFCURVE",
"1411 460 OFFCURVE",
"1411 367 CURVE SMOOTH",
"1411 288 OFFCURVE",
"1344 196 OFFCURVE",
"1251 125 CURVE",
"1374 4 LINE",
"1500 104 OFFCURVE",
"1563 219 OFFCURVE",
"1563 348 CURVE SMOOTH",
"1563 496 OFFCURVE",
"1512 589 OFFCURVE",
"1317 750 CURVE",
"1350 882 OFFCURVE",
"1366 984 OFFCURVE",
"1366 1055 CURVE SMOOTH",
"1366 1263 OFFCURVE",
"1261 1380 OFFCURVE",
"1069 1380 CURVE SMOOTH",
"910 1380 OFFCURVE",
"791 1270 OFFCURVE",
"791 1106 CURVE SMOOTH",
"791 1003 OFFCURVE",
"835 928 OFFCURVE",
"902 864 CURVE SMOOTH",
"969 800 OFFCURVE",
"1059 748 OFFCURVE",
"1151 692 CURVE",
"1067 312 OFFCURVE",
"893 141 OFFCURVE",
"600 141 CURVE SMOOTH",
"365 141 OFFCURVE",
"236 243 OFFCURVE",
"236 416 CURVE SMOOTH",
"236 482 OFFCURVE",
"250 534 OFFCURVE",
"278 572 CURVE SMOOTH",
"334 648 OFFCURVE",
"434 682 OFFCURVE",
"655 682 CURVE",
"655 821 LINE",
"398 821 OFFCURVE",
"270 916 OFFCURVE",
"270 1083 CURVE SMOOTH",
"270 1171 OFFCURVE",
"320 1223 OFFCURVE",
"416 1223 CURVE SMOOTH",
"500 1223 OFFCURVE",
"541 1191 OFFCURVE",
"541 1092 CURVE",
"690 1092 LINE",
"692 1110 LINE",
"692 1126 LINE SMOOTH",
"692 1279 OFFCURVE",
"589 1376 OFFCURVE",
"418 1376 CURVE SMOOTH",
"245 1376 OFFCURVE",
"117 1264 OFFCURVE",
"117 1085 CURVE SMOOTH",
"117 898 OFFCURVE",
"210 789 OFFCURVE",
"397 756 CURVE",
"188 739 OFFCURVE",
"84 625 OFFCURVE",
"84 416 CURVE SMOOTH",
"84 143 OFFCURVE",
"279 -23 OFFCURVE",
"590 -23 CURVE SMOOTH"
);
},
{
closed = 1;
nodes = (
"1111 877 OFFCURVE",
"1061 909 OFFCURVE",
"1033 933 CURVE SMOOTH",
"977 981 OFFCURVE",
"950 1031 OFFCURVE",
"950 1098 CURVE SMOOTH",
"950 1170 OFFCURVE",
"1006 1221 OFFCURVE",
"1075 1221 CURVE SMOOTH",
"1166 1221 OFFCURVE",
"1212 1166 OFFCURVE",
"1212 1055 CURVE SMOOTH",
"1212 979 OFFCURVE",
"1203 906 OFFCURVE",
"1184 836 CURVE"
);
}
);
width = 1628;
}
);
note = uniA895;
unicode = A895;
},
{
glyphname = uniA896;
lastChange = "2016-11-10 17:39:07 +0000";
layers = (
{
layerId = "C218C3DC-F535-40CE-915C-45F049FE9E78";
paths = (
{
closed = 1;
nodes = (
"614 145 LINE",
"363 145 OFFCURVE",
"244 258 OFFCURVE",
"244 459 CURVE SMOOTH",
"244 510 OFFCURVE",
"257 559 OFFCURVE",
"283 606 CURVE",
"375 549 OFFCURVE",
"462 520 OFFCURVE",
"545 520 CURVE SMOOTH",
"686 520 OFFCURVE",
"772 596 OFFCURVE",
"772 729 CURVE SMOOTH",
"772 873 OFFCURVE",
"694 954 OFFCURVE",
"549 954 CURVE SMOOTH",
"445 954 OFFCURVE",
"363 921 OFFCURVE",
"279 854 CURVE",
"262 889 OFFCURVE",
"254 924 OFFCURVE",
"254 961 CURVE SMOOTH",
"254 1121 OFFCURVE",
"412 1219 OFFCURVE",
"655 1219 CURVE SMOOTH",
"987 1219 OFFCURVE",
"1124 1045 OFFCURVE",
"1124 657 CURVE SMOOTH",
"1124 356 OFFCURVE",
"1016 170 OFFCURVE",
"815 145 CURVE",
"825 -18 LINE",
"1112 -9 OFFCURVE",
"1278 237 OFFCURVE",
"1278 653 CURVE SMOOTH",
"1278 1129 OFFCURVE",
"1068 1376 OFFCURVE",
"657 1376 CURVE SMOOTH",
"546 1376 OFFCURVE",
"447 1359 OFFCURVE",
"360 1324 CURVE SMOOTH",
"186 1254 OFFCURVE",
"102 1132 OFFCURVE",
"102 969 CURVE SMOOTH",
"102 886 OFFCURVE",
"129 804 OFFCURVE",
"182 721 CURVE",
"125 633 OFFCURVE",
"96 541 OFFCURVE",
"96 444 CURVE SMOOTH",
"96 351 OFFCURVE",
"116 270 OFFCURVE",
"156 202 CURVE SMOOTH",
"236 65 OFFCURVE",
"413 -18 OFFCURVE",
"606 -18 CURVE"
);
},
{
closed = 1;
nodes = (
"472 664 OFFCURVE",
"413 685 OFFCURVE",
"356 727 CURVE",
"415 783 OFFCURVE",
"476 811 OFFCURVE",
"539 811 CURVE SMOOTH",
"598 811 OFFCURVE",
"629 784 OFFCURVE",
"629 737 CURVE SMOOTH",
"629 682 OFFCURVE",
"584 664 OFFCURVE",
"535 664 CURVE SMOOTH"
);
}
);
width = 1393;
}
);
note = uniA896;
unicode = A896;
},
{
glyphname = uniA897;
lastChange = "2016-11-10 17:39:07 +0000";
layers = (
{
layerId = "C218C3DC-F535-40CE-915C-45F049FE9E78";
paths = (
{
closed = 1;
nodes = (
"780 -41 OFFCURVE",
"897 -12 OFFCURVE",
"997 45 CURVE SMOOTH",
"1197 160 OFFCURVE",
"1309 387 OFFCURVE",
"1309 688 CURVE SMOOTH",
"1309 1121 OFFCURVE",
"1149 1378 OFFCURVE",
"877 1378 CURVE",
"877 1219 LINE",
"1081 1196 OFFCURVE",
"1161 1021 OFFCURVE",
"1161 692 CURVE SMOOTH",
"1161 348 OFFCURVE",
"961 119 OFFCURVE",
"662 119 CURVE SMOOTH",
"366 119 OFFCURVE",
"233 215 OFFCURVE",
"233 403 CURVE SMOOTH",
"233 498 OFFCURVE",
"286 579 OFFCURVE",
"402 668 CURVE SMOOTH",
"489 739 LINE",
"860 739 LINE",
"899 872 LINE",
"653 872 LINE",
"741 947 OFFCURVE",
"774 1019 OFFCURVE",
"774 1112 CURVE SMOOTH",
"774 1165 OFFCURVE",
"762 1213 OFFCURVE",
"737 1254 CURVE SMOOTH",
"687 1337 OFFCURVE",
"594 1384 OFFCURVE",
"494 1384 CURVE SMOOTH",
"301 1384 OFFCURVE",
"178 1289 OFFCURVE",
"178 1124 CURVE SMOOTH",
"178 1064 OFFCURVE",
"213 987 OFFCURVE",
"262 938 CURVE",
"379 1040 LINE",
"354 1069 OFFCURVE",
"342 1099 OFFCURVE",
"342 1128 CURVE SMOOTH",
"342 1188 OFFCURVE",
"399 1235 OFFCURVE",
"475 1235 CURVE SMOOTH",
"567 1235 OFFCURVE",
"616 1191 OFFCURVE",
"616 1112 CURVE SMOOTH",
"616 1037 OFFCURVE",
"569 964 OFFCURVE",
"449 872 CURVE",
"94 872 LINE",
"55 739 LINE",
"270 739 LINE",
"134 627 OFFCURVE",
"82 528 OFFCURVE",
"82 403 CURVE SMOOTH",
"82 314 OFFCURVE",
"105 237 OFFCURVE",
"150 172 CURVE SMOOTH",
"241 42 OFFCURVE",
"434 -41 OFFCURVE",
"645 -41 CURVE SMOOTH"
);
}
);
width = 1397;
}
);
note = uniA897;
unicode = A897;
},
{
glyphname = uniA898;
lastChange = "2016-11-10 17:39:07 +0000";
layers = (
{
layerId = "C218C3DC-F535-40CE-915C-45F049FE9E78";
paths = (
{
closed = 1;
nodes = (
"825 -23 OFFCURVE",
"945 8 OFFCURVE",
"1048 71 CURVE SMOOTH",
"1254 195 OFFCURVE",
"1380 453 OFFCURVE",
"1380 748 CURVE SMOOTH",
"1380 877 OFFCURVE",
"1365 991 OFFCURVE",
"1335 1089 CURVE SMOOTH",
"1274 1284 OFFCURVE",
"1162 1378 OFFCURVE",
"1014 1378 CURVE SMOOTH",
"846 1378 OFFCURVE",
"750 1281 OFFCURVE",
"750 1112 CURVE SMOOTH",
"750 959 OFFCURVE",
"857 868 OFFCURVE",
"1030 868 CURVE",
"1030 1024 LINE",
"945 1024 OFFCURVE",
"903 1057 OFFCURVE",
"903 1122 CURVE SMOOTH",
"903 1185 OFFCURVE",
"943 1221 OFFCURVE",
"1020 1221 CURVE SMOOTH",
"1086 1221 OFFCURVE",
"1137 1183 OFFCURVE",
"1173 1106 CURVE SMOOTH",
"1209 1029 OFFCURVE",
"1227 913 OFFCURVE",
"1227 758 CURVE SMOOTH",
"1227 635 OFFCURVE",
"1204 526 OFFCURVE",
"1159 431 CURVE SMOOTH",
"1067 239 OFFCURVE",
"903 143 OFFCURVE",
"686 143 CURVE SMOOTH",
"405 143 OFFCURVE",
"260 243 OFFCURVE",
"260 432 CURVE SMOOTH",
"260 605 OFFCURVE",
"363 679 OFFCURVE",
"672 682 CURVE",
"672 850 LINE",
"418 850 OFFCURVE",
"291 920 OFFCURVE",
"291 1061 CURVE SMOOTH",
"291 1169 OFFCURVE",
"365 1221 OFFCURVE",
"530 1221 CURVE SMOOTH",
"561 1221 LINE",
"594 1219 LINE",
"594 1378 LINE",
"560 1380 LINE",
"526 1380 LINE SMOOTH",
"269 1380 OFFCURVE",
"135 1271 OFFCURVE",
"135 1067 CURVE SMOOTH",
"135 903 OFFCURVE",
"232 799 OFFCURVE",
"412 768 CURVE",
"215 748 OFFCURVE",
"104 629 OFFCURVE",
"104 436 CURVE SMOOTH",
"104 341 OFFCURVE",
"128 259 OFFCURVE",
"177 190 CURVE SMOOTH",
"273 52 OFFCURVE",
"456 -23 OFFCURVE",
"688 -23 CURVE SMOOTH"
);
}
);
width = 1466;
}
);
note = uniA898;
unicode = A898;
},
{
glyphname = uniA899;
lastChange = "2016-11-10 17:39:07 +0000";
layers = (
{
layerId = "C218C3DC-F535-40CE-915C-45F049FE9E78";
paths = (
{
closed = 1;
nodes = (
"600 -20 OFFCURVE",
"654 -5 OFFCURVE",
"702 24 CURVE SMOOTH",
"797 82 OFFCURVE",
"844 189 OFFCURVE",
"844 332 CURVE SMOOTH",
"844 529 OFFCURVE",
"744 637 OFFCURVE",
"551 637 CURVE SMOOTH",
"449 637 OFFCURVE",
"356 603 OFFCURVE",
"272 535 CURVE",
"265 586 OFFCURVE",
"262 661 OFFCURVE",
"262 760 CURVE SMOOTH",
"262 1068 OFFCURVE",
"350 1219 OFFCURVE",
"545 1219 CURVE SMOOTH",
"716 1219 OFFCURVE",
"804 1045 OFFCURVE",
"809 698 CURVE",
"981 698 LINE",
"985 1041 OFFCURVE",
"1066 1219 OFFCURVE",
"1251 1219 CURVE SMOOTH",
"1416 1219 OFFCURVE",
"1487 1068 OFFCURVE",
"1487 764 CURVE SMOOTH",
"1487 404 OFFCURVE",
"1334 181 OFFCURVE",
"1073 170 CURVE",
"1073 -8 LINE",
"1422 3 OFFCURVE",
"1632 291 OFFCURVE",
"1632 764 CURVE SMOOTH",
"1632 1157 OFFCURVE",
"1498 1380 OFFCURVE",
"1257 1380 CURVE SMOOTH",
"1074 1380 OFFCURVE",
"954 1287 OFFCURVE",
"897 1102 CURVE",
"891 1100 LINE",
"852 1280 OFFCURVE",
"732 1380 OFFCURVE",
"532 1380 CURVE SMOOTH",
"253 1380 OFFCURVE",
"113 1168 OFFCURVE",
"113 768 CURVE SMOOTH",
"113 264 OFFCURVE",
"264 -20 OFFCURVE",
"539 -20 CURVE SMOOTH"
);
},
{
closed = 1;
nodes = (
"427 139 OFFCURVE",
"331 236 OFFCURVE",
"311 371 CURVE",
"371 442 OFFCURVE",
"463 489 OFFCURVE",
"551 489 CURVE SMOOTH",
"646 489 OFFCURVE",
"694 435 OFFCURVE",
"694 326 CURVE SMOOTH",
"694 207 OFFCURVE",
"637 139 OFFCURVE",
"532 139 CURVE SMOOTH"
);
}
);
width = 1751;
}
);
note = uniA899;
unicode = A899;
},
{
glyphname = uniA89A;
lastChange = "2016-11-10 17:39:07 +0000";
layers = (
{
layerId = "C218C3DC-F535-40CE-915C-45F049FE9E78";
paths = (
{
closed = 1;
nodes = (
"1087 -25 OFFCURVE",
"1180 68 OFFCURVE",
"1180 221 CURVE SMOOTH",
"1180 249 OFFCURVE",
"1175 276 OFFCURVE",
"1166 301 CURVE",
"1146 351 OFFCURVE",
"1122 384 OFFCURVE",
"1026 463 CURVE",
"1088 519 OFFCURVE",
"1132 564 OFFCURVE",
"1158 599 CURVE SMOOTH",
"1210 668 OFFCURVE",
"1239 743 OFFCURVE",
"1239 838 CURVE SMOOTH",
"1239 981 OFFCURVE",
"1184 1099 OFFCURVE",
"1075 1194 CURVE",
"1106 1209 OFFCURVE",
"1147 1217 OFFCURVE",
"1198 1217 CURVE SMOOTH",
"1461 1217 OFFCURVE",
"1589 1029 OFFCURVE",
"1589 674 CURVE SMOOTH",
"1589 598 OFFCURVE",
"1584 532 OFFCURVE",
"1575 475 CURVE SMOOTH",
"1555 362 OFFCURVE",
"1520 284 OFFCURVE",
"1475 237 CURVE SMOOTH",
"1430 190 OFFCURVE",
"1386 166 OFFCURVE",
"1298 154 CURVE",
"1298 -20 LINE",
"1376 -20 OFFCURVE",
"1451 7 OFFCURVE",
"1524 60 CURVE SMOOTH",
"1669 167 OFFCURVE",
"1747 383 OFFCURVE",
"1747 674 CURVE SMOOTH",
"1747 815 OFFCURVE",
"1726 939 OFFCURVE",
"1685 1045 CURVE SMOOTH",
"1601 1256 OFFCURVE",
"1422 1380 OFFCURVE",
"1202 1380 CURVE SMOOTH",
"1126 1380 OFFCURVE",
"1014 1354 OFFCURVE",
"926 1311 CURVE",
"844 1356 OFFCURVE",
"755 1378 OFFCURVE",
"659 1378 CURVE SMOOTH",
"536 1378 OFFCURVE",
"432 1350 OFFCURVE",
"347 1294 CURVE SMOOTH",
"177 1181 OFFCURVE",
"94 967 OFFCURVE",
"94 672 CURVE SMOOTH",
"94 527 OFFCURVE",
"113 402 OFFCURVE",
"152 297 CURVE SMOOTH",
"229 86 OFFCURVE",
"393 -20 OFFCURVE",
"549 -20 CURVE",
"549 154 LINE",
"438 163 OFFCURVE",
"367 216 OFFCURVE",
"322 300 CURVE SMOOTH",
"277 383 OFFCURVE",
"250 503 OFFCURVE",
"250 672 CURVE SMOOTH",
"250 786 OFFCURVE",
"265 883 OFFCURVE",
"296 963 CURVE SMOOTH",
"357 1123 OFFCURVE",
"489 1214 OFFCURVE",
"662 1214 CURVE SMOOTH",
"702 1214 OFFCURVE",
"737 1207 OFFCURVE",
"768 1192 CURVE",
"653 1114 OFFCURVE",
"596 996 OFFCURVE",
"596 838 CURVE SMOOTH",
"596 791 OFFCURVE",
"603 749 OFFCURVE",
"616 711 CURVE SMOOTH",
"642 635 OFFCURVE",
"676 582 OFFCURVE",
"803 461 CURVE",
"762 426 OFFCURVE",
"732 397 OFFCURVE",
"714 375 CURVE SMOOTH",
"678 330 OFFCURVE",
"659 281 OFFCURVE",
"659 221 CURVE SMOOTH",
"659 66 OFFCURVE",
"753 -25 OFFCURVE",
"920 -25 CURVE SMOOTH"
);
},
{
closed = 1;
nodes = (
"857 117 OFFCURVE",
"827 156 OFFCURVE",
"827 219 CURVE SMOOTH",
"827 276 OFFCURVE",
"856 326 OFFCURVE",
"915 371 CURVE",
"974 328 OFFCURVE",
"1010 268 OFFCURVE",
"1010 219 CURVE SMOOTH",
"1010 151 OFFCURVE",
"980 117 OFFCURVE",
"920 117 CURVE SMOOTH"
);
},
{
closed = 1;
nodes = (
"864 596 OFFCURVE",
"830 631 OFFCURVE",
"813 656 CURVE SMOOTH",
"777 706 OFFCURVE",
"758 763 OFFCURVE",
"758 840 CURVE SMOOTH",
"758 964 OFFCURVE",
"811 1064 OFFCURVE",
"918 1141 CURVE",
"1023 1062 OFFCURVE",
"1075 963 OFFCURVE",
"1075 844 CURVE SMOOTH",
"1075 804 OFFCURVE",
"1070 769 OFFCURVE",
"1061 740 CURVE SMOOTH",
"1042 680 OFFCURVE",
"1021 646 OFFCURVE",
"913 551 CURVE"
);
}
);
width = 1847;
}
);
note = uniA89A;
unicode = A89A;
},
{
glyphname = uniA89B;
lastChange = "2016-11-10 17:39:07 +0000";
layers = (
{
layerId = "C218C3DC-F535-40CE-915C-45F049FE9E78";
paths = (
{
closed = 1;
nodes = (
"1216 -18 OFFCURVE",
"1415 191 OFFCURVE",
"1456 543 CURVE",
"1622 543 LINE",
"1642 692 LINE",
"1466 692 LINE",
"1465 836 OFFCURVE",
"1437 961 OFFCURVE",
"1384 1066 CURVE SMOOTH",
"1277 1276 OFFCURVE",
"1058 1401 OFFCURVE",
"799 1401 CURVE SMOOTH",
"656 1401 OFFCURVE",
"532 1368 OFFCURVE",
"426 1302 CURVE SMOOTH",
"213 1170 OFFCURVE",
"111 925 OFFCURVE",
"111 592 CURVE SMOOTH",
"111 380 OFFCURVE",
"160 181 OFFCURVE",
"258 -6 CURVE",
"408 63 LINE",
"316 240 OFFCURVE",
"270 416 OFFCURVE",
"270 592 CURVE SMOOTH",
"270 729 OFFCURVE",
"290 846 OFFCURVE",
"329 943 CURVE SMOOTH",
"408 1138 OFFCURVE",
"572 1247 OFFCURVE",
"797 1247 CURVE SMOOTH",
"898 1247 OFFCURVE",
"988 1225 OFFCURVE",
"1067 1182 CURVE SMOOTH",
"1223 1094 OFFCURVE",
"1314 927 OFFCURVE",
"1315 692 CURVE",
"1001 692 LINE",
"1022 731 OFFCURVE",
"1032 770 OFFCURVE",
"1032 811 CURVE SMOOTH",
"1032 982 OFFCURVE",
"930 1090 OFFCURVE",
"754 1090 CURVE SMOOTH",
"702 1090 OFFCURVE",
"655 1079 OFFCURVE",
"613 1058 CURVE SMOOTH",
"529 1014 OFFCURVE",
"477 933 OFFCURVE",
"477 821 CURVE SMOOTH",
"477 660 OFFCURVE",
"571 556 OFFCURVE",
"715 543 CURVE",
"620 410 OFFCURVE",
"602 354 OFFCURVE",
"602 287 CURVE SMOOTH",
"602 223 OFFCURVE",
"616 169 OFFCURVE",
"645 124 CURVE SMOOTH",
"701 34 OFFCURVE",
"808 -18 OFFCURVE",
"932 -18 CURVE SMOOTH"
);
},
{
closed = 1;
nodes = (
"831 143 OFFCURVE",
"766 198 OFFCURVE",
"766 297 CURVE SMOOTH",
"766 365 OFFCURVE",
"792 426 OFFCURVE",
"901 543 CURVE",
"1309 543 LINE",
"1274 296 OFFCURVE",
"1129 143 OFFCURVE",
"932 143 CURVE SMOOTH"
);
},
{
closed = 1;
nodes = (
"675 692 OFFCURVE",
"631 739 OFFCURVE",
"631 819 CURVE SMOOTH",
"631 892 OFFCURVE",
"683 940 OFFCURVE",
"760 940 CURVE SMOOTH",
"844 940 OFFCURVE",
"883 888 OFFCURVE",
"883 813 CURVE SMOOTH",
"883 772 OFFCURVE",
"868 731 OFFCURVE",
"838 692 CURVE",
"754 692 LINE SMOOTH"
);
}
);
width = 1677;
}
);
note = uniA89B;
unicode = A89B;
},
{
glyphname = uniA89C;
lastChange = "2016-11-10 17:39:07 +0000";
layers = (
{
layerId = "C218C3DC-F535-40CE-915C-45F049FE9E78";
paths = (
{
closed = 1;
nodes = (
"715 -23 OFFCURVE",
"807 -1 OFFCURVE",
"887 43 CURVE SMOOTH",
"1046 130 OFFCURVE",
"1137 297 OFFCURVE",
"1137 516 CURVE SMOOTH",
"1137 843 OFFCURVE",
"961 1071 OFFCURVE",
"598 1212 CURVE",
"1092 1212 LINE",
"1130 1364 LINE",
"180 1364 LINE",
"147 1227 LINE",
"714 1118 OFFCURVE",
"983 885 OFFCURVE",
"983 520 CURVE SMOOTH",
"983 289 OFFCURVE",
"840 141 OFFCURVE",
"612 141 CURVE SMOOTH",
"395 141 OFFCURVE",
"256 271 OFFCURVE",
"256 492 CURVE SMOOTH",
"256 685 OFFCURVE",
"328 778 OFFCURVE",
"487 778 CURVE SMOOTH",
"587 778 OFFCURVE",
"637 730 OFFCURVE",
"637 635 CURVE",
"817 635 LINE",
"814 818 OFFCURVE",
"682 934 OFFCURVE",
"483 934 CURVE SMOOTH",
"232 934 OFFCURVE",
"92 775 OFFCURVE",
"92 492 CURVE SMOOTH",
"92 389 OFFCURVE",
"114 298 OFFCURVE",
"159 220 CURVE SMOOTH",
"247 64 OFFCURVE",
"415 -23 OFFCURVE",
"612 -23 CURVE SMOOTH"
);
}
);
width = 1243;
}
);
note = uniA89C;
unicode = A89C;
},
{
glyphname = uniA89D;
lastChange = "2016-11-10 17:39:07 +0000";
layers = (
{
layerId = "C218C3DC-F535-40CE-915C-45F049FE9E78";
paths = (
{
closed = 1;
nodes = (
"1063 -18 OFFCURVE",
"1262 219 OFFCURVE",
"1262 670 CURVE SMOOTH",
"1262 1127 OFFCURVE",
"1059 1376 OFFCURVE",
"676 1376 CURVE SMOOTH",
"296 1376 OFFCURVE",
"92 1131 OFFCURVE",
"92 670 CURVE SMOOTH",
"92 217 OFFCURVE",
"291 -18 OFFCURVE",
"676 -18 CURVE SMOOTH"
);
},
{
closed = 1;
nodes = (
"389 152 OFFCURVE",
"246 325 OFFCURVE",
"246 670 CURVE SMOOTH",
"246 1035 OFFCURVE",
"389 1217 OFFCURVE",
"676 1217 CURVE SMOOTH",
"964 1217 OFFCURVE",
"1108 1035 OFFCURVE",
"1108 670 CURVE SMOOTH",
"1108 325 OFFCURVE",
"964 152 OFFCURVE",
"676 152 CURVE SMOOTH"
);
}
);
width = 1360;
}
);
note = uniA89D;
unicode = A89D;
},
{
glyphname = uniA89E;
lastChange = "2016-11-10 17:39:07 +0000";
layers = (
{
layerId = "C218C3DC-F535-40CE-915C-45F049FE9E78";
paths = (
{
closed = 1;
nodes = (
"790 -23 OFFCURVE",
"889 -1 OFFCURVE",
"978 43 CURVE SMOOTH",
"1156 130 OFFCURVE",
"1260 298 OFFCURVE",
"1260 514 CURVE SMOOTH",
"1260 770 OFFCURVE",
"1152 918 OFFCURVE",
"963 918 CURVE SMOOTH",
"920 918 OFFCURVE",
"873 908 OFFCURVE",
"823 889 CURVE",
"936 1041 OFFCURVE",
"1055 1142 OFFCURVE",
"1264 1255 CURVE",
"1229 1364 LINE",
"147 1364 LINE",
"121 1214 LINE",
"969 1214 LINE",
"802 1092 OFFCURVE",
"646 919 OFFCURVE",
"502 694 CURVE",
"635 602 LINE",
"697 718 OFFCURVE",
"791 776 OFFCURVE",
"918 776 CURVE SMOOTH",
"1046 776 OFFCURVE",
"1106 692 OFFCURVE",
"1106 516 CURVE SMOOTH",
"1106 443 OFFCURVE",
"1087 377 OFFCURVE",
"1050 320 CURVE SMOOTH",
"975 205 OFFCURVE",
"838 141 OFFCURVE",
"678 141 CURVE SMOOTH",
"389 141 OFFCURVE",
"223 301 OFFCURVE",
"223 573 CURVE SMOOTH",
"223 777 OFFCURVE",
"313 891 OFFCURVE",
"489 891 CURVE",
"489 1051 LINE",
"404 1051 OFFCURVE",
"329 1032 OFFCURVE",
"264 993 CURVE SMOOTH",
"134 915 OFFCURVE",
"70 770 OFFCURVE",
"70 573 CURVE SMOOTH",
"70 454 OFFCURVE",
"94 350 OFFCURVE",
"143 262 CURVE SMOOTH",
"239 85 OFFCURVE",
"439 -23 OFFCURVE",
"682 -23 CURVE SMOOTH"
);
}
);
width = 1350;
}
);
note = uniA89E;
unicode = A89E;
},
{
glyphname = uniA89F;
lastChange = "2016-11-10 17:39:07 +0000";
layers = (
{
layerId = "C218C3DC-F535-40CE-915C-45F049FE9E78";
paths = (
{
closed = 1;
nodes = (
"1065 -18 OFFCURVE",
"1292 238 OFFCURVE",
"1292 711 CURVE SMOOTH",
"1292 964 OFFCURVE",
"1240 1133 OFFCURVE",
"1165 1238 CURVE SMOOTH",
"1090 1343 OFFCURVE",
"994 1386 OFFCURVE",
"907 1386 CURVE SMOOTH",
"751 1386 OFFCURVE",
"643 1286 OFFCURVE",
"643 1135 CURVE SMOOTH",
"643 938 OFFCURVE",
"806 821 OFFCURVE",
"1075 821 CURVE SMOOTH",
"1145 821 LINE",
"1148 790 OFFCURVE",
"1149 754 OFFCURVE",
"1149 711 CURVE SMOOTH",
"1149 588 OFFCURVE",
"1130 485 OFFCURVE",
"1092 400 CURVE SMOOTH",
"1015 231 OFFCURVE",
"877 143 OFFCURVE",
"694 143 CURVE SMOOTH",
"441 143 OFFCURVE",
"283 264 OFFCURVE",
"283 483 CURVE SMOOTH",
"283 619 OFFCURVE",
"360 708 OFFCURVE",
"472 708 CURVE",
"500 705 LINE",
"727 547 LINE",
"762 711 LINE",
"209 1094 LINE",
"174 932 LINE",
"338 817 LINE",
"201 767 OFFCURVE",
"133 656 OFFCURVE",
"133 483 CURVE SMOOTH",
"133 384 OFFCURVE",
"155 297 OFFCURVE",
"200 222 CURVE SMOOTH",
"288 73 OFFCURVE",
"471 -18 OFFCURVE",
"694 -18 CURVE SMOOTH"
);
},
{
closed = 1;
nodes = (
"896 965 OFFCURVE",
"793 1023 OFFCURVE",
"793 1130 CURVE SMOOTH",
"793 1187 OFFCURVE",
"834 1233 OFFCURVE",
"903 1233 CURVE SMOOTH",
"1006 1233 OFFCURVE",
"1093 1132 OFFCURVE",
"1124 965 CURVE",
"1057 965 LINE SMOOTH"
);
}
);
width = 1411;
}
);
note = uniA89F;
unicode = A89F;
},
{
glyphname = uniA8A0;
lastChange = "2016-11-10 17:39:07 +0000";
layers = (
{
layerId = "C218C3DC-F535-40CE-915C-45F049FE9E78";
paths = (
{
closed = 1;
nodes = (
"997 -18 OFFCURVE",
"1194 201 OFFCURVE",
"1194 578 CURVE SMOOTH",
"1194 909 OFFCURVE",
"1075 1079 OFFCURVE",
"848 1079 CURVE SMOOTH",
"672 1079 OFFCURVE",
"557 976 OFFCURVE",
"557 817 CURVE SMOOTH",
"557 768 OFFCURVE",
"569 723 OFFCURVE",
"594 682 CURVE",
"395 682 LINE",
"373 535 LINE",
"885 535 LINE",
"909 682 LINE",
"778 682 LINE",
"735 697 OFFCURVE",
"707 747 OFFCURVE",
"707 807 CURVE SMOOTH",
"707 891 OFFCURVE",
"761 934 OFFCURVE",
"852 934 CURVE SMOOTH",
"979 934 OFFCURVE",
"1042 815 OFFCURVE",
"1042 578 CURVE SMOOTH",
"1042 302 OFFCURVE",
"908 143 OFFCURVE",
"659 143 CURVE SMOOTH",
"580 143 OFFCURVE",
"510 165 OFFCURVE",
"449 208 CURVE SMOOTH",
"325 294 OFFCURVE",
"256 463 OFFCURVE",
"256 690 CURVE SMOOTH",
"256 802 OFFCURVE",
"277 899 OFFCURVE",
"318 982 CURVE SMOOTH",
"400 1146 OFFCURVE",
"573 1247 OFFCURVE",
"784 1247 CURVE SMOOTH",
"901 1247 OFFCURVE",
"1003 1219 OFFCURVE",
"1090 1163 CURVE SMOOTH",
"1265 1051 OFFCURVE",
"1348 844 OFFCURVE",
"1348 557 CURVE SMOOTH",
"1348 368 OFFCURVE",
"1310 200 OFFCURVE",
"1233 51 CURVE",
"1382 -10 LINE",
"1455 149 OFFCURVE",
"1503 374 OFFCURVE",
"1503 557 CURVE SMOOTH",
"1503 728 OFFCURVE",
"1475 876 OFFCURVE",
"1420 1001 CURVE SMOOTH",
"1309 1252 OFFCURVE",
"1067 1401 OFFCURVE",
"782 1401 CURVE SMOOTH",
"650 1401 OFFCURVE",
"531 1371 OFFCURVE",
"424 1310 CURVE SMOOTH",
"211 1188 OFFCURVE",
"104 971 OFFCURVE",
"104 690 CURVE SMOOTH",
"104 542 OFFCURVE",
"127 415 OFFCURVE",
"174 309 CURVE SMOOTH",
"266 96 OFFCURVE",
"440 -18 OFFCURVE",
"664 -18 CURVE SMOOTH"
);
}
);
width = 1606;
}
);
note = uniA8A0;
unicode = A8A0;
},
{
glyphname = uniA8A1;
lastChange = "2016-11-10 17:39:07 +0000";
layers = (
{
layerId = "C218C3DC-F535-40CE-915C-45F049FE9E78";
paths = (
{
closed = 1;
nodes = (
"702 -4 LINE",
"690 168 LINE",
"425 168 OFFCURVE",
"285 348 OFFCURVE",
"285 696 CURVE SMOOTH",
"285 1041 OFFCURVE",
"404 1219 OFFCURVE",
"639 1219 CURVE SMOOTH",
"812 1219 OFFCURVE",
"899 1115 OFFCURVE",
"899 907 CURVE SMOOTH",
"899 0 LINE",
"1059 0 LINE",
"1059 920 LINE SMOOTH",
"1059 1216 OFFCURVE",
"906 1380 OFFCURVE",
"637 1380 CURVE SMOOTH",
"306 1380 OFFCURVE",
"129 1141 OFFCURVE",
"129 694 CURVE SMOOTH",
"129 549 OFFCURVE",
"150 425 OFFCURVE",
"192 321 CURVE SMOOTH",
"275 113 OFFCURVE",
"448 -5 OFFCURVE",
"675 -5 CURVE"
);
}
);
width = 1192;
}
);
note = uniA8A1;
unicode = A8A1;
},
{
glyphname = uniA8A2;
lastChange = "2016-11-10 17:39:07 +0000";
layers = (
{
layerId = "C218C3DC-F535-40CE-915C-45F049FE9E78";
paths = (
{
closed = 1;
nodes = (
"799 -10 OFFCURVE",
"915 94 OFFCURVE",
"915 246 CURVE SMOOTH",
"915 369 OFFCURVE",
"855 448 OFFCURVE",
"692 500 CURVE",
"1137 977 LINE SMOOTH",
"1204 1050 OFFCURVE",
"1231 1108 OFFCURVE",
"1231 1184 CURVE SMOOTH",
"1231 1311 OFFCURVE",
"1151 1380 OFFCURVE",
"1014 1380 CURVE SMOOTH",
"750 1380 LINE",
"750 1229 LINE",
"973 1229 LINE SMOOTH",
"1049 1229 OFFCURVE",
"1075 1206 OFFCURVE",
"1075 1161 CURVE SMOOTH",
"1075 1128 OFFCURVE",
"1057 1093 OFFCURVE",
"1020 1055 CURVE SMOOTH",
"535 549 LINE",
"291 627 LINE",
"265 634 OFFCURVE",
"252 650 OFFCURVE",
"252 674 CURVE SMOOTH",
"252 690 OFFCURVE",
"262 708 OFFCURVE",
"281 727 CURVE SMOOTH",
"489 930 LINE SMOOTH",
"577 1013 OFFCURVE",
"612 1072 OFFCURVE",
"612 1161 CURVE SMOOTH",
"612 1309 OFFCURVE",
"521 1395 OFFCURVE",
"358 1395 CURVE SMOOTH",
"217 1395 OFFCURVE",
"111 1297 OFFCURVE",
"111 1161 CURVE SMOOTH",
"111 1106 OFFCURVE",
"123 1058 OFFCURVE",
"147 1016 CURVE",
"289 1087 LINE",
"276 1110 OFFCURVE",
"270 1132 OFFCURVE",
"270 1153 CURVE SMOOTH",
"270 1210 OFFCURVE",
"308 1245 OFFCURVE",
"375 1245 CURVE SMOOTH",
"438 1245 OFFCURVE",
"469 1215 OFFCURVE",
"469 1155 CURVE SMOOTH",
"469 1104 OFFCURVE",
"427 1065 OFFCURVE",
"371 1016 CURVE SMOOTH",
"147 811 LINE SMOOTH",
"100 768 OFFCURVE",
"68 733 OFFCURVE",
"68 676 CURVE SMOOTH",
"68 592 OFFCURVE",
"120 543 OFFCURVE",
"219 512 CURVE SMOOTH",
"436 444 LINE",
"391 388 OFFCURVE",
"356 328 OFFCURVE",
"356 248 CURVE SMOOTH",
"356 96 OFFCURVE",
"482 -10 OFFCURVE",
"647 -10 CURVE SMOOTH"
);
},
{
closed = 1;
nodes = (
"570 143 OFFCURVE",
"516 187 OFFCURVE",
"516 252 CURVE SMOOTH",
"516 305 OFFCURVE",
"547 344 OFFCURVE",
"594 395 CURVE",
"667 373 OFFCURVE",
"713 352 OFFCURVE",
"734 333 CURVE SMOOTH",
"754 314 OFFCURVE",
"764 287 OFFCURVE",
"764 254 CURVE SMOOTH",
"764 193 OFFCURVE",
"712 143 OFFCURVE",
"639 143 CURVE SMOOTH"
);
}
);
width = 1268;
}
);
note = uniA8A2;
unicode = A8A2;
},
{
glyphname = uniA8A3;
lastChange = "2016-11-10 17:39:07 +0000";
layers = (
{
layerId = "C218C3DC-F535-40CE-915C-45F049FE9E78";
paths = (
{
closed = 1;
nodes = (
"706 -18 OFFCURVE",
"840 53 OFFCURVE",
"915 170 CURVE",
"968 57 OFFCURVE",
"1062 1 OFFCURVE",
"1197 1 CURVE SMOOTH",
"1227 2 LINE",
"1206 164 LINE",
"1068 164 OFFCURVE",
"999 227 OFFCURVE",
"999 354 CURVE SMOOTH",
"999 389 OFFCURVE",
"1003 430 OFFCURVE",
"1010 477 CURVE",
"877 504 LINE",
"868 425 OFFCURVE",
"850 359 OFFCURVE",
"822 305 CURVE SMOOTH",
"765 197 OFFCURVE",
"671 143 OFFCURVE",
"512 143 CURVE SMOOTH",
"353 143 OFFCURVE",
"258 220 OFFCURVE",
"258 352 CURVE SMOOTH",
"258 424 OFFCURVE",
"288 473 OFFCURVE",
"352 519 CURVE SMOOTH",
"383 542 OFFCURVE",
"454 580 OFFCURVE",
"563 633 CURVE SMOOTH",
"662 682 OFFCURVE",
"735 724 OFFCURVE",
"780 759 CURVE SMOOTH",
"870 830 OFFCURVE",
"907 908 OFFCURVE",
"907 1024 CURVE SMOOTH",
"907 1245 OFFCURVE",
"767 1374 OFFCURVE",
"530 1374 CURVE SMOOTH",
"463 1374 OFFCURVE",
"398 1360 OFFCURVE",
"335 1332 CURVE SMOOTH",
"208 1276 OFFCURVE",
"143 1183 OFFCURVE",
"143 1067 CURVE SMOOTH",
"143 918 OFFCURVE",
"220 815 OFFCURVE",
"377 778 CURVE",
"420 918 LINE",
"341 938 OFFCURVE",
"301 979 OFFCURVE",
"301 1063 CURVE SMOOTH",
"301 1155 OFFCURVE",
"403 1227 OFFCURVE",
"532 1227 CURVE SMOOTH",
"672 1227 OFFCURVE",
"760 1155 OFFCURVE",
"760 1034 CURVE SMOOTH",
"760 911 OFFCURVE",
"704 843 OFFCURVE",
"537 766 CURVE SMOOTH",
"395 701 OFFCURVE",
"300 650 OFFCURVE",
"251 615 CURVE SMOOTH",
"153 543 OFFCURVE",
"106 463 OFFCURVE",
"106 348 CURVE SMOOTH",
"106 274 OFFCURVE",
"122 210 OFFCURVE",
"154 156 CURVE SMOOTH",
"217 48 OFFCURVE",
"355 -18 OFFCURVE",
"518 -18 CURVE SMOOTH"
);
}
);
width = 1225;
}
);
note = uniA8A3;
unicode = A8A3;
},
{
glyphname = uniA8A4;
lastChange = "2016-11-10 17:39:07 +0000";
layers = (
{
layerId = "C218C3DC-F535-40CE-915C-45F049FE9E78";
paths = (
{
closed = 1;
nodes = (
"823 -20 OFFCURVE",
"942 11 OFFCURVE",
"1043 72 CURVE SMOOTH",
"1245 194 OFFCURVE",
"1356 431 OFFCURVE",
"1356 752 CURVE SMOOTH",
"1356 875 OFFCURVE",
"1338 984 OFFCURVE",
"1301 1078 CURVE SMOOTH",
"1228 1266 OFFCURVE",
"1084 1374 OFFCURVE",
"897 1374 CURVE SMOOTH",
"883 1374 LINE",
"883 1214 LINE",
"889 1214 LINE SMOOTH",
"1089 1214 OFFCURVE",
"1202 1039 OFFCURVE",
"1202 760 CURVE SMOOTH",
"1202 367 OFFCURVE",
"1013 143 OFFCURVE",
"682 143 CURVE SMOOTH",
"397 143 OFFCURVE",
"236 252 OFFCURVE",
"236 449 CURVE SMOOTH",
"236 562 OFFCURVE",
"290 628 OFFCURVE",
"402 658 CURVE SMOOTH",
"458 673 OFFCURVE",
"544 680 OFFCURVE",
"659 680 CURVE",
"659 825 LINE",
"404 825 OFFCURVE",
"281 917 OFFCURVE",
"281 1081 CURVE SMOOTH",
"281 1164 OFFCURVE",
"343 1219 OFFCURVE",
"436 1219 CURVE SMOOTH",
"518 1219 OFFCURVE",
"559 1179 OFFCURVE",
"559 1099 CURVE SMOOTH",
"559 1092 LINE",
"711 1092 LINE",
"712 1118 LINE",
"712 1274 OFFCURVE",
"623 1378 OFFCURVE",
"428 1378 CURVE SMOOTH",
"248 1378 OFFCURVE",
"123 1257 OFFCURVE",
"123 1085 CURVE SMOOTH",
"123 916 OFFCURVE",
"222 796 OFFCURVE",
"403 760 CURVE",
"188 745 OFFCURVE",
"82 645 OFFCURVE",
"82 440 CURVE SMOOTH",
"82 346 OFFCURVE",
"108 264 OFFCURVE",
"159 195 CURVE SMOOTH",
"261 56 OFFCURVE",
"453 -20 OFFCURVE",
"688 -20 CURVE SMOOTH"
);
}
);
width = 1454;
}
);
note = uniA8A4;
unicode = A8A4;
},
{
glyphname = uniA8A5;
lastChange = "2016-11-10 17:39:07 +0000";
layers = (
{
layerId = "C218C3DC-F535-40CE-915C-45F049FE9E78";
paths = (
{
closed = 1;
nodes = (
"594 -14 OFFCURVE",
"709 101 OFFCURVE",
"709 281 CURVE SMOOTH",
"709 481 OFFCURVE",
"599 598 OFFCURVE",
"420 598 CURVE SMOOTH",
"363 598 OFFCURVE",
"302 586 OFFCURVE",
"236 563 CURVE",
"236 792 OFFCURVE",
"260 957 OFFCURVE",
"308 1060 CURVE SMOOTH",
"355 1163 OFFCURVE",
"427 1214 OFFCURVE",
"524 1214 CURVE SMOOTH",
"595 1214 OFFCURVE",
"679 1170 OFFCURVE",
"778 1083 CURVE SMOOTH",
"879 991 LINE",
"879 0 LINE",
"1028 0 LINE",
"1028 879 LINE",
"1068 857 OFFCURVE",
"1110 846 OFFCURVE",
"1153 846 CURVE SMOOTH",
"1309 846 OFFCURVE",
"1397 938 OFFCURVE",
"1397 1114 CURVE SMOOTH",
"1397 1285 OFFCURVE",
"1307 1380 OFFCURVE",
"1151 1380 CURVE SMOOTH",
"1000 1380 OFFCURVE",
"912 1307 OFFCURVE",
"887 1161 CURVE",
"735 1306 OFFCURVE",
"617 1370 OFFCURVE",
"518 1370 CURVE SMOOTH",
"420 1370 OFFCURVE",
"339 1340 OFFCURVE",
"276 1279 CURVE SMOOTH",
"148 1157 OFFCURVE",
"86 930 OFFCURVE",
"86 563 CURVE SMOOTH",
"86 196 OFFCURVE",
"203 -14 OFFCURVE",
"422 -14 CURVE SMOOTH"
);
},
{
closed = 1;
nodes = (
"334 133 OFFCURVE",
"265 219 OFFCURVE",
"244 408 CURVE",
"297 433 OFFCURVE",
"374 449 OFFCURVE",
"418 449 CURVE SMOOTH",
"513 446 OFFCURVE",
"557 400 OFFCURVE",
"557 281 CURVE SMOOTH",
"557 190 OFFCURVE",
"502 133 OFFCURVE",
"422 133 CURVE SMOOTH"
);
},
{
closed = 1;
nodes = (
"1108 991 OFFCURVE",
"1070 1006 OFFCURVE",
"1028 1036 CURVE",
"1028 1055 LINE SMOOTH",
"1028 1188 OFFCURVE",
"1064 1231 OFFCURVE",
"1151 1231 CURVE SMOOTH",
"1218 1231 OFFCURVE",
"1251 1192 OFFCURVE",
"1251 1114 CURVE SMOOTH",
"1251 1041 OFFCURVE",
"1210 991 OFFCURVE",
"1141 991 CURVE SMOOTH"
);
}
);
width = 1421;
}
);
note = uniA8A5;
unicode = A8A5;
},
{
glyphname = uniA8A6;
lastChange = "2016-11-10 17:39:07 +0000";
layers = (
{
layerId = "C218C3DC-F535-40CE-915C-45F049FE9E78";
paths = (
{
closed = 1;
nodes = (
"527 -14 OFFCURVE",
"640 36 OFFCURVE",
"749 136 CURVE SMOOTH",
"965 336 OFFCURVE",
"1106 697 OFFCURVE",
"1106 1024 CURVE SMOOTH",
"1106 1256 OFFCURVE",
"1007 1380 OFFCURVE",
"784 1380 CURVE SMOOTH",
"567 1380 LINE",
"567 1223 LINE",
"784 1223 LINE SMOOTH",
"908 1223 OFFCURVE",
"956 1157 OFFCURVE",
"956 1016 CURVE SMOOTH",
"956 881 OFFCURVE",
"929 745 OFFCURVE",
"875 608 CURVE SMOOTH",
"767 332 OFFCURVE",
"588 152 OFFCURVE",
"412 152 CURVE SMOOTH",
"309 152 OFFCURVE",
"250 191 OFFCURVE",
"250 260 CURVE SMOOTH",
"250 285 OFFCURVE",
"257 324 OFFCURVE",
"272 378 CURVE SMOOTH",
"363 726 LINE SMOOTH",
"418 922 OFFCURVE",
"446 1054 OFFCURVE",
"446 1122 CURVE SMOOTH",
"446 1277 OFFCURVE",
"355 1376 OFFCURVE",
"215 1376 CURVE SMOOTH",
"160 1376 OFFCURVE",
"107 1366 OFFCURVE",
"57 1346 CURVE",
"111 1198 LINE",
"142 1211 OFFCURVE",
"170 1217 OFFCURVE",
"197 1217 CURVE SMOOTH",
"250 1217 OFFCURVE",
"295 1191 OFFCURVE",
"295 1122 CURVE SMOOTH",
"295 1066 OFFCURVE",
"268 944 OFFCURVE",
"214 756 CURVE SMOOTH",
"142 493 LINE SMOOTH",
"105 360 OFFCURVE",
"86 272 OFFCURVE",
"86 229 CURVE SMOOTH",
"86 85 OFFCURVE",
"227 -14 OFFCURVE",
"410 -14 CURVE SMOOTH"
);
}
);
width = 1204;
}
);
note = uniA8A6;
unicode = A8A6;
},
{
glyphname = uniA8A7;
lastChange = "2016-11-10 17:39:07 +0000";
layers = (
{
layerId = "C218C3DC-F535-40CE-915C-45F049FE9E78";
paths = (
{
closed = 1;
nodes = (
"749 -18 OFFCURVE",
"841 2 OFFCURVE",
"920 42 CURVE SMOOTH",
"1079 122 OFFCURVE",
"1176 282 OFFCURVE",
"1176 465 CURVE SMOOTH",
"1176 638 OFFCURVE",
"1108 751 OFFCURVE",
"973 805 CURVE",
"903 664 LINE",
"988 632 OFFCURVE",
"1030 566 OFFCURVE",
"1030 465 CURVE SMOOTH",
"1030 278 OFFCURVE",
"876 147 OFFCURVE",
"649 147 CURVE SMOOTH",
"554 147 OFFCURVE",
"473 169 OFFCURVE",
"405 212 CURVE SMOOTH",
"269 299 OFFCURVE",
"197 462 OFFCURVE",
"197 674 CURVE SMOOTH",
"197 1017 OFFCURVE",
"323 1223 OFFCURVE",
"530 1223 CURVE SMOOTH",
"623 1223 OFFCURVE",
"694 1186 OFFCURVE",
"815 1065 CURVE",
"819 1059 LINE",
"771 987 OFFCURVE",
"735 940 OFFCURVE",
"712 919 CURVE SMOOTH",
"689 898 OFFCURVE",
"665 887 OFFCURVE",
"641 887 CURVE SMOOTH",
"606 887 OFFCURVE",
"586 903 OFFCURVE",
"559 948 CURVE",
"440 868 LINE",
"495 769 OFFCURVE",
"555 733 OFFCURVE",
"639 733 CURVE SMOOTH",
"727 733 OFFCURVE",
"792 776 OFFCURVE",
"863 879 CURVE SMOOTH",
"922 965 LINE",
"1003 898 OFFCURVE",
"1080 864 OFFCURVE",
"1153 864 CURVE SMOOTH",
"1200 864 OFFCURVE",
"1243 875 OFFCURVE",
"1280 897 CURVE SMOOTH",
"1354 940 OFFCURVE",
"1397 1020 OFFCURVE",
"1397 1104 CURVE SMOOTH",
"1397 1252 OFFCURVE",
"1306 1348 OFFCURVE",
"1157 1348 CURVE SMOOTH",
"1064 1348 OFFCURVE",
"985 1297 OFFCURVE",
"897 1174 CURVE",
"795 1265 LINE SMOOTH",
"698 1356 OFFCURVE",
"627 1389 OFFCURVE",
"524 1389 CURVE SMOOTH",
"427 1389 OFFCURVE",
"344 1360 OFFCURVE",
"274 1301 CURVE SMOOTH",
"133 1184 OFFCURVE",
"55 959 OFFCURVE",
"55 676 CURVE SMOOTH",
"55 539 OFFCURVE",
"80 416 OFFCURVE",
"129 309 CURVE SMOOTH",
"227 93 OFFCURVE",
"408 -18 OFFCURVE",
"645 -18 CURVE SMOOTH"
);
},
{
closed = 1;
nodes = (
"1104 1012 OFFCURVE",
"1064 1034 OFFCURVE",
"1004 1083 CURVE",
"1057 1164 OFFCURVE",
"1098 1196 OFFCURVE",
"1153 1196 CURVE SMOOTH",
"1212 1196 OFFCURVE",
"1245 1164 OFFCURVE",
"1245 1104 CURVE SMOOTH",
"1245 1053 OFFCURVE",
"1204 1012 OFFCURVE",
"1149 1012 CURVE SMOOTH"
);
}
);
width = 1460;
}
);
note = uniA8A7;
unicode = A8A7;
},
{
glyphname = uniA8A8;
lastChange = "2016-11-10 17:39:07 +0000";
layers = (
{
layerId = "C218C3DC-F535-40CE-915C-45F049FE9E78";
paths = (
{
closed = 1;
nodes = (
"1004 -18 OFFCURVE",
"1180 101 OFFCURVE",
"1180 338 CURVE SMOOTH",
"1180 394 OFFCURVE",
"1170 449 OFFCURVE",
"1149 504 CURVE",
"995 455 LINE",
"1010 429 OFFCURVE",
"1018 394 OFFCURVE",
"1018 350 CURVE SMOOTH",
"1018 213 OFFCURVE",
"897 145 OFFCURVE",
"655 145 CURVE SMOOTH",
"551 145 OFFCURVE",
"473 153 OFFCURVE",
"420 168 CURVE SMOOTH",
"315 198 OFFCURVE",
"254 258 OFFCURVE",
"254 367 CURVE SMOOTH",
"254 484 OFFCURVE",
"295 537 OFFCURVE",
"399 562 CURVE SMOOTH",
"451 574 OFFCURVE",
"534 580 OFFCURVE",
"647 580 CURVE SMOOTH",
"774 580 LINE SMOOTH",
"1079 580 OFFCURVE",
"1212 707 OFFCURVE",
"1212 995 CURVE SMOOTH",
"1212 1256 OFFCURVE",
"1125 1377 OFFCURVE",
"950 1380 CURVE SMOOTH",
"924 1380 OFFCURVE",
"892 1372 OFFCURVE",
"853 1357 CURVE SMOOTH",
"814 1341 OFFCURVE",
"759 1311 OFFCURVE",
"688 1268 CURVE",
"665 1340 OFFCURVE",
"625 1376 OFFCURVE",
"541 1376 CURVE SMOOTH",
"448 1376 OFFCURVE",
"387 1322 OFFCURVE",
"387 1227 CURVE SMOOTH",
"387 1130 OFFCURVE",
"449 1082 OFFCURVE",
"541 1075 CURVE",
"524 1010 OFFCURVE",
"475 977 OFFCURVE",
"393 977 CURVE SMOOTH",
"291 977 OFFCURVE",
"240 1030 OFFCURVE",
"240 1135 CURVE SMOOTH",
"240 1182 OFFCURVE",
"260 1229 OFFCURVE",
"299 1274 CURVE",
"186 1372 LINE",
"121 1310 OFFCURVE",
"88 1231 OFFCURVE",
"88 1135 CURVE SMOOTH",
"88 946 OFFCURVE",
"209 827 OFFCURVE",
"401 827 CURVE SMOOTH",
"585 827 OFFCURVE",
"685 929 OFFCURVE",
"700 1104 CURVE",
"728 1117 OFFCURVE",
"751 1130 OFFCURVE",
"770 1143 CURVE",
"830 1179 OFFCURVE",
"870 1201 OFFCURVE",
"889 1208 CURVE SMOOTH",
"908 1215 OFFCURVE",
"927 1218 OFFCURVE",
"948 1219 CURVE",
"1035 1219 OFFCURVE",
"1079 1146 OFFCURVE",
"1079 999 CURVE SMOOTH",
"1079 791 OFFCURVE",
"977 709 OFFCURVE",
"741 709 CURVE SMOOTH",
"647 709 LINE SMOOTH",
"485 709 OFFCURVE",
"370 699 OFFCURVE",
"301 678 CURVE SMOOTH",
"164 637 OFFCURVE",
"96 546 OFFCURVE",
"96 377 CURVE SMOOTH",
"96 112 OFFCURVE",
"256 -18 OFFCURVE",
"653 -18 CURVE SMOOTH"
);
}
);
width = 1309;
}
);
note = uniA8A8;
unicode = A8A8;
},
{
glyphname = uniA8A9;
lastChange = "2016-11-10 17:39:07 +0000";
layers = (
{
layerId = "C218C3DC-F535-40CE-915C-45F049FE9E78";
paths = (
{
closed = 1;
nodes = (
"641 -18 OFFCURVE",
"735 129 OFFCURVE",
"735 453 CURVE SMOOTH",
"735 782 LINE SMOOTH",
"735 949 OFFCURVE",
"747 1062 OFFCURVE",
"772 1123 CURVE SMOOTH",
"796 1184 OFFCURVE",
"838 1214 OFFCURVE",
"899 1214 CURVE SMOOTH",
"949 1214 OFFCURVE",
"986 1186 OFFCURVE",
"1011 1130 CURVE SMOOTH",
"1035 1074 OFFCURVE",
"1047 987 OFFCURVE",
"1047 868 CURVE SMOOTH",
"1047 698 LINE",
"1194 698 LINE",
"1194 868 LINE SMOOTH",
"1194 997 OFFCURVE",
"1205 1087 OFFCURVE",
"1227 1138 CURVE SMOOTH",
"1248 1189 OFFCURVE",
"1285 1214 OFFCURVE",
"1337 1214 CURVE SMOOTH",
"1380 1214 OFFCURVE",
"1414 1198 OFFCURVE",
"1439 1167 CURVE SMOOTH",
"1488 1104 OFFCURVE",
"1513 975 OFFCURVE",
"1513 764 CURVE SMOOTH",
"1513 515 OFFCURVE",
"1492 391 OFFCURVE",
"1454 308 CURVE SMOOTH",
"1416 225 OFFCURVE",
"1359 175 OFFCURVE",
"1276 164 CURVE",
"1276 -12 LINE",
"1537 4 OFFCURVE",
"1661 231 OFFCURVE",
"1661 764 CURVE SMOOTH",
"1661 1173 OFFCURVE",
"1561 1378 OFFCURVE",
"1360 1378 CURVE SMOOTH",
"1216 1378 OFFCURVE",
"1146 1308 OFFCURVE",
"1122 1176 CURVE",
"1116 1174 LINE",
"1092 1311 OFFCURVE",
"1011 1380 OFFCURVE",
"874 1380 CURVE SMOOTH",
"674 1380 OFFCURVE",
"584 1204 OFFCURVE",
"584 844 CURVE SMOOTH",
"584 455 LINE SMOOTH",
"584 247 OFFCURVE",
"533 143 OFFCURVE",
"430 143 CURVE SMOOTH",
"365 143 OFFCURVE",
"319 179 OFFCURVE",
"290 252 CURVE SMOOTH",
"261 325 OFFCURVE",
"246 442 OFFCURVE",
"246 604 CURVE SMOOTH",
"246 893 OFFCURVE",
"308 1095 OFFCURVE",
"479 1292 CURVE",
"344 1389 LINE",
"176 1200 OFFCURVE",
"90 926 OFFCURVE",
"90 606 CURVE SMOOTH",
"90 186 OFFCURVE",
"197 -18 OFFCURVE",
"430 -18 CURVE SMOOTH"
);
}
);
width = 1747;
}
);
note = uniA8A9;
unicode = A8A9;
},
{
glyphname = uniA8AA;
lastChange = "2016-11-10 17:39:07 +0000";
layers = (
{
layerId = "C218C3DC-F535-40CE-915C-45F049FE9E78";
paths = (
{
closed = 1;
nodes = (
"1388 -18 OFFCURVE",
"1507 109 OFFCURVE",
"1507 362 CURVE SMOOTH",
"1507 1364 LINE",
"1358 1364 LINE",
"1358 375 LINE SMOOTH",
"1358 223 OFFCURVE",
"1286 147 OFFCURVE",
"1143 147 CURVE SMOOTH",
"1048 147 OFFCURVE",
"959 174 OFFCURVE",
"838 235 CURVE SMOOTH",
"710 296 OFFCURVE",
"627 322 OFFCURVE",
"539 322 CURVE SMOOTH",
"443 322 OFFCURVE",
"359 277 OFFCURVE",
"303 209 CURVE",
"303 266 LINE SMOOTH",
"303 467 OFFCURVE",
"406 565 OFFCURVE",
"651 565 CURVE SMOOTH",
"797 565 LINE SMOOTH",
"1093 565 OFFCURVE",
"1227 698 OFFCURVE",
"1227 995 CURVE SMOOTH",
"1227 1258 OFFCURVE",
"1123 1380 OFFCURVE",
"926 1380 CURVE SMOOTH",
"801 1380 OFFCURVE",
"697 1316 OFFCURVE",
"662 1217 CURVE",
"619 1326 OFFCURVE",
"531 1380 OFFCURVE",
"399 1380 CURVE SMOOTH",
"215 1380 OFFCURVE",
"98 1258 OFFCURVE",
"98 1065 CURVE SMOOTH",
"98 952 OFFCURVE",
"144 824 OFFCURVE",
"209 737 CURVE",
"338 817 LINE",
"294 874 OFFCURVE",
"254 982 OFFCURVE",
"254 1057 CURVE SMOOTH",
"254 1161 OFFCURVE",
"317 1225 OFFCURVE",
"422 1225 CURVE SMOOTH",
"542 1225 OFFCURVE",
"594 1160 OFFCURVE",
"594 1028 CURVE SMOOTH",
"594 862 LINE",
"735 862 LINE",
"735 1028 LINE SMOOTH",
"735 1157 OFFCURVE",
"798 1221 OFFCURVE",
"924 1221 CURVE SMOOTH",
"1035 1221 OFFCURVE",
"1090 1147 OFFCURVE",
"1090 999 CURVE SMOOTH",
"1090 780 OFFCURVE",
"987 692 OFFCURVE",
"764 692 CURVE SMOOTH",
"641 692 LINE SMOOTH",
"445 692 OFFCURVE",
"332 655 OFFCURVE",
"258 587 CURVE SMOOTH",
"184 519 OFFCURVE",
"145 413 OFFCURVE",
"145 268 CURVE SMOOTH",
"145 0 LINE",
"313 0 LINE",
"321 100 OFFCURVE",
"407 166 OFFCURVE",
"526 166 CURVE SMOOTH",
"621 166 OFFCURVE",
"711 137 OFFCURVE",
"830 74 CURVE SMOOTH",
"949 11 OFFCURVE",
"1045 -18 OFFCURVE",
"1149 -18 CURVE SMOOTH"
);
}
);
width = 1624;
}
);
note = uniA8AA;
unicode = A8AA;
},
{
glyphname = uniA8AB;
lastChange = "2016-11-10 17:39:07 +0000";
layers = (
{
layerId = "C218C3DC-F535-40CE-915C-45F049FE9E78";
paths = (
{
closed = 1;
nodes = (
"706 -14 OFFCURVE",
"814 36 OFFCURVE",
"919 137 CURVE SMOOTH",
"1128 337 OFFCURVE",
"1270 693 OFFCURVE",
"1270 1024 CURVE SMOOTH",
"1270 1256 OFFCURVE",
"1171 1380 OFFCURVE",
"948 1380 CURVE SMOOTH",
"752 1380 LINE",
"752 1223 LINE",
"948 1223 LINE SMOOTH",
"1072 1223 OFFCURVE",
"1120 1157 OFFCURVE",
"1120 1016 CURVE SMOOTH",
"1120 888 OFFCURVE",
"1095 757 OFFCURVE",
"1046 622 CURVE SMOOTH",
"946 352 OFFCURVE",
"767 152 OFFCURVE",
"596 152 CURVE SMOOTH",
"493 152 OFFCURVE",
"434 191 OFFCURVE",
"434 260 CURVE SMOOTH",
"434 285 OFFCURVE",
"441 324 OFFCURVE",
"456 378 CURVE SMOOTH",
"547 726 LINE SMOOTH",
"603 925 OFFCURVE",
"631 1057 OFFCURVE",
"631 1122 CURVE SMOOTH",
"631 1281 OFFCURVE",
"536 1380 OFFCURVE",
"387 1380 CURVE SMOOTH",
"222 1380 OFFCURVE",
"115 1285 OFFCURVE",
"115 1124 CURVE SMOOTH",
"115 979 OFFCURVE",
"193 879 OFFCURVE",
"340 862 CURVE",
"373 1012 LINE",
"298 1027 OFFCURVE",
"266 1065 OFFCURVE",
"266 1124 CURVE SMOOTH",
"266 1187 OFFCURVE",
"312 1223 OFFCURVE",
"371 1223 CURVE SMOOTH",
"446 1223 OFFCURVE",
"483 1183 OFFCURVE",
"483 1116 CURVE SMOOTH",
"483 1089 OFFCURVE",
"478 1052 OFFCURVE",
"467 1006 CURVE SMOOTH",
"456 960 OFFCURVE",
"434 876 OFFCURVE",
"399 755 CURVE SMOOTH",
"326 493 LINE SMOOTH",
"289 360 OFFCURVE",
"270 272 OFFCURVE",
"270 229 CURVE SMOOTH",
"270 85 OFFCURVE",
"411 -14 OFFCURVE",
"594 -14 CURVE SMOOTH"
);
}
);
width = 1378;
}
);
note = uniA8AB;
unicode = A8AB;
},
{
glyphname = uniA8AC;
lastChange = "2016-11-10 17:39:07 +0000";
layers = (
{
layerId = "C218C3DC-F535-40CE-915C-45F049FE9E78";
paths = (
{
closed = 1;
nodes = (
"390 -20 OFFCURVE",
"470 42 OFFCURVE",
"510 178 CURVE",
"613 113 LINE SMOOTH",
"749 24 OFFCURVE",
"842 -14 OFFCURVE",
"922 -14 CURVE SMOOTH",
"1157 -14 OFFCURVE",
"1278 118 OFFCURVE",
"1278 354 CURVE SMOOTH",
"1278 459 OFFCURVE",
"1232 586 OFFCURVE",
"1137 762 CURVE SMOOTH",
"1082 863 OFFCURVE",
"1045 938 OFFCURVE",
"1025 988 CURVE SMOOTH",
"1005 1037 OFFCURVE",
"995 1079 OFFCURVE",
"995 1114 CURVE SMOOTH",
"995 1181 OFFCURVE",
"1028 1208 OFFCURVE",
"1112 1208 CURVE SMOOTH",
"1319 1208 LINE",
"1319 1364 LINE",
"1092 1364 LINE SMOOTH",
"929 1364 OFFCURVE",
"848 1287 OFFCURVE",
"848 1133 CURVE SMOOTH",
"848 1049 OFFCURVE",
"884 950 OFFCURVE",
"987 755 CURVE SMOOTH",
"1084 570 OFFCURVE",
"1126 453 OFFCURVE",
"1126 354 CURVE SMOOTH",
"1126 231 OFFCURVE",
"1034 143 OFFCURVE",
"897 143 CURVE SMOOTH",
"827 143 OFFCURVE",
"739 179 OFFCURVE",
"632 251 CURVE SMOOTH",
"543 309 LINE",
"607 593 OFFCURVE",
"696 1079 OFFCURVE",
"696 1159 CURVE SMOOTH",
"696 1291 OFFCURVE",
"619 1364 OFFCURVE",
"483 1364 CURVE SMOOTH",
"158 1364 LINE",
"117 1208 LINE",
"463 1208 LINE SMOOTH",
"518 1208 OFFCURVE",
"545 1178 OFFCURVE",
"545 1118 CURVE SMOOTH",
"545 1066 OFFCURVE",
"465 644 OFFCURVE",
"408 385 CURVE",
"357 408 OFFCURVE",
"311 420 OFFCURVE",
"272 420 CURVE SMOOTH",
"131 420 OFFCURVE",
"45 332 OFFCURVE",
"45 199 CURVE SMOOTH",
"45 72 OFFCURVE",
"134 -20 OFFCURVE",
"262 -20 CURVE SMOOTH"
);
},
{
closed = 1;
nodes = (
"217 123 OFFCURVE",
"186 154 OFFCURVE",
"186 199 CURVE SMOOTH",
"186 240 OFFCURVE",
"215 274 OFFCURVE",
"268 274 CURVE SMOOTH",
"299 274 OFFCURVE",
"335 266 OFFCURVE",
"377 250 CURVE",
"353 157 OFFCURVE",
"318 123 OFFCURVE",
"262 123 CURVE SMOOTH"
);
}
);
width = 1374;
}
);
note = uniA8AC;
unicode = A8AC;
},
{
glyphname = uniA8AD;
lastChange = "2016-11-10 17:39:07 +0000";
layers = (
{
layerId = "C218C3DC-F535-40CE-915C-45F049FE9E78";
paths = (
{
closed = 1;
nodes = (
"651 166 LINE",
"391 171 OFFCURVE",
"248 386 OFFCURVE",
"248 762 CURVE SMOOTH",
"248 1062 OFFCURVE",
"320 1214 OFFCURVE",
"496 1214 CURVE SMOOTH",
"576 1214 OFFCURVE",
"634 1173 OFFCURVE",
"671 1091 CURVE SMOOTH",
"708 1008 OFFCURVE",
"727 877 OFFCURVE",
"729 698 CURVE",
"891 698 LINE",
"892 819 OFFCURVE",
"902 918 OFFCURVE",
"921 994 CURVE SMOOTH",
"958 1146 OFFCURVE",
"1024 1214 OFFCURVE",
"1145 1214 CURVE SMOOTH",
"1310 1214 OFFCURVE",
"1376 1069 OFFCURVE",
"1376 764 CURVE SMOOTH",
"1376 387 OFFCURVE",
"1242 177 OFFCURVE",
"993 166 CURVE",
"993 0 LINE",
"1336 11 OFFCURVE",
"1524 285 OFFCURVE",
"1524 764 CURVE SMOOTH",
"1524 1157 OFFCURVE",
"1396 1378 OFFCURVE",
"1151 1378 CURVE SMOOTH",
"972 1378 OFFCURVE",
"870 1294 OFFCURVE",
"811 1102 CURVE",
"805 1100 LINE",
"762 1280 OFFCURVE",
"648 1378 OFFCURVE",
"479 1378 CURVE SMOOTH",
"226 1378 OFFCURVE",
"100 1173 OFFCURVE",
"100 762 CURVE SMOOTH",
"100 608 OFFCURVE",
"122 474 OFFCURVE",
"167 359 CURVE SMOOTH",
"255 129 OFFCURVE",
"426 4 OFFCURVE",
"651 0 CURVE"
);
}
);
width = 1638;
}
);
note = uniA8AD;
unicode = A8AD;
},
{
glyphname = uniA8AE;
lastChange = "2016-11-10 17:39:07 +0000";
layers = (
{
layerId = "C218C3DC-F535-40CE-915C-45F049FE9E78";
paths = (
{
closed = 1;
nodes = (
"842 -18 OFFCURVE",
"958 95 OFFCURVE",
"958 264 CURVE SMOOTH",
"958 324 OFFCURVE",
"934 379 OFFCURVE",
"893 433 CURVE SMOOTH",
"872 460 OFFCURVE",
"829 506 OFFCURVE",
"764 571 CURVE",
"1108 897 LINE SMOOTH",
"1197 978 OFFCURVE",
"1231 1040 OFFCURVE",
"1231 1128 CURVE SMOOTH",
"1231 1284 OFFCURVE",
"1132 1384 OFFCURVE",
"967 1384 CURVE SMOOTH",
"884 1384 OFFCURVE",
"808 1357 OFFCURVE",
"739 1303 CURVE",
"827 1178 LINE",
"873 1212 OFFCURVE",
"921 1229 OFFCURVE",
"971 1229 CURVE SMOOTH",
"1040 1229 OFFCURVE",
"1079 1189 OFFCURVE",
"1079 1122 CURVE SMOOTH",
"1079 1086 OFFCURVE",
"1055 1046 OFFCURVE",
"1006 1001 CURVE SMOOTH",
"659 674 LINE",
"266 1061 LINE SMOOTH",
"235 1092 OFFCURVE",
"219 1123 OFFCURVE",
"219 1153 CURVE SMOOTH",
"219 1184 OFFCURVE",
"244 1208 OFFCURVE",
"291 1208 CURVE SMOOTH",
"547 1208 LINE",
"547 1364 LINE",
"279 1364 LINE SMOOTH",
"146 1364 OFFCURVE",
"61 1284 OFFCURVE",
"61 1167 CURVE SMOOTH",
"61 1098 OFFCURVE",
"96 1030 OFFCURVE",
"166 961 CURVE SMOOTH",
"557 578 LINE",
"545 565 LINE",
"406 437 OFFCURVE",
"360 355 OFFCURVE",
"360 262 CURVE SMOOTH",
"360 93 OFFCURVE",
"481 -18 OFFCURVE",
"662 -18 CURVE SMOOTH"
);
},
{
closed = 1;
nodes = (
"573 141 OFFCURVE",
"514 192 OFFCURVE",
"514 272 CURVE SMOOTH",
"514 336 OFFCURVE",
"557 384 OFFCURVE",
"662 475 CURVE",
"725 415 LINE SMOOTH",
"785 358 OFFCURVE",
"807 321 OFFCURVE",
"807 274 CURVE SMOOTH",
"807 195 OFFCURVE",
"749 141 OFFCURVE",
"662 141 CURVE SMOOTH"
);
}
);
width = 1305;
}
);
note = uniA8AE;
unicode = A8AE;
},
{
glyphname = uniA8AF;
lastChange = "2016-11-10 17:39:07 +0000";
layers = (
{
layerId = "C218C3DC-F535-40CE-915C-45F049FE9E78";
paths = (
{
closed = 1;
nodes = (
"451 63 LINE",
"323 235 OFFCURVE",
"223 524 OFFCURVE",
"223 723 CURVE SMOOTH",
"223 1040 OFFCURVE",
"359 1219 OFFCURVE",
"600 1219 CURVE SMOOTH",
"761 1219 OFFCURVE",
"856 1122 OFFCURVE",
"856 965 CURVE SMOOTH",
"856 916 OFFCURVE",
"846 870 OFFCURVE",
"827 827 CURVE",
"778 914 OFFCURVE",
"699 971 OFFCURVE",
"600 971 CURVE SMOOTH",
"469 971 OFFCURVE",
"381 886 OFFCURVE",
"381 762 CURVE SMOOTH",
"381 619 OFFCURVE",
"472 532 OFFCURVE",
"625 532 CURVE SMOOTH",
"674 532 OFFCURVE",
"717 539 OFFCURVE",
"752 553 CURVE",
"748 451 LINE",
"748 138 OFFCURVE",
"863 -16 OFFCURVE",
"1102 -16 CURVE SMOOTH",
"1338 -16 OFFCURVE",
"1479 231 OFFCURVE",
"1479 664 CURVE SMOOTH",
"1479 947 OFFCURVE",
"1393 1184 OFFCURVE",
"1202 1389 CURVE",
"1085 1288 LINE",
"1122 1244 OFFCURVE",
"1184 1176 OFFCURVE",
"1234 1075 CURVE SMOOTH",
"1284 974 OFFCURVE",
"1325 840 OFFCURVE",
"1325 664 CURVE SMOOTH",
"1325 495 OFFCURVE",
"1305 366 OFFCURVE",
"1264 278 CURVE SMOOTH",
"1223 189 OFFCURVE",
"1165 145 OFFCURVE",
"1092 145 CURVE SMOOTH",
"989 145 OFFCURVE",
"934 197 OFFCURVE",
"907 301 CURVE SMOOTH",
"894 353 OFFCURVE",
"887 440 OFFCURVE",
"887 563 CURVE SMOOTH",
"887 606 LINE",
"889 653 LINE",
"964 733 OFFCURVE",
"1001 834 OFFCURVE",
"1001 956 CURVE SMOOTH",
"1001 1046 OFFCURVE",
"984 1123 OFFCURVE",
"950 1186 CURVE SMOOTH",
"881 1313 OFFCURVE",
"752 1380 OFFCURVE",
"588 1380 CURVE SMOOTH",
"271 1380 OFFCURVE",
"72 1126 OFFCURVE",
"72 723 CURVE SMOOTH",
"72 483 OFFCURVE",
"170 170 OFFCURVE",
"313 -31 CURVE"
);
},
{
closed = 1;
nodes = (
"561 684 OFFCURVE",
"532 709 OFFCURVE",
"532 758 CURVE SMOOTH",
"532 789 OFFCURVE",
"555 821 OFFCURVE",
"602 821 CURVE SMOOTH",
"663 821 OFFCURVE",
"704 786 OFFCURVE",
"725 715 CURVE",
"688 694 OFFCURVE",
"653 684 OFFCURVE",
"618 684 CURVE SMOOTH"
);
}
);
width = 1575;
}
);
note = uniA8AF;
unicode = A8AF;
},
{
glyphname = uniA8B0;
lastChange = "2016-11-10 17:39:07 +0000";
layers = (
{
layerId = "C218C3DC-F535-40CE-915C-45F049FE9E78";
paths = (
{
closed = 1;
nodes = (
"997 -23 OFFCURVE",
"1204 186 OFFCURVE",
"1292 594 CURVE",
"1376 538 OFFCURVE",
"1419 471 OFFCURVE",
"1419 367 CURVE SMOOTH",
"1419 287 OFFCURVE",
"1369 204 OFFCURVE",
"1270 117 CURVE",
"1395 -2 LINE",
"1512 106 OFFCURVE",
"1571 223 OFFCURVE",
"1571 348 CURVE SMOOTH",
"1571 511 OFFCURVE",
"1511 608 OFFCURVE",
"1331 745 CURVE",
"1360 862 OFFCURVE",
"1374 966 OFFCURVE",
"1374 1055 CURVE SMOOTH",
"1374 1262 OFFCURVE",
"1267 1380 OFFCURVE",
"1087 1380 CURVE SMOOTH",
"934 1380 OFFCURVE",
"829 1273 OFFCURVE",
"829 1106 CURVE SMOOTH",
"829 963 OFFCURVE",
"910 845 OFFCURVE",
"1169 688 CURVE",
"1098 333 OFFCURVE",
"935 141 OFFCURVE",
"684 141 CURVE SMOOTH",
"586 141 OFFCURVE",
"502 164 OFFCURVE",
"432 210 CURVE SMOOTH",
"292 302 OFFCURVE",
"215 485 OFFCURVE",
"215 741 CURVE SMOOTH",
"215 803 LINE",
"270 766 OFFCURVE",
"339 748 OFFCURVE",
"422 748 CURVE SMOOTH",
"587 748 OFFCURVE",
"694 872 OFFCURVE",
"694 1061 CURVE SMOOTH",
"694 1258 OFFCURVE",
"591 1382 OFFCURVE",
"418 1382 CURVE SMOOTH",
"190 1382 OFFCURVE",
"78 1160 OFFCURVE",
"78 741 CURVE SMOOTH",
"78 578 OFFCURVE",
"102 440 OFFCURVE",
"151 325 CURVE SMOOTH",
"247 96 OFFCURVE",
"432 -23 OFFCURVE",
"684 -23 CURVE SMOOTH"
);
},
{
closed = 1;
nodes = (
"345 907 OFFCURVE",
"287 926 OFFCURVE",
"238 965 CURVE",
"254 1138 OFFCURVE",
"311 1223 OFFCURVE",
"420 1223 CURVE SMOOTH",
"501 1223 OFFCURVE",
"553 1168 OFFCURVE",
"553 1061 CURVE SMOOTH",
"553 969 OFFCURVE",
"503 907 OFFCURVE",
"412 907 CURVE SMOOTH"
);
},
{
closed = 1;
nodes = (
"1053 914 OFFCURVE",
"981 997 OFFCURVE",
"981 1098 CURVE SMOOTH",
"981 1171 OFFCURVE",
"1034 1221 OFFCURVE",
"1098 1221 CURVE SMOOTH",
"1185 1221 OFFCURVE",
"1223 1171 OFFCURVE",
"1223 1055 CURVE SMOOTH",
"1223 968 OFFCURVE",
"1215 894 OFFCURVE",
"1198 831 CURVE"
);
}
);
width = 1634;
}
);
note = uniA8B0;
unicode = A8B0;
},
{
glyphname = uniA8B1;
lastChange = "2016-11-10 17:39:07 +0000";
layers = (
{
layerId = "C218C3DC-F535-40CE-915C-45F049FE9E78";
paths = (
{
closed = 1;
nodes = (
"1017 -16 OFFCURVE",
"1095 5 OFFCURVE",
"1164 47 CURVE SMOOTH",
"1301 131 OFFCURVE",
"1382 295 OFFCURVE",
"1382 508 CURVE SMOOTH",
"1382 600 OFFCURVE",
"1356 692 OFFCURVE",
"1331 785 CURVE SMOOTH",
"1306 878 OFFCURVE",
"1280 973 OFFCURVE",
"1280 1073 CURVE SMOOTH",
"1280 1162 OFFCURVE",
"1316 1204 OFFCURVE",
"1401 1204 CURVE SMOOTH",
"1417 1204 LINE",
"1417 1364 LINE",
"1248 1364 OFFCURVE",
"1143 1258 OFFCURVE",
"1143 1077 CURVE SMOOTH",
"1143 1018 OFFCURVE",
"1159 925 OFFCURVE",
"1192 797 CURVE SMOOTH",
"1225 669 OFFCURVE",
"1241 575 OFFCURVE",
"1241 514 CURVE SMOOTH",
"1241 439 OFFCURVE",
"1227 374 OFFCURVE",
"1200 319 CURVE SMOOTH",
"1144 209 OFFCURVE",
"1043 147 OFFCURVE",
"928 147 CURVE SMOOTH",
"700 147 OFFCURVE",
"571 335 OFFCURVE",
"571 655 CURVE SMOOTH",
"571 783 OFFCURVE",
"591 896 OFFCURVE",
"631 993 CURVE",
"698 930 OFFCURVE",
"767 899 OFFCURVE",
"836 899 CURVE SMOOTH",
"976 899 OFFCURVE",
"1057 982 OFFCURVE",
"1057 1130 CURVE SMOOTH",
"1057 1170 OFFCURVE",
"1049 1206 OFFCURVE",
"1032 1239 CURVE SMOOTH",
"998 1304 OFFCURVE",
"931 1346 OFFCURVE",
"838 1346 CURVE SMOOTH",
"755 1346 OFFCURVE",
"668 1295 OFFCURVE",
"596 1204 CURVE",
"536 1268 LINE SMOOTH",
"465 1343 OFFCURVE",
"401 1380 OFFCURVE",
"344 1380 CURVE SMOOTH",
"172 1380 OFFCURVE",
"96 1283 OFFCURVE",
"96 1059 CURVE SMOOTH",
"96 0 LINE",
"242 0 LINE",
"242 1059 LINE SMOOTH",
"242 1166 OFFCURVE",
"280 1219 OFFCURVE",
"356 1219 CURVE SMOOTH",
"379 1219 OFFCURVE",
"403 1210 OFFCURVE",
"428 1193 CURVE SMOOTH",
"453 1175 OFFCURVE",
"487 1143 OFFCURVE",
"528 1098 CURVE",
"461 967 OFFCURVE",
"428 820 OFFCURVE",
"428 655 CURVE SMOOTH",
"428 518 OFFCURVE",
"449 398 OFFCURVE",
"490 297 CURVE SMOOTH",
"572 93 OFFCURVE",
"728 -16 OFFCURVE",
"928 -16 CURVE SMOOTH"
);
},
{
closed = 1;
nodes = (
"786 1053 OFFCURVE",
"741 1071 OFFCURVE",
"694 1108 CURVE",
"738 1165 OFFCURVE",
"785 1194 OFFCURVE",
"836 1194 CURVE SMOOTH",
"884 1194 OFFCURVE",
"918 1167 OFFCURVE",
"918 1126 CURVE SMOOTH",
"918 1090 OFFCURVE",
"893 1053 OFFCURVE",
"829 1053 CURVE SMOOTH"
);
}
);
width = 1489;
}
);
note = uniA8B1;
unicode = A8B1;
},
{
glyphname = uniA8B2;
lastChange = "2016-11-10 17:39:07 +0000";
layers = (
{
layerId = "C218C3DC-F535-40CE-915C-45F049FE9E78";
paths = (
{
closed = 1;
nodes = (
"771 -23 OFFCURVE",
"861 0 OFFCURVE",
"943 47 CURVE SMOOTH",
"1107 140 OFFCURVE",
"1196 300 OFFCURVE",
"1196 492 CURVE SMOOTH",
"1196 583 OFFCURVE",
"1176 665 OFFCURVE",
"1137 737 CURVE",
"1010 686 LINE",
"1034 638 OFFCURVE",
"1057 551 OFFCURVE",
"1057 498 CURVE SMOOTH",
"1056 426 OFFCURVE",
"1038 363 OFFCURVE",
"1004 309 CURVE SMOOTH",
"935 200 OFFCURVE",
"813 139 OFFCURVE",
"678 139 CURVE SMOOTH",
"597 139 OFFCURVE",
"525 154 OFFCURVE",
"460 184 CURVE SMOOTH",
"331 243 OFFCURVE",
"256 361 OFFCURVE",
"256 516 CURVE SMOOTH",
"256 644 OFFCURVE",
"307 749 OFFCURVE",
"408 831 CURVE",
"453 691 OFFCURVE",
"563 608 OFFCURVE",
"702 608 CURVE SMOOTH",
"751 608 OFFCURVE",
"793 618 OFFCURVE",
"828 639 CURVE SMOOTH",
"899 679 OFFCURVE",
"940 754 OFFCURVE",
"940 834 CURVE SMOOTH",
"940 970 OFFCURVE",
"831 1057 OFFCURVE",
"664 1057 CURVE SMOOTH",
"617 1057 OFFCURVE",
"571 1050 OFFCURVE",
"526 1036 CURVE",
"550 1140 OFFCURVE",
"628 1209 OFFCURVE",
"727 1214 CURVE",
"1135 1214 LINE",
"1169 1364 LINE",
"117 1364 LINE",
"84 1214 LINE",
"463 1214 LINE",
"411 1150 OFFCURVE",
"385 1076 OFFCURVE",
"385 993 CURVE SMOOTH",
"385 975 LINE",
"205 870 OFFCURVE",
"113 705 OFFCURVE",
"113 516 CURVE SMOOTH",
"113 409 OFFCURVE",
"138 314 OFFCURVE",
"187 233 CURVE SMOOTH",
"285 70 OFFCURVE",
"467 -23 OFFCURVE",
"672 -23 CURVE SMOOTH"
);
},
{
closed = 1;
nodes = (
"623 764 OFFCURVE",
"554 816 OFFCURVE",
"530 899 CURVE",
"575 916 OFFCURVE",
"618 924 OFFCURVE",
"659 924 CURVE SMOOTH",
"739 924 OFFCURVE",
"788 891 OFFCURVE",
"788 840 CURVE SMOOTH",
"788 795 OFFCURVE",
"754 764 OFFCURVE",
"698 764 CURVE SMOOTH"
);
}
);
width = 1282;
}
);
note = uniA8B2;
unicode = A8B2;
},
{
glyphname = uniA8B3;
lastChange = "2016-11-10 17:39:07 +0000";
layers = (
{
layerId = "C218C3DC-F535-40CE-915C-45F049FE9E78";
paths = (
{
closed = 1;
nodes = (
"487 164 LINE",
"406 173 OFFCURVE",
"347 224 OFFCURVE",
"310 307 CURVE SMOOTH",
"273 390 OFFCURVE",
"250 511 OFFCURVE",
"250 764 CURVE SMOOTH",
"250 917 OFFCURVE",
"264 1030 OFFCURVE",
"291 1104 CURVE SMOOTH",
"318 1177 OFFCURVE",
"363 1214 OFFCURVE",
"426 1214 CURVE SMOOTH",
"477 1214 OFFCURVE",
"514 1190 OFFCURVE",
"536 1141 CURVE SMOOTH",
"558 1092 OFFCURVE",
"569 1001 OFFCURVE",
"569 868 CURVE SMOOTH",
"569 698 LINE",
"717 698 LINE",
"717 905 LINE SMOOTH",
"717 1105 OFFCURVE",
"761 1204 OFFCURVE",
"868 1204 CURVE SMOOTH",
"980 1204 OFFCURVE",
"1028 1100 OFFCURVE",
"1028 905 CURVE SMOOTH",
"1028 698 LINE",
"1176 698 LINE",
"1176 868 LINE SMOOTH",
"1176 1000 OFFCURVE",
"1187 1091 OFFCURVE",
"1209 1140 CURVE SMOOTH",
"1230 1189 OFFCURVE",
"1267 1214 OFFCURVE",
"1319 1214 CURVE SMOOTH",
"1382 1214 OFFCURVE",
"1428 1177 OFFCURVE",
"1455 1104 CURVE SMOOTH",
"1482 1031 OFFCURVE",
"1495 917 OFFCURVE",
"1495 764 CURVE SMOOTH",
"1495 513 OFFCURVE",
"1474 395 OFFCURVE",
"1436 311 CURVE SMOOTH",
"1398 226 OFFCURVE",
"1340 175 OFFCURVE",
"1257 164 CURVE",
"1257 -12 LINE",
"1521 4 OFFCURVE",
"1642 231 OFFCURVE",
"1642 764 CURVE SMOOTH",
"1642 1176 OFFCURVE",
"1540 1378 OFFCURVE",
"1331 1378 CURVE SMOOTH",
"1202 1378 OFFCURVE",
"1125 1309 OFFCURVE",
"1104 1186 CURVE",
"1098 1184 LINE",
"1075 1315 OFFCURVE",
"1002 1380 OFFCURVE",
"877 1380 CURVE SMOOTH",
"746 1380 OFFCURVE",
"675 1311 OFFCURVE",
"651 1184 CURVE",
"645 1182 LINE",
"625 1307 OFFCURVE",
"546 1378 OFFCURVE",
"403 1378 CURVE SMOOTH",
"202 1378 OFFCURVE",
"102 1173 OFFCURVE",
"102 764 CURVE SMOOTH",
"102 231 OFFCURVE",
"226 4 OFFCURVE",
"487 -12 CURVE"
);
}
);
width = 1735;
}
);
note = uniA8B3;
unicode = A8B3;
},
{
glyphname = uniA8B4;
lastChange = "2016-11-10 17:39:07 +0000";
layers = (
{
layerId = "C218C3DC-F535-40CE-915C-45F049FE9E78";
paths = (
{
closed = 1;
nodes = (
"676 0 LINE",
"676 1364 LINE",
"526 1343 LINE",
"526 690 LINE SMOOTH",
"526 665 OFFCURVE",
"520 643 OFFCURVE",
"507 625 CURVE SMOOTH",
"482 589 OFFCURVE",
"434 567 OFFCURVE",
"391 567 CURVE SMOOTH",
"289 567 OFFCURVE",
"238 629 OFFCURVE",
"238 754 CURVE SMOOTH",
"238 1364 LINE",
"86 1343 LINE",
"86 748 LINE SMOOTH",
"86 544 OFFCURVE",
"192 424 OFFCURVE",
"379 424 CURVE SMOOTH",
"433 424 OFFCURVE",
"482 435 OFFCURVE",
"526 457 CURVE",
"526 0 LINE"
);
}
);
width = 764;
}
);
note = uniA8B4;
unicode = A8B4;
},
{
glyphname = uniA8B5;
lastChange = "2016-11-10 17:39:07 +0000";
layers = (
{
layerId = "C218C3DC-F535-40CE-915C-45F049FE9E78";
paths = (
{
closed = 1;
nodes = (
"616 -25 OFFCURVE",
"659 -16 OFFCURVE",
"707 2 CURVE",
"651 160 LINE",
"628 146 OFFCURVE",
"604 139 OFFCURVE",
"578 139 CURVE SMOOTH",
"527 139 OFFCURVE",
"492 165 OFFCURVE",
"492 221 CURVE SMOOTH",
"492 256 OFFCURVE",
"505 305 OFFCURVE",
"532 368 CURVE SMOOTH",
"558 431 OFFCURVE",
"600 515 OFFCURVE",
"659 620 CURVE SMOOTH",
"718 725 OFFCURVE",
"835 922 OFFCURVE",
"1010 1212 CURVE",
"958 1364 LINE",
"563 1364 LINE SMOOTH",
"422 1364 OFFCURVE",
"334 1318 OFFCURVE",
"299 1227 CURVE",
"267 1315 OFFCURVE",
"179 1364 OFFCURVE",
"55 1364 CURVE",
"55 1204 LINE",
"175 1204 OFFCURVE",
"231 1135 OFFCURVE",
"231 983 CURVE SMOOTH",
"231 815 LINE",
"383 815 LINE",
"383 1040 LINE SMOOTH",
"383 1156 OFFCURVE",
"443 1214 OFFCURVE",
"563 1214 CURVE SMOOTH",
"844 1214 LINE",
"684 942 OFFCURVE",
"574 751 OFFCURVE",
"514 640 CURVE SMOOTH",
"453 529 OFFCURVE",
"409 440 OFFCURVE",
"381 372 CURVE SMOOTH",
"352 303 OFFCURVE",
"338 250 OFFCURVE",
"338 213 CURVE SMOOTH",
"338 70 OFFCURVE",
"434 -25 OFFCURVE",
"578 -25 CURVE SMOOTH"
);
}
);
width = 1059;
}
);
note = uniA8B5;
unicode = A8B5;
},
{
glyphname = uniA8B6;
lastChange = "2016-11-10 17:39:07 +0000";
layers = (
{
layerId = "C218C3DC-F535-40CE-915C-45F049FE9E78";
paths = (
{
closed = 1;
nodes = (
"-528 1489 LINE",
"-538 1508 OFFCURVE",
"-543 1527 OFFCURVE",
"-543 1548 CURVE SMOOTH",
"-543 1607 OFFCURVE",
"-496 1647 OFFCURVE",
"-395 1647 CURVE SMOOTH",
"-295 1647 OFFCURVE",
"-248 1607 OFFCURVE",
"-248 1548 CURVE SMOOTH",
"-248 1526 OFFCURVE",
"-253 1506 OFFCURVE",
"-262 1489 CURVE",
"-127 1442 LINE",
"-110 1483 OFFCURVE",
"-102 1521 OFFCURVE",
"-102 1556 CURVE SMOOTH",
"-102 1701 OFFCURVE",
"-214 1796 OFFCURVE",
"-395 1796 CURVE SMOOTH",
"-572 1796 OFFCURVE",
"-688 1705 OFFCURVE",
"-688 1556 CURVE SMOOTH",
"-688 1519 OFFCURVE",
"-680 1481 OFFCURVE",
"-664 1442 CURVE"
);
}
);
width = 0;
}
);
note = uniA8B6;
unicode = A8B6;
},
{
glyphname = uniA8B7;
lastChange = "2016-11-10 17:39:07 +0000";
layers = (
{
layerId = "C218C3DC-F535-40CE-915C-45F049FE9E78";
paths = (
{
closed = 1;
nodes = (
"651 -18 OFFCURVE",
"752 86 OFFCURVE",
"752 238 CURVE",
"600 238 LINE",
"600 183 OFFCURVE",
"568 143 OFFCURVE",
"500 143 CURVE SMOOTH",
"429 143 OFFCURVE",
"393 184 OFFCURVE",
"393 303 CURVE SMOOTH",
"393 1376 LINE SMOOTH",
"393 1661 OFFCURVE",
"294 1808 OFFCURVE",
"63 1808 CURVE SMOOTH",
"-128 1808 OFFCURVE",
"-262 1690 OFFCURVE",
"-262 1534 CURVE SMOOTH",
"-262 1499 OFFCURVE",
"-256 1467 OFFCURVE",
"-244 1438 CURVE",
"-100 1487 LINE",
"-106 1502 OFFCURVE",
"-109 1519 OFFCURVE",
"-109 1538 CURVE SMOOTH",
"-109 1606 OFFCURVE",
"-31 1657 OFFCURVE",
"66 1657 CURVE SMOOTH",
"195 1657 OFFCURVE",
"242 1592 OFFCURVE",
"242 1417 CURVE SMOOTH",
"242 303 LINE SMOOTH",
"242 78 OFFCURVE",
"332 -18 OFFCURVE",
"500 -18 CURVE SMOOTH"
);
}
);
width = 823;
}
);
note = uniA8B7;
unicode = A8B7;
},
{
glyphname = uniA8B8;
lastChange = "2016-11-10 17:39:07 +0000";
layers = (
{
layerId = "C218C3DC-F535-40CE-915C-45F049FE9E78";
paths = (
{
closed = 1;
nodes = (
"594 -18 OFFCURVE",
"698 115 OFFCURVE",
"698 340 CURVE SMOOTH",
"698 591 OFFCURVE",
"630 833 OFFCURVE",
"502 1024 CURVE",
"541 1076 OFFCURVE",
"579 1118 OFFCURVE",
"618 1149 CURVE",
"618 1145 LINE SMOOTH",
"618 977 OFFCURVE",
"703 887 OFFCURVE",
"848 887 CURVE SMOOTH",
"988 887 OFFCURVE",
"1073 985 OFFCURVE",
"1073 1133 CURVE SMOOTH",
"1073 1286 OFFCURVE",
"986 1376 OFFCURVE",
"834 1376 CURVE SMOOTH",
"691 1376 OFFCURVE",
"553 1293 OFFCURVE",
"420 1126 CURVE",
"309 1248 OFFCURVE",
"178 1331 OFFCURVE",
"25 1376 CURVE",
"-12 1233 LINE",
"129 1197 OFFCURVE",
"245 1123 OFFCURVE",
"338 1010 CURVE",
"207 798 OFFCURVE",
"117 522 OFFCURVE",
"117 342 CURVE SMOOTH",
"117 113 OFFCURVE",
"219 -18 OFFCURVE",
"410 -18 CURVE SMOOTH"
);
},
{
closed = 1;
nodes = (
"315 143 OFFCURVE",
"262 219 OFFCURVE",
"262 352 CURVE SMOOTH",
"262 511 OFFCURVE",
"327 726 OFFCURVE",
"420 895 CURVE",
"509 736 OFFCURVE",
"553 555 OFFCURVE",
"553 350 CURVE SMOOTH",
"553 307 OFFCURVE",
"547 270 OFFCURVE",
"534 239 CURVE SMOOTH",
"508 177 OFFCURVE",
"462 143 OFFCURVE",
"410 143 CURVE SMOOTH"
);
},
{
closed = 1;
nodes = (
"779 1038 OFFCURVE",
"748 1078 OFFCURVE",
"748 1157 CURVE SMOOTH",
"748 1178 OFFCURVE",
"750 1202 OFFCURVE",
"754 1227 CURVE",
"787 1236 OFFCURVE",
"816 1241 OFFCURVE",
"842 1241 CURVE SMOOTH",
"899 1241 OFFCURVE",
"934 1203 OFFCURVE",
"934 1135 CURVE SMOOTH",
"934 1080 OFFCURVE",
"899 1038 OFFCURVE",
"840 1038 CURVE SMOOTH"
);
}
);
width = 1143;
}
);
note = uniA8B8;
unicode = A8B8;
},
{
glyphname = uniA8B9;
lastChange = "2016-11-10 17:39:07 +0000";
layers = (
{
layerId = "C218C3DC-F535-40CE-915C-45F049FE9E78";
paths = (
{
closed = 1;
nodes = (
"615 -18 OFFCURVE",
"721 115 OFFCURVE",
"721 340 CURVE SMOOTH",
"721 584 OFFCURVE",
"651 825 OFFCURVE",
"518 1024 CURVE",
"558 1077 OFFCURVE",
"596 1119 OFFCURVE",
"631 1149 CURVE",
"631 988 OFFCURVE",
"717 893 OFFCURVE",
"868 893 CURVE SMOOTH",
"1003 893 OFFCURVE",
"1090 989 OFFCURVE",
"1090 1133 CURVE SMOOTH",
"1090 1285 OFFCURVE",
"1010 1370 OFFCURVE",
"858 1370 CURVE",
"805 1366 LINE",
"827 1417 OFFCURVE",
"859 1469 OFFCURVE",
"901 1522 CURVE",
"799 1589 LINE",
"728 1496 OFFCURVE",
"680 1405 OFFCURVE",
"655 1317 CURVE",
"585 1281 OFFCURVE",
"512 1217 OFFCURVE",
"436 1126 CURVE",
"325 1249 OFFCURVE",
"195 1333 OFFCURVE",
"45 1376 CURVE",
"8 1225 LINE",
"147 1188 OFFCURVE",
"262 1117 OFFCURVE",
"354 1010 CURVE",
"222 795 OFFCURVE",
"135 523 OFFCURVE",
"135 342 CURVE SMOOTH",
"135 114 OFFCURVE",
"239 -18 OFFCURVE",
"430 -18 CURVE SMOOTH"
);
},
{
closed = 1;
nodes = (
"335 143 OFFCURVE",
"283 220 OFFCURVE",
"283 352 CURVE SMOOTH",
"283 508 OFFCURVE",
"340 718 OFFCURVE",
"436 895 CURVE",
"527 739 OFFCURVE",
"573 557 OFFCURVE",
"573 350 CURVE SMOOTH",
"573 307 OFFCURVE",
"567 270 OFFCURVE",
"554 239 CURVE SMOOTH",
"528 177 OFFCURVE",
"482 143 OFFCURVE",
"430 143 CURVE SMOOTH"
);
},
{
closed = 1;
nodes = (
"793 1038 OFFCURVE",
"760 1080 OFFCURVE",
"760 1165 CURVE SMOOTH",
"760 1191 OFFCURVE",
"761 1211 OFFCURVE",
"764 1225 CURVE",
"795 1236 OFFCURVE",
"825 1241 OFFCURVE",
"854 1241 CURVE SMOOTH",
"927 1241 OFFCURVE",
"954 1192 OFFCURVE",
"954 1135 CURVE SMOOTH",
"954 1075 OFFCURVE",
"916 1038 OFFCURVE",
"860 1038 CURVE SMOOTH"
);
}
);
width = 1122;
}
);
note = uniA8B9;
unicode = A8B9;
},
{
glyphname = uniA8BA;
lastChange = "2016-11-10 17:39:07 +0000";
layers = (
{
layerId = "C218C3DC-F535-40CE-915C-45F049FE9E78";
paths = (
{
closed = 1;
nodes = (
"940 -18 OFFCURVE",
"1128 118 OFFCURVE",
"1128 377 CURVE SMOOTH",
"1128 461 OFFCURVE",
"1114 527 OFFCURVE",
"1085 575 CURVE SMOOTH",
"1027 670 OFFCURVE",
"938 709 OFFCURVE",
"686 709 CURVE SMOOTH",
"575 709 LINE SMOOTH",
"382 709 OFFCURVE",
"279 801 OFFCURVE",
"279 969 CURVE SMOOTH",
"279 1130 OFFCURVE",
"400 1221 OFFCURVE",
"608 1221 CURVE SMOOTH",
"637 1221 LINE",
"602 1174 OFFCURVE",
"584 1118 OFFCURVE",
"584 1053 CURVE SMOOTH",
"584 906 OFFCURVE",
"684 811 OFFCURVE",
"825 811 CURVE SMOOTH",
"966 811 OFFCURVE",
"1053 907 OFFCURVE",
"1053 1063 CURVE SMOOTH",
"1053 1125 OFFCURVE",
"1035 1180 OFFCURVE",
"1000 1227 CURVE SMOOTH",
"928 1322 OFFCURVE",
"793 1376 OFFCURVE",
"604 1376 CURVE SMOOTH",
"315 1376 OFFCURVE",
"131 1220 OFFCURVE",
"131 971 CURVE SMOOTH",
"131 715 OFFCURVE",
"288 571 OFFCURVE",
"575 571 CURVE SMOOTH",
"686 571 LINE SMOOTH",
"773 571 OFFCURVE",
"835 565 OFFCURVE",
"871 554 CURVE SMOOTH",
"943 530 OFFCURVE",
"971 479 OFFCURVE",
"971 367 CURVE SMOOTH",
"971 226 OFFCURVE",
"826 145 OFFCURVE",
"590 145 CURVE SMOOTH",
"351 145 OFFCURVE",
"231 227 OFFCURVE",
"231 371 CURVE SMOOTH",
"231 408 OFFCURVE",
"246 454 OFFCURVE",
"258 477 CURVE",
"109 526 LINE",
"84 462 OFFCURVE",
"72 407 OFFCURVE",
"72 360 CURVE SMOOTH",
"72 112 OFFCURVE",
"248 -18 OFFCURVE",
"592 -18 CURVE SMOOTH"
);
},
{
closed = 1;
nodes = (
"765 971 OFFCURVE",
"731 1006 OFFCURVE",
"731 1061 CURVE SMOOTH",
"731 1108 OFFCURVE",
"752 1153 OFFCURVE",
"795 1196 CURVE",
"870 1171 OFFCURVE",
"907 1128 OFFCURVE",
"907 1067 CURVE SMOOTH",
"907 1003 OFFCURVE",
"878 971 OFFCURVE",
"821 971 CURVE SMOOTH"
);
}
);
width = 1214;
}
);
note = uniA8BA;
unicode = A8BA;
},
{
glyphname = uniA8BB;
lastChange = "2016-11-10 17:39:07 +0000";
layers = (
{
layerId = "C218C3DC-F535-40CE-915C-45F049FE9E78";
paths = (
{
closed = 1;
nodes = (
"940 -18 OFFCURVE",
"1128 118 OFFCURVE",
"1128 377 CURVE SMOOTH",
"1128 461 OFFCURVE",
"1114 527 OFFCURVE",
"1085 575 CURVE SMOOTH",
"1027 670 OFFCURVE",
"938 709 OFFCURVE",
"686 709 CURVE SMOOTH",
"575 709 LINE SMOOTH",
"382 709 OFFCURVE",
"279 801 OFFCURVE",
"279 969 CURVE SMOOTH",
"279 1130 OFFCURVE",
"400 1221 OFFCURVE",
"608 1221 CURVE SMOOTH",
"637 1221 LINE",
"602 1174 OFFCURVE",
"584 1118 OFFCURVE",
"584 1053 CURVE SMOOTH",
"584 906 OFFCURVE",
"684 811 OFFCURVE",
"825 811 CURVE SMOOTH",
"966 811 OFFCURVE",
"1053 907 OFFCURVE",
"1053 1063 CURVE SMOOTH",
"1053 1124 OFFCURVE",
"1035 1179 OFFCURVE",
"1000 1227 CURVE SMOOTH",
"929 1323 OFFCURVE",
"793 1380 OFFCURVE",
"604 1380 CURVE SMOOTH",
"315 1380 OFFCURVE",
"127 1222 OFFCURVE",
"127 971 CURVE SMOOTH",
"127 716 OFFCURVE",
"287 571 OFFCURVE",
"575 571 CURVE SMOOTH",
"686 571 LINE SMOOTH",
"773 571 OFFCURVE",
"835 565 OFFCURVE",
"871 554 CURVE SMOOTH",
"943 530 OFFCURVE",
"971 479 OFFCURVE",
"971 367 CURVE SMOOTH",
"971 226 OFFCURVE",
"826 145 OFFCURVE",
"590 145 CURVE SMOOTH",
"351 145 OFFCURVE",
"231 227 OFFCURVE",
"231 371 CURVE SMOOTH",
"231 408 OFFCURVE",
"246 454 OFFCURVE",
"258 477 CURVE",
"109 526 LINE",
"84 462 OFFCURVE",
"72 407 OFFCURVE",
"72 360 CURVE SMOOTH",
"72 112 OFFCURVE",
"248 -18 OFFCURVE",
"592 -18 CURVE SMOOTH"
);
},
{
closed = 1;
nodes = (
"577 -348 OFFCURVE",
"637 -320 OFFCURVE",
"692 -292 CURVE SMOOTH",
"747 -264 OFFCURVE",
"796 -236 OFFCURVE",
"856 -236 CURVE SMOOTH",
"924 -236 OFFCURVE",
"967 -266 OFFCURVE",
"1004 -322 CURVE",
"1130 -246 LINE",
"1049 -126 OFFCURVE",
"968 -80 OFFCURVE",
"879 -80 CURVE SMOOTH",
"816 -80 OFFCURVE",
"771 -96 OFFCURVE",
"692 -137 CURVE SMOOTH",
"613 -180 OFFCURVE",
"554 -195 OFFCURVE",
"481 -195 CURVE SMOOTH",
"385 -195 OFFCURVE",
"309 -158 OFFCURVE",
"229 -78 CURVE",
"133 -180 LINE",
"234 -292 OFFCURVE",
"354 -348 OFFCURVE",
"492 -348 CURVE SMOOTH"
);
},
{
closed = 1;
nodes = (
"765 971 OFFCURVE",
"731 1006 OFFCURVE",
"731 1061 CURVE SMOOTH",
"731 1108 OFFCURVE",
"752 1153 OFFCURVE",
"795 1196 CURVE",
"870 1171 OFFCURVE",
"907 1128 OFFCURVE",
"907 1067 CURVE SMOOTH",
"907 1003 OFFCURVE",
"878 971 OFFCURVE",
"821 971 CURVE SMOOTH"
);
}
);
width = 1208;
}
);
note = uniA8BB;
unicode = A8BB;
},
{
glyphname = uniA8BC;
lastChange = "2016-11-10 17:39:07 +0000";
layers = (
{
layerId = "C218C3DC-F535-40CE-915C-45F049FE9E78";
paths = (
{
closed = 1;
nodes = (
"1622 -16 OFFCURVE",
"1724 185 OFFCURVE",
"1724 645 CURVE SMOOTH",
"1724 1122 OFFCURVE",
"1558 1380 OFFCURVE",
"1255 1380 CURVE SMOOTH",
"1098 1380 OFFCURVE",
"979 1313 OFFCURVE",
"899 1178 CURVE",
"831 1306 OFFCURVE",
"700 1380 OFFCURVE",
"539 1380 CURVE SMOOTH",
"254 1380 OFFCURVE",
"88 1135 OFFCURVE",
"88 694 CURVE SMOOTH",
"88 234 OFFCURVE",
"251 -4 OFFCURVE",
"574 -4 CURVE SMOOTH",
"580 -4 LINE",
"567 168 LINE",
"347 168 OFFCURVE",
"244 340 OFFCURVE",
"244 696 CURVE SMOOTH",
"244 1040 OFFCURVE",
"351 1219 OFFCURVE",
"559 1219 CURVE SMOOTH",
"714 1219 OFFCURVE",
"815 1103 OFFCURVE",
"815 911 CURVE SMOOTH",
"815 0 LINE",
"969 0 LINE",
"969 899 LINE SMOOTH",
"969 1102 OFFCURVE",
"1078 1221 OFFCURVE",
"1251 1221 CURVE SMOOTH",
"1464 1221 OFFCURVE",
"1571 1038 OFFCURVE",
"1571 672 CURVE SMOOTH",
"1571 642 OFFCURVE",
"1570 612 OFFCURVE",
"1567 582 CURVE",
"1475 622 OFFCURVE",
"1440 631 OFFCURVE",
"1372 631 CURVE SMOOTH",
"1204 631 OFFCURVE",
"1100 515 OFFCURVE",
"1100 322 CURVE SMOOTH",
"1100 254 OFFCURVE",
"1111 195 OFFCURVE",
"1133 144 CURVE SMOOTH",
"1177 42 OFFCURVE",
"1272 -16 OFFCURVE",
"1391 -16 CURVE SMOOTH"
);
},
{
closed = 1;
nodes = (
"1293 143 OFFCURVE",
"1249 202 OFFCURVE",
"1249 319 CURVE SMOOTH",
"1249 427 OFFCURVE",
"1305 487 OFFCURVE",
"1386 487 CURVE SMOOTH",
"1437 487 OFFCURVE",
"1493 472 OFFCURVE",
"1556 442 CURVE",
"1549 249 OFFCURVE",
"1499 143 OFFCURVE",
"1382 143 CURVE SMOOTH"
);
}
);
width = 1825;
}
);
note = uniA8BC;
unicode = A8BC;
},
{
glyphname = uniA8BD;
lastChange = "2016-11-10 17:39:07 +0000";
layers = (
{
layerId = "C218C3DC-F535-40CE-915C-45F049FE9E78";
paths = (
{
closed = 1;
nodes = (
"1624 -16 OFFCURVE",
"1726 185 OFFCURVE",
"1726 645 CURVE SMOOTH",
"1726 1122 OFFCURVE",
"1560 1380 OFFCURVE",
"1257 1380 CURVE SMOOTH",
"1100 1380 OFFCURVE",
"981 1313 OFFCURVE",
"901 1178 CURVE",
"836 1303 OFFCURVE",
"704 1380 OFFCURVE",
"541 1380 CURVE SMOOTH",
"256 1380 OFFCURVE",
"90 1135 OFFCURVE",
"90 694 CURVE SMOOTH",
"90 234 OFFCURVE",
"253 -4 OFFCURVE",
"576 -4 CURVE SMOOTH",
"582 -4 LINE",
"569 168 LINE",
"349 168 OFFCURVE",
"246 340 OFFCURVE",
"246 696 CURVE SMOOTH",
"246 1040 OFFCURVE",
"353 1219 OFFCURVE",
"561 1219 CURVE SMOOTH",
"716 1219 OFFCURVE",
"817 1103 OFFCURVE",
"817 911 CURVE SMOOTH",
"817 0 LINE",
"971 0 LINE",
"971 899 LINE SMOOTH",
"971 1102 OFFCURVE",
"1080 1221 OFFCURVE",
"1253 1221 CURVE SMOOTH",
"1466 1221 OFFCURVE",
"1573 1038 OFFCURVE",
"1573 672 CURVE SMOOTH",
"1573 642 OFFCURVE",
"1572 612 OFFCURVE",
"1569 582 CURVE",
"1477 622 OFFCURVE",
"1442 631 OFFCURVE",
"1374 631 CURVE SMOOTH",
"1206 631 OFFCURVE",
"1102 515 OFFCURVE",
"1102 322 CURVE SMOOTH",
"1102 254 OFFCURVE",
"1113 195 OFFCURVE",
"1135 144 CURVE SMOOTH",
"1179 42 OFFCURVE",
"1274 -16 OFFCURVE",
"1393 -16 CURVE SMOOTH"
);
},
{
closed = 1;
nodes = (
"859 -358 OFFCURVE",
"945 -327 OFFCURVE",
"1021 -295 CURVE SMOOTH",
"1097 -264 OFFCURVE",
"1165 -233 OFFCURVE",
"1225 -233 CURVE SMOOTH",
"1292 -233 OFFCURVE",
"1329 -264 OFFCURVE",
"1366 -319 CURVE",
"1499 -244 LINE",
"1420 -128 OFFCURVE",
"1345 -90 OFFCURVE",
"1253 -90 CURVE SMOOTH",
"1162 -90 OFFCURVE",
"1093 -120 OFFCURVE",
"1018 -150 CURVE SMOOTH",
"943 -180 OFFCURVE",
"865 -211 OFFCURVE",
"758 -211 CURVE SMOOTH",
"661 -211 OFFCURVE",
"580 -179 OFFCURVE",
"473 -72 CURVE",
"373 -166 LINE",
"488 -294 OFFCURVE",
"618 -358 OFFCURVE",
"762 -358 CURVE SMOOTH"
);
},
{
closed = 1;
nodes = (
"1295 143 OFFCURVE",
"1251 202 OFFCURVE",
"1251 319 CURVE SMOOTH",
"1251 427 OFFCURVE",
"1306 487 OFFCURVE",
"1389 487 CURVE SMOOTH",
"1440 487 OFFCURVE",
"1496 472 OFFCURVE",
"1559 442 CURVE",
"1552 249 OFFCURVE",
"1501 143 OFFCURVE",
"1384 143 CURVE SMOOTH"
);
}
);
width = 1835;
}
);
note = uniA8BD;
unicode = A8BD;
},
{
glyphname = uniA8BE;
lastChange = "2016-11-10 17:37:31 +0000";
layers = (
{
layerId = "C218C3DC-F535-40CE-915C-45F049FE9E78";
paths = (
{
closed = 1;
nodes = (
"427 15 OFFCURVE",
"520 74 OFFCURVE",
"602 157 CURVE SMOOTH",
"766 324 OFFCURVE",
"860 568 OFFCURVE",
"860 840 CURVE SMOOTH",
"860 1192 OFFCURVE",
"709 1382 OFFCURVE",
"432 1382 CURVE SMOOTH",
"354 1382 OFFCURVE",
"286 1365 OFFCURVE",
"229 1331 CURVE SMOOTH",
"113 1262 OFFCURVE",
"51 1134 OFFCURVE",
"51 985 CURVE SMOOTH",
"51 754 OFFCURVE",
"210 590 OFFCURVE",
"446 590 CURVE SMOOTH",
"538 590 OFFCURVE",
"621 609 OFFCURVE",
"696 647 CURVE",
"649 404 OFFCURVE",
"502 234 OFFCURVE",
"256 135 CURVE",
"324 -20 LINE"
);
},
{
closed = 1;
nodes = (
"294 741 OFFCURVE",
"205 833 OFFCURVE",
"205 985 CURVE SMOOTH",
"205 1140 OFFCURVE",
"291 1231 OFFCURVE",
"440 1231 CURVE SMOOTH",
"633 1231 OFFCURVE",
"715 1102 OFFCURVE",
"715 831 CURVE SMOOTH",
"715 821 LINE",
"607 757 OFFCURVE",
"546 741 OFFCURVE",
"446 741 CURVE SMOOTH"
);
}
);
width = 918;
}
);
note = uniA8BE;
unicode = A8BE;
},
{
glyphname = uniA8BF;
lastChange = "2016-11-10 17:39:07 +0000";
layers = (
{
layerId = "C218C3DC-F535-40CE-915C-45F049FE9E78";
paths = (
{
closed = 1;
nodes = (
"687 -23 OFFCURVE",
"764 -4 OFFCURVE",
"835 33 CURVE SMOOTH",
"977 108 OFFCURVE",
"1049 234 OFFCURVE",
"1049 393 CURVE SMOOTH",
"1049 472 OFFCURVE",
"1034 540 OFFCURVE",
"1005 597 CURVE SMOOTH",
"946 711 OFFCURVE",
"821 772 OFFCURVE",
"662 772 CURVE SMOOTH",
"647 772 LINE",
"647 621 LINE",
"672 622 LINE",
"820 622 OFFCURVE",
"897 539 OFFCURVE",
"897 399 CURVE SMOOTH",
"897 343 OFFCURVE",
"884 296 OFFCURVE",
"858 259 CURVE SMOOTH",
"806 184 OFFCURVE",
"715 145 OFFCURVE",
"606 145 CURVE SMOOTH",
"552 145 OFFCURVE",
"503 156 OFFCURVE",
"459 177 CURVE SMOOTH",
"371 220 OFFCURVE",
"317 299 OFFCURVE",
"317 414 CURVE SMOOTH",
"317 642 OFFCURVE",
"454 817 OFFCURVE",
"887 1086 CURVE SMOOTH",
"1085 1212 LINE",
"1034 1364 LINE",
"264 1364 LINE SMOOTH",
"143 1364 OFFCURVE",
"61 1308 OFFCURVE",
"61 1209 CURVE SMOOTH",
"61 1158 OFFCURVE",
"81 1104 OFFCURVE",
"121 1047 CURVE SMOOTH",
"213 915 LINE",
"330 999 LINE",
"246 1120 LINE SMOOTH",
"235 1137 OFFCURVE",
"229 1153 OFFCURVE",
"229 1167 CURVE SMOOTH",
"229 1196 OFFCURVE",
"253 1212 OFFCURVE",
"285 1212 CURVE SMOOTH",
"819 1212 LINE",
"511 1016 OFFCURVE",
"391 914 OFFCURVE",
"303 796 CURVE SMOOTH",
"214 678 OFFCURVE",
"168 554 OFFCURVE",
"168 414 CURVE SMOOTH",
"168 331 OFFCURVE",
"186 257 OFFCURVE",
"222 193 CURVE SMOOTH",
"294 65 OFFCURVE",
"450 -23 OFFCURVE",
"606 -23 CURVE SMOOTH"
);
}
);
width = 1161;
}
);
note = uniA8BF;
unicode = A8BF;
},
{
glyphname = uniA8C0;
lastChange = "2016-11-10 17:39:07 +0000";
layers = (
{
layerId = "C218C3DC-F535-40CE-915C-45F049FE9E78";
paths = (
{
closed = 1;
nodes = (
"489 -10 OFFCURVE",
"565 22 OFFCURVE",
"634 87 CURVE SMOOTH",
"772 216 OFFCURVE",
"854 458 OFFCURVE",
"854 743 CURVE SMOOTH",
"854 1169 OFFCURVE",
"713 1382 OFFCURVE",
"432 1382 CURVE SMOOTH",
"354 1382 OFFCURVE",
"286 1365 OFFCURVE",
"229 1331 CURVE SMOOTH",
"113 1262 OFFCURVE",
"51 1134 OFFCURVE",
"51 985 CURVE SMOOTH",
"51 754 OFFCURVE",
"210 590 OFFCURVE",
"446 590 CURVE SMOOTH",
"539 590 OFFCURVE",
"629 612 OFFCURVE",
"715 657 CURVE",
"708 547 OFFCURVE",
"683 445 OFFCURVE",
"641 352 CURVE",
"549 444 OFFCURVE",
"481 479 OFFCURVE",
"381 479 CURVE SMOOTH",
"240 479 OFFCURVE",
"147 381 OFFCURVE",
"147 233 CURVE SMOOTH",
"147 93 OFFCURVE",
"248 -10 OFFCURVE",
"408 -10 CURVE SMOOTH"
);
},
{
closed = 1;
nodes = (
"337 139 OFFCURVE",
"295 174 OFFCURVE",
"295 233 CURVE SMOOTH",
"295 285 OFFCURVE",
"325 326 OFFCURVE",
"393 326 CURVE SMOOTH",
"444 326 OFFCURVE",
"501 294 OFFCURVE",
"563 229 CURVE",
"514 169 OFFCURVE",
"462 139 OFFCURVE",
"408 139 CURVE SMOOTH"
);
},
{
closed = 1;
nodes = (
"291 741 OFFCURVE",
"203 836 OFFCURVE",
"203 985 CURVE SMOOTH",
"203 1140 OFFCURVE",
"291 1231 OFFCURVE",
"440 1231 CURVE SMOOTH",
"617 1231 OFFCURVE",
"702 1110 OFFCURVE",
"717 823 CURVE",
"624 764 OFFCURVE",
"555 741 OFFCURVE",
"446 741 CURVE SMOOTH"
);
}
);
width = 920;
}
);
note = uniA8C0;
unicode = A8C0;
},
{
glyphname = uniA8C1;
lastChange = "2016-11-10 17:39:07 +0000";
layers = (
{
layerId = "C218C3DC-F535-40CE-915C-45F049FE9E78";
paths = (
{
closed = 1;
nodes = (
"889 -18 LINE",
"874 133 LINE",
"831 129 LINE",
"739 129 OFFCURVE",
"662 193 OFFCURVE",
"583 328 CURVE SMOOTH",
"491 485 OFFCURVE",
"437 549 OFFCURVE",
"369 569 CURVE",
"470 584 OFFCURVE",
"566 620 OFFCURVE",
"657 675 CURVE SMOOTH",
"837 785 OFFCURVE",
"971 965 OFFCURVE",
"971 1116 CURVE SMOOTH",
"971 1167 OFFCURVE",
"961 1212 OFFCURVE",
"940 1249 CURVE SMOOTH",
"899 1323 OFFCURVE",
"821 1364 OFFCURVE",
"733 1364 CURVE SMOOTH",
"311 1364 LINE SMOOTH",
"143 1364 OFFCURVE",
"59 1292 OFFCURVE",
"59 1161 CURVE SMOOTH",
"59 1002 OFFCURVE",
"217 860 OFFCURVE",
"453 791 CURVE",
"496 926 LINE",
"391 959 OFFCURVE",
"318 993 OFFCURVE",
"275 1028 CURVE SMOOTH",
"232 1063 OFFCURVE",
"211 1102 OFFCURVE",
"211 1147 CURVE SMOOTH",
"211 1190 OFFCURVE",
"246 1212 OFFCURVE",
"315 1212 CURVE SMOOTH",
"733 1212 LINE SMOOTH",
"790 1212 OFFCURVE",
"829 1176 OFFCURVE",
"829 1116 CURVE SMOOTH",
"829 1069 OFFCURVE",
"816 1025 OFFCURVE",
"791 985 CURVE SMOOTH",
"666 792 OFFCURVE",
"439 680 OFFCURVE",
"135 676 CURVE",
"135 528 LINE",
"228 528 OFFCURVE",
"296 493 OFFCURVE",
"356 431 CURVE SMOOTH",
"385 400 OFFCURVE",
"426 340 OFFCURVE",
"479 253 CURVE SMOOTH",
"530 168 OFFCURVE",
"572 109 OFFCURVE",
"603 77 CURVE SMOOTH",
"666 13 OFFCURVE",
"738 -23 OFFCURVE",
"838 -23 CURVE"
);
}
);
width = 1038;
}
);
note = uniA8C1;
unicode = A8C1;
},
{
glyphname = uniA8C2;
lastChange = "2016-11-10 17:39:07 +0000";
layers = (
{
layerId = "C218C3DC-F535-40CE-915C-45F049FE9E78";
paths = (
{
closed = 1;
nodes = (
"1030 -18 OFFCURVE",
"1137 26 OFFCURVE",
"1270 127 CURVE",
"1270 1364 LINE",
"1120 1364 LINE",
"1120 219 LINE",
"1050 166 OFFCURVE",
"967 139 OFFCURVE",
"870 139 CURVE SMOOTH",
"767 139 OFFCURVE",
"673 203 OFFCURVE",
"588 332 CURVE SMOOTH",
"535 411 OFFCURVE",
"494 468 OFFCURVE",
"463 502 CURVE SMOOTH",
"432 536 OFFCURVE",
"401 558 OFFCURVE",
"369 569 CURVE",
"470 584 OFFCURVE",
"566 620 OFFCURVE",
"657 675 CURVE SMOOTH",
"837 785 OFFCURVE",
"971 965 OFFCURVE",
"971 1116 CURVE SMOOTH",
"971 1167 OFFCURVE",
"961 1212 OFFCURVE",
"940 1249 CURVE SMOOTH",
"899 1323 OFFCURVE",
"821 1364 OFFCURVE",
"733 1364 CURVE SMOOTH",
"311 1364 LINE SMOOTH",
"143 1364 OFFCURVE",
"59 1292 OFFCURVE",
"59 1161 CURVE SMOOTH",
"59 1005 OFFCURVE",
"210 864 OFFCURVE",
"449 795 CURVE",
"496 926 LINE",
"395 959 OFFCURVE",
"322 993 OFFCURVE",
"278 1028 CURVE SMOOTH",
"233 1063 OFFCURVE",
"211 1103 OFFCURVE",
"211 1147 CURVE SMOOTH",
"211 1190 OFFCURVE",
"246 1212 OFFCURVE",
"315 1212 CURVE SMOOTH",
"733 1212 LINE SMOOTH",
"790 1212 OFFCURVE",
"829 1176 OFFCURVE",
"829 1116 CURVE SMOOTH",
"829 1069 OFFCURVE",
"816 1025 OFFCURVE",
"791 985 CURVE SMOOTH",
"666 792 OFFCURVE",
"439 680 OFFCURVE",
"135 676 CURVE",
"135 528 LINE",
"214 525 OFFCURVE",
"276 489 OFFCURVE",
"331 438 CURVE SMOOTH",
"386 386 OFFCURVE",
"433 318 OFFCURVE",
"482 251 CURVE SMOOTH",
"531 183 OFFCURVE",
"582 116 OFFCURVE",
"645 66 CURVE SMOOTH",
"708 16 OFFCURVE",
"782 -18 OFFCURVE",
"877 -18 CURVE SMOOTH"
);
}
);
width = 1376;
}
);
note = uniA8C2;
unicode = A8C2;
},
{
glyphname = uniA8C3;
lastChange = "2016-11-10 17:39:07 +0000";
layers = (
{
layerId = "C218C3DC-F535-40CE-915C-45F049FE9E78";
paths = (
{
closed = 1;
nodes = (
"714 -18 OFFCURVE",
"770 42 OFFCURVE",
"770 233 CURVE SMOOTH",
"770 643 LINE",
"1044 750 LINE",
"1044 270 LINE SMOOTH",
"1044 95 OFFCURVE",
"1156 -18 OFFCURVE",
"1321 -18 CURVE SMOOTH",
"1429 -18 OFFCURVE",
"1498 17 OFFCURVE",
"1567 94 CURVE",
"1458 215 LINE",
"1405 160 OFFCURVE",
"1366 143 OFFCURVE",
"1321 143 CURVE SMOOTH",
"1245 143 OFFCURVE",
"1190 201 OFFCURVE",
"1190 281 CURVE SMOOTH",
"1190 805 LINE",
"1331 860 LINE SMOOTH",
"1492 924 OFFCURVE",
"1554 1001 OFFCURVE",
"1554 1128 CURVE SMOOTH",
"1554 1268 OFFCURVE",
"1454 1376 OFFCURVE",
"1311 1376 CURVE SMOOTH",
"1135 1376 OFFCURVE",
"1044 1288 OFFCURVE",
"1044 1075 CURVE SMOOTH",
"1044 895 LINE",
"770 786 LINE",
"770 1061 LINE SMOOTH",
"770 1263 OFFCURVE",
"685 1364 OFFCURVE",
"516 1364 CURVE SMOOTH",
"311 1364 LINE SMOOTH",
"166 1364 OFFCURVE",
"86 1291 OFFCURVE",
"86 1171 CURVE SMOOTH",
"86 1128 OFFCURVE",
"100 1085 OFFCURVE",
"127 1040 CURVE SMOOTH",
"181 950 OFFCURVE",
"307 850 OFFCURVE",
"416 803 CURVE",
"477 942 LINE",
"340 998 OFFCURVE",
"238 1086 OFFCURVE",
"238 1159 CURVE SMOOTH",
"238 1196 OFFCURVE",
"266 1219 OFFCURVE",
"311 1219 CURVE SMOOTH",
"516 1219 LINE SMOOTH",
"589 1219 OFFCURVE",
"625 1170 OFFCURVE",
"625 1071 CURVE SMOOTH",
"625 729 LINE",
"356 625 LINE SMOOTH",
"217 570 OFFCURVE",
"176 524 OFFCURVE",
"176 440 CURVE SMOOTH",
"176 389 OFFCURVE",
"200 328 OFFCURVE",
"248 256 CURVE SMOOTH",
"344 111 OFFCURVE",
"503 -18 OFFCURVE",
"590 -18 CURVE SMOOTH"
);
},
{
closed = 1;
nodes = (
"559 143 OFFCURVE",
"528 161 OFFCURVE",
"485 196 CURVE SMOOTH",
"400 266 OFFCURVE",
"332 355 OFFCURVE",
"332 408 CURVE SMOOTH",
"332 460 OFFCURVE",
"354 483 OFFCURVE",
"422 508 CURVE SMOOTH",
"625 586 LINE",
"625 219 LINE",
"622 166 OFFCURVE",
"610 143 OFFCURVE",
"578 143 CURVE SMOOTH"
);
},
{
closed = 1;
nodes = (
"1190 1085 LINE SMOOTH",
"1190 1176 OFFCURVE",
"1229 1221 OFFCURVE",
"1307 1221 CURVE SMOOTH",
"1367 1221 OFFCURVE",
"1403 1178 OFFCURVE",
"1403 1122 CURVE SMOOTH",
"1403 1064 OFFCURVE",
"1359 1018 OFFCURVE",
"1270 983 CURVE SMOOTH",
"1190 952 LINE"
);
}
);
width = 1608;
}
);
note = uniA8C3;
unicode = A8C3;
},
{
glyphname = uniA8C4;
lastChange = "2016-11-10 17:39:07 +0000";
layers = (
{
layerId = "C218C3DC-F535-40CE-915C-45F049FE9E78";
paths = (
{
closed = 1;
nodes = (
"-399 -385 LINE",
"-780 -115 LINE",
"-864 -221 LINE",
"-508 -524 LINE"
);
}
);
width = 0;
}
);
note = uniA8C4;
unicode = A8C4;
},
{
glyphname = uniA8CE;
lastChange = "2016-11-10 17:39:07 +0000";
layers = (
{
layerId = "C218C3DC-F535-40CE-915C-45F049FE9E78";
paths = (
{
closed = 1;
nodes = (
"307 -41 LINE",
"307 1405 LINE",
"158 1405 LINE",
"158 -41 LINE"
);
}
);
width = 494;
}
);
note = uniA8CE;
unicode = A8CE;
},
{
glyphname = uniA8CF;
lastChange = "2016-11-10 17:39:07 +0000";
layers = (
{
layerId = "C218C3DC-F535-40CE-915C-45F049FE9E78";
paths = (
{
closed = 1;
nodes = (
"696 -41 LINE",
"696 1405 LINE",
"547 1405 LINE",
"547 -41 LINE"
);
},
{
closed = 1;
nodes = (
"307 -41 LINE",
"307 1405 LINE",
"158 1405 LINE",
"158 -41 LINE"
);
}
);
width = 915;
}
);
note = uniA8CF;
unicode = A8CF;
},
{
glyphname = uniA8D0;
lastChange = "2016-11-10 17:39:07 +0000";
layers = (
{
layerId = "C218C3DC-F535-40CE-915C-45F049FE9E78";
paths = (
{
closed = 1;
nodes = (
"887 -18 OFFCURVE",
"1059 223 OFFCURVE",
"1059 670 CURVE SMOOTH",
"1059 1118 OFFCURVE",
"883 1376 OFFCURVE",
"575 1376 CURVE SMOOTH",
"271 1376 OFFCURVE",
"94 1121 OFFCURVE",
"94 670 CURVE SMOOTH",
"94 238 OFFCURVE",
"271 -18 OFFCURVE",
"575 -18 CURVE SMOOTH"
);
},
{
closed = 1;
nodes = (
"356 152 OFFCURVE",
"248 311 OFFCURVE",
"248 670 CURVE SMOOTH",
"248 1035 OFFCURVE",
"357 1217 OFFCURVE",
"575 1217 CURVE SMOOTH",
"795 1217 OFFCURVE",
"905 1035 OFFCURVE",
"905 670 CURVE SMOOTH",
"905 311 OFFCURVE",
"796 152 OFFCURVE",
"575 152 CURVE SMOOTH"
);
}
);
width = 1161;
}
);
note = uniA8D0;
unicode = A8D0;
},
{
glyphname = uniA8D1;
lastChange = "2016-11-10 17:39:07 +0000";
layers = (
{
layerId = "C218C3DC-F535-40CE-915C-45F049FE9E78";
paths = (
{
closed = 1;
nodes = (
"535 121 LINE",
"479 133 OFFCURVE",
"432 174 OFFCURVE",
"432 225 CURVE SMOOTH",
"432 251 OFFCURVE",
"445 289 OFFCURVE",
"472 338 CURVE SMOOTH",
"499 387 OFFCURVE",
"547 469 OFFCURVE",
"618 586 CURVE SMOOTH",
"711 740 OFFCURVE",
"758 872 OFFCURVE",
"758 983 CURVE SMOOTH",
"758 1070 OFFCURVE",
"744 1143 OFFCURVE",
"715 1202 CURVE SMOOTH",
"657 1321 OFFCURVE",
"552 1382 OFFCURVE",
"416 1382 CURVE SMOOTH",
"201 1382 OFFCURVE",
"59 1233 OFFCURVE",
"59 1012 CURVE SMOOTH",
"59 788 OFFCURVE",
"195 649 OFFCURVE",
"412 649 CURVE SMOOTH",
"439 649 OFFCURVE",
"467 651 OFFCURVE",
"494 655 CURVE",
"465 605 OFFCURVE",
"438 563 OFFCURVE",
"414 528 CURVE SMOOTH",
"330 397 OFFCURVE",
"270 293 OFFCURVE",
"270 205 CURVE SMOOTH",
"270 87 OFFCURVE",
"339 10 OFFCURVE",
"477 -27 CURVE"
);
},
{
closed = 1;
nodes = (
"281 795 OFFCURVE",
"211 867 OFFCURVE",
"211 1012 CURVE SMOOTH",
"211 1149 OFFCURVE",
"282 1221 OFFCURVE",
"410 1221 CURVE SMOOTH",
"542 1221 OFFCURVE",
"612 1142 OFFCURVE",
"612 993 CURVE SMOOTH",
"612 941 OFFCURVE",
"600 883 OFFCURVE",
"575 819 CURVE",
"536 803 OFFCURVE",
"480 795 OFFCURVE",
"406 795 CURVE SMOOTH"
);
}
);
width = 860;
}
);
note = uniA8D1;
unicode = A8D1;
},
{
glyphname = uniA8D2;
lastChange = "2016-11-10 17:39:07 +0000";
layers = (
{
layerId = "C218C3DC-F535-40CE-915C-45F049FE9E78";
paths = (
{
closed = 1;
nodes = (
"823 23 LINE",
"809 182 LINE",
"750 178 LINE",
"711 178 OFFCURVE",
"676 185 OFFCURVE",
"647 199 CURVE SMOOTH",
"588 227 OFFCURVE",
"550 264 OFFCURVE",
"467 401 CURVE SMOOTH",
"424 472 OFFCURVE",
"385 524 OFFCURVE",
"350 555 CURVE",
"419 551 LINE",
"672 551 OFFCURVE",
"836 720 OFFCURVE",
"836 977 CURVE SMOOTH",
"836 1049 OFFCURVE",
"820 1117 OFFCURVE",
"787 1180 CURVE SMOOTH",
"721 1306 OFFCURVE",
"599 1382 OFFCURVE",
"444 1382 CURVE SMOOTH",
"296 1382 OFFCURVE",
"173 1338 OFFCURVE",
"57 1229 CURVE",
"164 1100 LINE",
"284 1199 OFFCURVE",
"336 1217 OFFCURVE",
"451 1217 CURVE SMOOTH",
"595 1217 OFFCURVE",
"684 1122 OFFCURVE",
"684 973 CURVE SMOOTH",
"684 800 OFFCURVE",
"565 693 OFFCURVE",
"361 693 CURVE SMOOTH",
"308 693 OFFCURVE",
"250 701 OFFCURVE",
"188 717 CURVE",
"139 573 LINE",
"181 549 OFFCURVE",
"217 519 OFFCURVE",
"246 482 CURVE SMOOTH",
"304 409 OFFCURVE",
"350 325 OFFCURVE",
"398 242 CURVE SMOOTH",
"422 201 OFFCURVE",
"450 163 OFFCURVE",
"482 130 CURVE SMOOTH",
"545 63 OFFCURVE",
"628 18 OFFCURVE",
"756 18 CURVE"
);
}
);
width = 918;
}
);
note = uniA8D2;
unicode = A8D2;
},
{
glyphname = uniA8D3;
lastChange = "2016-11-10 17:39:07 +0000";
layers = (
{
layerId = "C218C3DC-F535-40CE-915C-45F049FE9E78";
paths = (
{
closed = 1;
nodes = (
"581 -16 OFFCURVE",
"654 1 OFFCURVE",
"720 36 CURVE SMOOTH",
"852 104 OFFCURVE",
"932 231 OFFCURVE",
"932 399 CURVE SMOOTH",
"932 603 OFFCURVE",
"841 731 OFFCURVE",
"672 770 CURVE",
"787 813 OFFCURVE",
"856 917 OFFCURVE",
"856 1042 CURVE SMOOTH",
"856 1261 OFFCURVE",
"731 1386 OFFCURVE",
"520 1386 CURVE SMOOTH",
"407 1386 OFFCURVE",
"303 1349 OFFCURVE",
"209 1276 CURVE",
"303 1141 LINE",
"373 1196 OFFCURVE",
"447 1223 OFFCURVE",
"526 1223 CURVE SMOOTH",
"649 1223 OFFCURVE",
"707 1158 OFFCURVE",
"707 1042 CURVE SMOOTH",
"707 917 OFFCURVE",
"603 834 OFFCURVE",
"434 834 CURVE",
"434 694 LINE",
"468 695 LINE SMOOTH",
"677 695 OFFCURVE",
"784 590 OFFCURVE",
"784 406 CURVE SMOOTH",
"784 351 OFFCURVE",
"771 304 OFFCURVE",
"746 265 CURVE SMOOTH",
"695 186 OFFCURVE",
"603 143 OFFCURVE",
"496 143 CURVE SMOOTH",
"312 143 OFFCURVE",
"219 217 OFFCURVE",
"219 346 CURVE SMOOTH",
"219 413 OFFCURVE",
"265 466 OFFCURVE",
"336 469 CURVE",
"336 623 LINE",
"282 621 OFFCURVE",
"236 608 OFFCURVE",
"198 584 CURVE SMOOTH",
"121 536 OFFCURVE",
"76 448 OFFCURVE",
"76 352 CURVE SMOOTH",
"76 278 OFFCURVE",
"92 214 OFFCURVE",
"125 159 CURVE SMOOTH",
"190 50 OFFCURVE",
"333 -16 OFFCURVE",
"502 -16 CURVE SMOOTH"
);
}
);
width = 1010;
}
);
note = uniA8D3;
unicode = A8D3;
},
{
glyphname = uniA8D4;
lastChange = "2016-11-10 17:39:07 +0000";
layers = (
{
layerId = "C218C3DC-F535-40CE-915C-45F049FE9E78";
paths = (
{
closed = 1;
nodes = (
"587 -18 OFFCURVE",
"661 0 OFFCURVE",
"732 37 CURVE SMOOTH",
"875 109 OFFCURVE",
"942 232 OFFCURVE",
"942 389 CURVE SMOOTH",
"942 560 OFFCURVE",
"844 695 OFFCURVE",
"657 778 CURVE",
"733 813 OFFCURVE",
"790 846 OFFCURVE",
"827 877 CURVE SMOOTH",
"902 938 OFFCURVE",
"942 1012 OFFCURVE",
"942 1104 CURVE SMOOTH",
"942 1217 OFFCURVE",
"881 1315 OFFCURVE",
"770 1380 CURVE",
"672 1272 LINE",
"748 1225 OFFCURVE",
"791 1180 OFFCURVE",
"791 1096 CURVE SMOOTH",
"791 1027 OFFCURVE",
"750 973 OFFCURVE",
"681 927 CURVE SMOOTH",
"646 904 OFFCURVE",
"589 875 OFFCURVE",
"508 842 CURVE",
"307 918 OFFCURVE",
"227 999 OFFCURVE",
"227 1096 CURVE SMOOTH",
"227 1180 OFFCURVE",
"270 1225 OFFCURVE",
"346 1272 CURVE",
"248 1380 LINE",
"136 1315 OFFCURVE",
"76 1217 OFFCURVE",
"76 1104 CURVE SMOOTH",
"76 973 OFFCURVE",
"146 878 OFFCURVE",
"358 778 CURVE",
"177 698 OFFCURVE",
"76 560 OFFCURVE",
"76 389 CURVE SMOOTH",
"76 310 OFFCURVE",
"93 241 OFFCURVE",
"127 181 CURVE SMOOTH",
"195 60 OFFCURVE",
"349 -18 OFFCURVE",
"510 -18 CURVE SMOOTH"
);
},
{
closed = 1;
nodes = (
"451 141 OFFCURVE",
"400 151 OFFCURVE",
"353 172 CURVE SMOOTH",
"260 213 OFFCURVE",
"213 294 OFFCURVE",
"213 399 CURVE SMOOTH",
"213 519 OFFCURVE",
"297 625 OFFCURVE",
"508 717 CURVE",
"720 630 OFFCURVE",
"803 533 OFFCURVE",
"803 410 CURVE SMOOTH",
"803 354 OFFCURVE",
"792 306 OFFCURVE",
"769 267 CURVE SMOOTH",
"723 188 OFFCURVE",
"623 141 OFFCURVE",
"508 141 CURVE SMOOTH"
);
}
);
width = 1047;
}
);
note = uniA8D4;
unicode = A8D4;
},
{
glyphname = uniA8D5;
lastChange = "2016-11-10 17:39:07 +0000";
layers = (
{
layerId = "C218C3DC-F535-40CE-915C-45F049FE9E78";
paths = (
{
closed = 1;
nodes = (
"990 -19 OFFCURVE",
"1112 126 OFFCURVE",
"1112 385 CURVE SMOOTH",
"1112 649 OFFCURVE",
"996 791 OFFCURVE",
"795 791 CURVE SMOOTH",
"770 791 OFFCURVE",
"737 785 OFFCURVE",
"696 772 CURVE",
"952 1313 LINE",
"829 1380 LINE",
"510 705 LINE",
"467 691 OFFCURVE",
"429 684 OFFCURVE",
"397 684 CURVE SMOOTH",
"297 684 OFFCURVE",
"238 786 OFFCURVE",
"238 950 CURVE SMOOTH",
"238 1125 OFFCURVE",
"313 1212 OFFCURVE",
"463 1212 CURVE",
"463 1376 LINE",
"456 1376 LINE SMOOTH",
"225 1376 OFFCURVE",
"94 1221 OFFCURVE",
"94 950 CURVE SMOOTH",
"94 694 OFFCURVE",
"208 543 OFFCURVE",
"397 543 CURVE SMOOTH",
"416 543 LINE",
"434 545 LINE",
"215 84 LINE",
"336 14 LINE",
"616 604 LINE",
"679 627 OFFCURVE",
"739 649 OFFCURVE",
"795 649 CURVE SMOOTH",
"899 649 OFFCURVE",
"965 554 OFFCURVE",
"965 385 CURVE SMOOTH",
"965 327 OFFCURVE",
"957 281 OFFCURVE",
"941 248 CURVE SMOOTH",
"909 180 OFFCURVE",
"861 148 OFFCURVE",
"752 145 CURVE",
"752 -18 LINE",
"774 -19 LINE"
);
}
);
width = 1210;
}
);
note = uniA8D5;
unicode = A8D5;
},
{
glyphname = uniA8D6;
lastChange = "2016-11-10 17:39:07 +0000";
layers = (
{
layerId = "C218C3DC-F535-40CE-915C-45F049FE9E78";
paths = (
{
closed = 1;
nodes = (
"652 -18 OFFCURVE",
"783 58 OFFCURVE",
"866 190 CURVE",
"752 291 LINE",
"683 190 OFFCURVE",
"596 139 OFFCURVE",
"489 139 CURVE SMOOTH",
"310 139 OFFCURVE",
"221 236 OFFCURVE",
"221 430 CURVE SMOOTH",
"221 618 OFFCURVE",
"323 721 OFFCURVE",
"528 721 CURVE SMOOTH",
"537 721 LINE",
"537 852 LINE",
"322 852 OFFCURVE",
"215 919 OFFCURVE",
"215 1053 CURVE SMOOTH",
"215 1161 OFFCURVE",
"304 1223 OFFCURVE",
"483 1223 CURVE SMOOTH",
"631 1223 OFFCURVE",
"705 1182 OFFCURVE",
"705 1100 CURVE SMOOTH",
"705 1059 OFFCURVE",
"690 1034 OFFCURVE",
"645 995 CURVE",
"752 887 LINE",
"816 938 OFFCURVE",
"856 1021 OFFCURVE",
"856 1092 CURVE SMOOTH",
"856 1280 OFFCURVE",
"721 1372 OFFCURVE",
"473 1372 CURVE SMOOTH",
"224 1372 OFFCURVE",
"68 1254 OFFCURVE",
"68 1055 CURVE SMOOTH",
"68 904 OFFCURVE",
"161 807 OFFCURVE",
"322 780 CURVE",
"157 741 OFFCURVE",
"74 623 OFFCURVE",
"74 426 CURVE SMOOTH",
"74 330 OFFCURVE",
"91 249 OFFCURVE",
"126 183 CURVE SMOOTH",
"194 51 OFFCURVE",
"323 -18 OFFCURVE",
"492 -18 CURVE SMOOTH"
);
}
);
width = 967;
}
);
note = uniA8D6;
unicode = A8D6;
},
{
glyphname = uniA8D7;
lastChange = "2016-11-10 17:39:07 +0000";
layers = (
{
layerId = "C218C3DC-F535-40CE-915C-45F049FE9E78";
paths = (
{
closed = 1;
nodes = (
"670 -20 OFFCURVE",
"748 36 OFFCURVE",
"830 148 CURVE SMOOTH",
"994 372 OFFCURVE",
"1124 767 OFFCURVE",
"1124 1022 CURVE SMOOTH",
"1124 1242 OFFCURVE",
"1023 1376 OFFCURVE",
"860 1376 CURVE SMOOTH",
"685 1376 OFFCURVE",
"575 1245 OFFCURVE",
"575 1038 CURVE SMOOTH",
"575 980 OFFCURVE",
"587 927 OFFCURVE",
"610 878 CURVE SMOOTH",
"656 780 OFFCURVE",
"741 723 OFFCURVE",
"854 723 CURVE SMOOTH",
"882 723 OFFCURVE",
"909 726 OFFCURVE",
"936 733 CURVE",
"879 518 OFFCURVE",
"787 322 OFFCURVE",
"706 224 CURVE SMOOTH",
"665 175 OFFCURVE",
"629 150 OFFCURVE",
"596 150 CURVE SMOOTH",
"548 150 OFFCURVE",
"495 194 OFFCURVE",
"437 283 CURVE SMOOTH",
"320 459 OFFCURVE",
"225 769 OFFCURVE",
"225 985 CURVE SMOOTH",
"225 1116 OFFCURVE",
"250 1256 OFFCURVE",
"287 1333 CURVE",
"133 1382 LINE",
"92 1281 OFFCURVE",
"72 1148 OFFCURVE",
"72 985 CURVE SMOOTH",
"72 854 OFFCURVE",
"100 706 OFFCURVE",
"156 543 CURVE SMOOTH",
"268 216 OFFCURVE",
"445 -20 OFFCURVE",
"596 -20 CURVE SMOOTH"
);
},
{
closed = 1;
nodes = (
"766 868 OFFCURVE",
"719 926 OFFCURVE",
"719 1042 CURVE SMOOTH",
"719 1162 OFFCURVE",
"760 1221 OFFCURVE",
"856 1221 CURVE SMOOTH",
"937 1221 OFFCURVE",
"981 1157 OFFCURVE",
"981 1034 CURVE SMOOTH",
"981 992 OFFCURVE",
"978 948 OFFCURVE",
"971 901 CURVE",
"934 879 OFFCURVE",
"897 868 OFFCURVE",
"860 868 CURVE SMOOTH"
);
}
);
width = 1202;
}
);
note = uniA8D7;
unicode = A8D7;
},
{
glyphname = uniA8D8;
lastChange = "2016-11-10 17:39:07 +0000";
layers = (
{
layerId = "C218C3DC-F535-40CE-915C-45F049FE9E78";
paths = (
{
closed = 1;
nodes = (
"1104 82 OFFCURVE",
"1124 214 OFFCURVE",
"1124 377 CURVE SMOOTH",
"1124 508 OFFCURVE",
"1096 656 OFFCURVE",
"1040 819 CURVE SMOOTH",
"928 1146 OFFCURVE",
"751 1382 OFFCURVE",
"600 1382 CURVE SMOOTH",
"526 1382 OFFCURVE",
"448 1326 OFFCURVE",
"366 1214 CURVE SMOOTH",
"202 990 OFFCURVE",
"72 595 OFFCURVE",
"72 340 CURVE SMOOTH",
"72 120 OFFCURVE",
"173 -14 OFFCURVE",
"336 -14 CURVE SMOOTH",
"511 -14 OFFCURVE",
"621 117 OFFCURVE",
"621 324 CURVE SMOOTH",
"621 382 OFFCURVE",
"610 436 OFFCURVE",
"587 485 CURVE SMOOTH",
"541 583 OFFCURVE",
"455 639 OFFCURVE",
"342 639 CURVE SMOOTH",
"314 639 OFFCURVE",
"287 635 OFFCURVE",
"260 627 CURVE",
"337 931 OFFCURVE",
"492 1212 OFFCURVE",
"600 1212 CURVE SMOOTH",
"648 1212 OFFCURVE",
"701 1168 OFFCURVE",
"760 1080 CURVE SMOOTH",
"876 904 OFFCURVE",
"971 593 OFFCURVE",
"971 377 CURVE SMOOTH",
"971 248 OFFCURVE",
"946 106 OFFCURVE",
"909 29 CURVE",
"1063 -20 LINE"
);
},
{
closed = 1;
nodes = (
"257 141 OFFCURVE",
"215 203 OFFCURVE",
"215 328 CURVE SMOOTH",
"215 378 OFFCURVE",
"218 422 OFFCURVE",
"225 461 CURVE",
"266 483 OFFCURVE",
"303 494 OFFCURVE",
"336 494 CURVE SMOOTH",
"430 494 OFFCURVE",
"477 436 OFFCURVE",
"477 319 CURVE SMOOTH",
"477 200 OFFCURVE",
"436 141 OFFCURVE",
"340 141 CURVE SMOOTH"
);
}
);
width = 1206;
}
);
note = uniA8D8;
unicode = A8D8;
},
{
glyphname = uniA8D9;
lastChange = "2016-11-10 17:39:07 +0000";
layers = (
{
layerId = "C218C3DC-F535-40CE-915C-45F049FE9E78";
paths = (
{
closed = 1;
nodes = (
"585 -18 OFFCURVE",
"654 1 OFFCURVE",
"720 38 CURVE SMOOTH",
"852 112 OFFCURVE",
"924 238 OFFCURVE",
"924 391 CURVE SMOOTH",
"924 512 OFFCURVE",
"873 612 OFFCURVE",
"774 668 CURVE",
"944 745 LINE",
"944 901 LINE",
"399 655 LINE",
"399 500 LINE",
"612 596 LINE",
"703 591 OFFCURVE",
"778 504 OFFCURVE",
"778 391 CURVE SMOOTH",
"778 340 OFFCURVE",
"766 297 OFFCURVE",
"742 260 CURVE SMOOTH",
"693 187 OFFCURVE",
"608 145 OFFCURVE",
"512 145 CURVE SMOOTH",
"339 145 OFFCURVE",
"221 247 OFFCURVE",
"221 408 CURVE SMOOTH",
"221 511 OFFCURVE",
"256 611 OFFCURVE",
"340 752 CURVE SMOOTH",
"423 889 OFFCURVE",
"459 989 OFFCURVE",
"459 1094 CURVE SMOOTH",
"459 1215 OFFCURVE",
"399 1317 OFFCURVE",
"303 1386 CURVE",
"201 1276 LINE",
"278 1221 OFFCURVE",
"317 1160 OFFCURVE",
"317 1094 CURVE SMOOTH",
"317 1001 OFFCURVE",
"287 920 OFFCURVE",
"198 771 CURVE SMOOTH",
"113 628 OFFCURVE",
"78 524 OFFCURVE",
"78 408 CURVE SMOOTH",
"78 322 OFFCURVE",
"97 247 OFFCURVE",
"134 184 CURVE SMOOTH",
"208 56 OFFCURVE",
"355 -18 OFFCURVE",
"512 -18 CURVE SMOOTH"
);
}
);
width = 1038;
}
);
note = uniA8D9;
unicode = A8D9;
},
{
glyphname = uni25CC;
lastChange = "2016-11-10 17:39:07 +0000";
layers = (
{
layerId = "C218C3DC-F535-40CE-915C-45F049FE9E78";
paths = (
{
closed = 1;
nodes = (
"324 864 OFFCURVE",
"342 882 OFFCURVE",
"342 918 CURVE SMOOTH",
"342 955 OFFCURVE",
"324 973 OFFCURVE",
"287 973 CURVE SMOOTH",
"251 973 OFFCURVE",
"233 954 OFFCURVE",
"233 915 CURVE SMOOTH",
"233 881 OFFCURVE",
"251 864 OFFCURVE",
"287 864 CURVE SMOOTH"
);
},
{
closed = 1;
nodes = (
"324 219 OFFCURVE",
"342 237 OFFCURVE",
"342 272 CURVE SMOOTH",
"342 309 OFFCURVE",
"324 328 OFFCURVE",
"287 328 CURVE SMOOTH",
"251 328 OFFCURVE",
"233 309 OFFCURVE",
"233 272 CURVE SMOOTH",
"233 237 OFFCURVE",
"251 219 OFFCURVE",
"287 219 CURVE SMOOTH"
);
},
{
closed = 1;
nodes = (
"224 369 OFFCURVE",
"242 387 OFFCURVE",
"242 422 CURVE SMOOTH",
"242 459 OFFCURVE",
"224 477 OFFCURVE",
"188 477 CURVE SMOOTH",
"151 477 OFFCURVE",
"133 459 OFFCURVE",
"133 422 CURVE SMOOTH",
"133 387 OFFCURVE",
"151 369 OFFCURVE",
"188 369 CURVE SMOOTH"
);
},
{
closed = 1;
nodes = (
"471 123 OFFCURVE",
"489 141 OFFCURVE",
"489 178 CURVE SMOOTH",
"489 212 OFFCURVE",
"471 229 OFFCURVE",
"434 229 CURVE SMOOTH",
"399 229 OFFCURVE",
"381 211 OFFCURVE",
"381 174 CURVE SMOOTH",
"381 140 OFFCURVE",
"399 123 OFFCURVE",
"434 123 CURVE SMOOTH"
);
},
{
closed = 1;
nodes = (
"189 543 OFFCURVE",
"207 561 OFFCURVE",
"207 596 CURVE SMOOTH",
"207 631 OFFCURVE",
"189 649 OFFCURVE",
"154 649 CURVE SMOOTH",
"117 649 OFFCURVE",
"98 631 OFFCURVE",
"98 596 CURVE SMOOTH",
"98 561 OFFCURVE",
"117 543 OFFCURVE",
"154 543 CURVE SMOOTH"
);
},
{
closed = 1;
nodes = (
"644 86 OFFCURVE",
"662 104 OFFCURVE",
"662 141 CURVE SMOOTH",
"662 177 OFFCURVE",
"644 195 OFFCURVE",
"608 195 CURVE SMOOTH",
"573 195 OFFCURVE",
"555 177 OFFCURVE",
"555 141 CURVE SMOOTH",
"555 104 OFFCURVE",
"573 86 OFFCURVE",
"608 86 CURVE SMOOTH"
);
},
{
closed = 1;
nodes = (
"225 715 OFFCURVE",
"242 733 OFFCURVE",
"242 770 CURVE SMOOTH",
"242 805 OFFCURVE",
"224 823 OFFCURVE",
"188 823 CURVE SMOOTH",
"151 823 OFFCURVE",
"133 805 OFFCURVE",
"133 770 CURVE SMOOTH",
"133 733 OFFCURVE",
"152 715 OFFCURVE",
"190 715 CURVE SMOOTH"
);
},
{
closed = 1;
nodes = (
"819 123 OFFCURVE",
"836 140 OFFCURVE",
"836 174 CURVE SMOOTH",
"836 211 OFFCURVE",
"819 229 OFFCURVE",
"784 229 CURVE SMOOTH",
"746 229 OFFCURVE",
"727 211 OFFCURVE",
"727 174 CURVE SMOOTH",
"727 140 OFFCURVE",
"746 123 OFFCURVE",
"784 123 CURVE SMOOTH"
);
},
{
closed = 1;
nodes = (
"966 219 OFFCURVE",
"983 237 OFFCURVE",
"983 272 CURVE SMOOTH",
"983 309 OFFCURVE",
"966 328 OFFCURVE",
"932 328 CURVE SMOOTH",
"895 328 OFFCURVE",
"877 309 OFFCURVE",
"877 272 CURVE SMOOTH",
"877 237 OFFCURVE",
"895 219 OFFCURVE",
"932 219 CURVE SMOOTH"
);
},
{
closed = 1;
nodes = (
"471 963 OFFCURVE",
"489 981 OFFCURVE",
"489 1016 CURVE SMOOTH",
"489 1053 OFFCURVE",
"471 1071 OFFCURVE",
"434 1071 CURVE SMOOTH",
"399 1071 OFFCURVE",
"381 1053 OFFCURVE",
"381 1016 CURVE SMOOTH",
"381 981 OFFCURVE",
"399 963 OFFCURVE",
"434 963 CURVE SMOOTH"
);
},
{
closed = 1;
nodes = (
"1065 369 OFFCURVE",
"1083 387 OFFCURVE",
"1083 422 CURVE SMOOTH",
"1083 459 OFFCURVE",
"1065 477 OFFCURVE",
"1028 477 CURVE SMOOTH",
"993 477 OFFCURVE",
"975 459 OFFCURVE",
"975 422 CURVE SMOOTH",
"975 387 OFFCURVE",
"993 369 OFFCURVE",
"1028 369 CURVE SMOOTH"
);
},
{
closed = 1;
nodes = (
"644 997 OFFCURVE",
"662 1016 OFFCURVE",
"662 1053 CURVE SMOOTH",
"662 1088 OFFCURVE",
"644 1106 OFFCURVE",
"608 1106 CURVE SMOOTH",
"573 1106 OFFCURVE",
"555 1088 OFFCURVE",
"555 1053 CURVE SMOOTH",
"555 1016 OFFCURVE",
"573 997 OFFCURVE",
"608 997 CURVE SMOOTH"
);
},
{
closed = 1;
nodes = (
"1101 543 OFFCURVE",
"1118 561 OFFCURVE",
"1118 596 CURVE SMOOTH",
"1118 631 OFFCURVE",
"1101 649 OFFCURVE",
"1067 649 CURVE SMOOTH",
"1030 649 OFFCURVE",
"1012 631 OFFCURVE",
"1012 596 CURVE SMOOTH",
"1012 561 OFFCURVE",
"1030 543 OFFCURVE",
"1067 543 CURVE SMOOTH"
);
},
{
closed = 1;
nodes = (
"1065 715 OFFCURVE",
"1083 733 OFFCURVE",
"1083 770 CURVE SMOOTH",
"1083 805 OFFCURVE",
"1065 823 OFFCURVE",
"1030 823 CURVE SMOOTH",
"993 823 OFFCURVE",
"975 805 OFFCURVE",
"975 770 CURVE SMOOTH",
"975 733 OFFCURVE",
"993 715 OFFCURVE",
"1028 715 CURVE SMOOTH"
);
},
{
closed = 1;
nodes = (
"819 963 OFFCURVE",
"836 981 OFFCURVE",
"836 1016 CURVE SMOOTH",
"836 1053 OFFCURVE",
"819 1071 OFFCURVE",
"784 1071 CURVE SMOOTH",
"746 1071 OFFCURVE",
"727 1053 OFFCURVE",
"727 1016 CURVE SMOOTH",
"727 981 OFFCURVE",
"746 963 OFFCURVE",
"784 963 CURVE SMOOTH"
);
},
{
closed = 1;
nodes = (
"966 864 OFFCURVE",
"983 882 OFFCURVE",
"983 918 CURVE SMOOTH",
"983 955 OFFCURVE",
"966 973 OFFCURVE",
"932 973 CURVE SMOOTH",
"895 973 OFFCURVE",
"877 955 OFFCURVE",
"877 918 CURVE SMOOTH",
"877 882 OFFCURVE",
"895 864 OFFCURVE",
"932 864 CURVE SMOOTH"
);
}
);
width = 1217;
}
);
note = uni25CC;
unicode = 25CC;
},
{
glyphname = zwnj;
lastChange = "2016-11-10 17:39:07 +0000";
layers = (
{
layerId = "C218C3DC-F535-40CE-915C-45F049FE9E78";
paths = (
{
closed = 1;
nodes = (
"36 183 LINE",
"36 1667 LINE",
"-36 1667 LINE",
"-36 183 LINE"
);
}
);
width = 0;
}
);
note = zwnj;
unicode = 200C;
},
{
glyphname = zwj;
lastChange = "2016-11-10 17:39:07 +0000";
layers = (
{
layerId = "C218C3DC-F535-40CE-915C-45F049FE9E78";
paths = (
{
closed = 1;
nodes = (
"36 183 LINE",
"36 1368 LINE",
"170 1232 LINE",
"219 1281 LINE",
"48 1450 LINE",
"219 1618 LINE",
"170 1667 LINE",
"0 1496 LINE",
"-170 1667 LINE",
"-219 1618 LINE",
"-48 1450 LINE",
"-219 1281 LINE",
"-170 1232 LINE",
"-36 1368 LINE",
"-36 183 LINE"
);
}
);
width = 0;
}
);
note = zwj;
unicode = 200D;
},
{
glyphname = uniA892A8B0;
lastChange = "2016-11-10 17:39:07 +0000";
layers = (
{
layerId = "C218C3DC-F535-40CE-915C-45F049FE9E78";
paths = (
{
closed = 1;
nodes = (
"1226 -18 OFFCURVE",
"1390 11 OFFCURVE",
"1514 72 CURVE SMOOTH",
"1637 133 OFFCURVE",
"1719 233 OFFCURVE",
"1766 384 CURVE",
"1632 444 LINE",
"1584 285 OFFCURVE",
"1493 206 OFFCURVE",
"1317 170 CURVE SMOOTH",
"1229 152 OFFCURVE",
"1083 143 OFFCURVE",
"880 143 CURVE SMOOTH",
"664 143 OFFCURVE",
"510 154 OFFCURVE",
"418 175 CURVE SMOOTH",
"326 196 OFFCURVE",
"280 232 OFFCURVE",
"280 281 CURVE SMOOTH",
"280 328 OFFCURVE",
"306 363 OFFCURVE",
"357 384 CURVE SMOOTH",
"408 405 OFFCURVE",
"502 415 OFFCURVE",
"640 415 CURVE SMOOTH",
"1236 415 LINE SMOOTH",
"1605 415 OFFCURVE",
"1776 611 OFFCURVE",
"1776 1022 CURVE SMOOTH",
"1776 1239 OFFCURVE",
"1672 1376 OFFCURVE",
"1489 1376 CURVE SMOOTH",
"1356 1376 OFFCURVE",
"1280 1322 OFFCURVE",
"1237 1213 CURVE",
"1202 1310 OFFCURVE",
"1119 1376 OFFCURVE",
"995 1376 CURVE SMOOTH",
"868 1376 OFFCURVE",
"784 1309 OFFCURVE",
"751 1213 CURVE",
"711 1316 OFFCURVE",
"609 1376 OFFCURVE",
"478 1376 CURVE SMOOTH",
"251 1376 OFFCURVE",
"100 1220 OFFCURVE",
"100 1003 CURVE SMOOTH",
"100 778 OFFCURVE",
"190 635 OFFCURVE",
"342 635 CURVE SMOOTH",
"483 635 OFFCURVE",
"571 733 OFFCURVE",
"571 894 CURVE SMOOTH",
"571 1029 OFFCURVE",
"489 1116 OFFCURVE",
"361 1116 CURVE SMOOTH",
"325 1116 OFFCURVE",
"294 1110 OFFCURVE",
"267 1097 CURVE",
"282 1166 OFFCURVE",
"353 1221 OFFCURVE",
"473 1221 CURVE SMOOTH",
"614 1221 OFFCURVE",
"684 1155 OFFCURVE",
"684 1024 CURVE SMOOTH",
"684 660 LINE",
"825 660 LINE",
"825 1024 LINE SMOOTH",
"825 1164 OFFCURVE",
"877 1221 OFFCURVE",
"994 1221 CURVE SMOOTH",
"1113 1221 OFFCURVE",
"1163 1164 OFFCURVE",
"1163 1024 CURVE SMOOTH",
"1163 660 LINE",
"1304 660 LINE",
"1304 1024 LINE SMOOTH",
"1304 1156 OFFCURVE",
"1346 1221 OFFCURVE",
"1466 1221 CURVE SMOOTH",
"1570 1221 OFFCURVE",
"1622 1147 OFFCURVE",
"1622 999 CURVE SMOOTH",
"1622 694 OFFCURVE",
"1507 546 OFFCURVE",
"1243 546 CURVE SMOOTH",
"610 546 LINE SMOOTH",
"495 546 OFFCURVE",
"403 536 OFFCURVE",
"333 517 CURVE SMOOTH",
"192 478 OFFCURVE",
"128 407 OFFCURVE",
"128 267 CURVE SMOOTH",
"128 127 OFFCURVE",
"227 49 OFFCURVE",
"433 11 CURVE SMOOTH",
"536 -8 OFFCURVE",
"683 -18 OFFCURVE",
"874 -18 CURVE SMOOTH"
);
},
{
closed = 1;
nodes = (
"290 790 OFFCURVE",
"256 844 OFFCURVE",
"252 952 CURVE",
"289 972 OFFCURVE",
"312 980 OFFCURVE",
"351 980 CURVE SMOOTH",
"400 980 OFFCURVE",
"426 945 OFFCURVE",
"426 896 CURVE SMOOTH",
"426 824 OFFCURVE",
"393 790 OFFCURVE",
"342 790 CURVE SMOOTH"
);
}
);
width = 1876;
}
);
note = uniA892A8B0;
},
{
glyphname = uniA8AFA8AC;
lastChange = "2016-11-10 17:39:07 +0000";
layers = (
{
layerId = "C218C3DC-F535-40CE-915C-45F049FE9E78";
paths = (
{
closed = 1;
nodes = (
"905 84 LINE",
"730 244 OFFCURVE",
"629 479 OFFCURVE",
"629 723 CURVE SMOOTH",
"629 1042 OFFCURVE",
"766 1219 OFFCURVE",
"1006 1219 CURVE SMOOTH",
"1166 1219 OFFCURVE",
"1262 1122 OFFCURVE",
"1262 965 CURVE SMOOTH",
"1262 917 OFFCURVE",
"1252 871 OFFCURVE",
"1233 827 CURVE",
"1184 915 OFFCURVE",
"1106 971 OFFCURVE",
"1006 971 CURVE SMOOTH",
"875 971 OFFCURVE",
"787 886 OFFCURVE",
"787 762 CURVE SMOOTH",
"787 618 OFFCURVE",
"878 532 OFFCURVE",
"1031 532 CURVE SMOOTH",
"1080 532 OFFCURVE",
"1123 539 OFFCURVE",
"1158 553 CURVE",
"1154 451 LINE",
"1154 136 OFFCURVE",
"1268 -16 OFFCURVE",
"1508 -16 CURVE SMOOTH",
"1745 -16 OFFCURVE",
"1885 233 OFFCURVE",
"1885 664 CURVE SMOOTH",
"1885 947 OFFCURVE",
"1799 1184 OFFCURVE",
"1608 1389 CURVE",
"1491 1288 LINE",
"1528 1244 OFFCURVE",
"1590 1176 OFFCURVE",
"1640 1075 CURVE SMOOTH",
"1690 974 OFFCURVE",
"1731 840 OFFCURVE",
"1731 664 CURVE SMOOTH",
"1731 493 OFFCURVE",
"1711 364 OFFCURVE",
"1670 277 CURVE SMOOTH",
"1629 189 OFFCURVE",
"1572 145 OFFCURVE",
"1498 145 CURVE SMOOTH",
"1391 145 OFFCURVE",
"1337 192 OFFCURVE",
"1312 307 CURVE SMOOTH",
"1299 364 OFFCURVE",
"1293 450 OFFCURVE",
"1293 563 CURVE SMOOTH",
"1293 603 OFFCURVE",
"1294 633 OFFCURVE",
"1296 653 CURVE",
"1370 732 OFFCURVE",
"1407 833 OFFCURVE",
"1407 956 CURVE SMOOTH",
"1407 1217 OFFCURVE",
"1251 1380 OFFCURVE",
"994 1380 CURVE SMOOTH",
"679 1380 OFFCURVE",
"478 1126 OFFCURVE",
"478 723 CURVE SMOOTH",
"478 442 OFFCURVE",
"610 134 OFFCURVE",
"799 -31 CURVE"
);
},
{
closed = 1;
nodes = (
"172 -182 OFFCURVE",
"141 -151 OFFCURVE",
"141 -106 CURVE SMOOTH",
"141 -65 OFFCURVE",
"170 -31 OFFCURVE",
"223 -31 CURVE SMOOTH",
"254 -31 OFFCURVE",
"290 -39 OFFCURVE",
"332 -55 CURVE",
"308 -148 OFFCURVE",
"273 -182 OFFCURVE",
"217 -182 CURVE SMOOTH"
);
},
{
closed = 1;
nodes = (
"346 -325 OFFCURVE",
"425 -264 OFFCURVE",
"465 -127 CURVE",
"568 -192 LINE SMOOTH",
"705 -279 OFFCURVE",
"797 -319 OFFCURVE",
"877 -319 CURVE SMOOTH",
"1038 -319 OFFCURVE",
"1169 -233 OFFCURVE",
"1238 -40 CURVE",
"1108 7 LINE",
"1060 -106 OFFCURVE",
"994 -162 OFFCURVE",
"875 -162 CURVE SMOOTH",
"780 -162 OFFCURVE",
"696 -125 OFFCURVE",
"587 -54 CURVE SMOOTH",
"498 4 LINE",
"499 34 LINE",
"499 63 LINE SMOOTH",
"499 224 OFFCURVE",
"454 359 OFFCURVE",
"401 459 CURVE SMOOTH",
"348 559 OFFCURVE",
"285 622 OFFCURVE",
"248 641 CURVE",
"167 519 LINE",
"195 502 OFFCURVE",
"224 471 OFFCURVE",
"255 424 CURVE SMOOTH",
"315 330 OFFCURVE",
"359 200 OFFCURVE",
"363 80 CURVE",
"311 103 OFFCURVE",
"266 115 OFFCURVE",
"227 115 CURVE SMOOTH",
"90 115 OFFCURVE",
"0 30 OFFCURVE",
"0 -106 CURVE SMOOTH",
"0 -235 OFFCURVE",
"93 -325 OFFCURVE",
"217 -325 CURVE SMOOTH"
);
},
{
closed = 1;
nodes = (
"967 684 OFFCURVE",
"938 709 OFFCURVE",
"938 758 CURVE SMOOTH",
"938 789 OFFCURVE",
"961 821 OFFCURVE",
"1008 821 CURVE SMOOTH",
"1069 821 OFFCURVE",
"1110 786 OFFCURVE",
"1131 715 CURVE",
"1094 694 OFFCURVE",
"1059 684 OFFCURVE",
"1024 684 CURVE SMOOTH"
);
}
);
width = 1981;
}
);
note = uniA8AFA8AC;
},
{
glyphname = uniA8B0A89D;
lastChange = "2016-11-10 17:39:07 +0000";
layers = (
{
layerId = "C218C3DC-F535-40CE-915C-45F049FE9E78";
paths = (
{
closed = 1;
nodes = (
"999 -23 OFFCURVE",
"1203 183 OFFCURVE",
"1292 594 CURVE",
"1376 538 OFFCURVE",
"1419 471 OFFCURVE",
"1419 367 CURVE SMOOTH",
"1419 288 OFFCURVE",
"1369 204 OFFCURVE",
"1270 117 CURVE",
"1395 -2 LINE",
"1512 106 OFFCURVE",
"1571 223 OFFCURVE",
"1571 348 CURVE SMOOTH",
"1571 511 OFFCURVE",
"1516 601 OFFCURVE",
"1331 745 CURVE",
"1360 860 OFFCURVE",
"1374 963 OFFCURVE",
"1374 1055 CURVE SMOOTH",
"1374 1263 OFFCURVE",
"1268 1380 OFFCURVE",
"1087 1380 CURVE SMOOTH",
"935 1380 OFFCURVE",
"829 1271 OFFCURVE",
"829 1106 CURVE SMOOTH",
"829 953 OFFCURVE",
"921 840 OFFCURVE",
"1169 688 CURVE",
"1096 323 OFFCURVE",
"934 141 OFFCURVE",
"684 141 CURVE SMOOTH",
"387 141 OFFCURVE",
"215 361 OFFCURVE",
"215 741 CURVE SMOOTH",
"215 803 LINE",
"270 766 OFFCURVE",
"339 748 OFFCURVE",
"422 748 CURVE SMOOTH",
"586 748 OFFCURVE",
"694 870 OFFCURVE",
"694 1061 CURVE SMOOTH",
"694 1260 OFFCURVE",
"589 1382 OFFCURVE",
"418 1382 CURVE SMOOTH",
"190 1382 OFFCURVE",
"78 1160 OFFCURVE",
"78 741 CURVE SMOOTH",
"78 256 OFFCURVE",
"302 -23 OFFCURVE",
"678 -23 CURVE SMOOTH"
);
},
{
closed = 1;
nodes = (
"345 907 OFFCURVE",
"287 926 OFFCURVE",
"238 965 CURVE",
"254 1140 OFFCURVE",
"311 1223 OFFCURVE",
"420 1223 CURVE SMOOTH",
"501 1223 OFFCURVE",
"553 1169 OFFCURVE",
"553 1061 CURVE SMOOTH",
"553 969 OFFCURVE",
"504 907 OFFCURVE",
"412 907 CURVE SMOOTH"
);
},
{
closed = 1;
nodes = (
"2003 -350 OFFCURVE",
"2059 -333 OFFCURVE",
"2111 -300 CURVE SMOOTH",
"2215 -234 OFFCURVE",
"2276 -118 OFFCURVE",
"2276 9 CURVE SMOOTH",
"2276 205 OFFCURVE",
"2128 356 OFFCURVE",
"1943 356 CURVE SMOOTH",
"1759 356 OFFCURVE",
"1610 199 OFFCURVE",
"1610 2 CURVE SMOOTH",
"1610 -197 OFFCURVE",
"1760 -350 OFFCURVE",
"1943 -350 CURVE SMOOTH"
);
},
{
closed = 1;
nodes = (
"1824 -186 OFFCURVE",
"1751 -112 OFFCURVE",
"1751 12 CURVE SMOOTH",
"1751 125 OFFCURVE",
"1822 197 OFFCURVE",
"1943 197 CURVE SMOOTH",
"2060 197 OFFCURVE",
"2135 125 OFFCURVE",
"2135 12 CURVE SMOOTH",
"2135 -111 OFFCURVE",
"2062 -186 OFFCURVE",
"1943 -186 CURVE SMOOTH"
);
},
{
closed = 1;
nodes = (
"1053 915 OFFCURVE",
"981 997 OFFCURVE",
"981 1098 CURVE SMOOTH",
"981 1166 OFFCURVE",
"1030 1221 OFFCURVE",
"1098 1221 CURVE SMOOTH",
"1186 1221 OFFCURVE",
"1223 1172 OFFCURVE",
"1223 1055 CURVE SMOOTH",
"1223 968 OFFCURVE",
"1215 893 OFFCURVE",
"1198 831 CURVE"
);
}
);
width = 2336;
}
);
note = uniA8B0A89D;
},
{
glyphname = uniA8B0A89CA8AC;
lastChange = "2016-11-10 17:39:07 +0000";
layers = (
{
layerId = "C218C3DC-F535-40CE-915C-45F049FE9E78";
paths = (
{
closed = 1;
nodes = (
"1429 -23 OFFCURVE",
"1633 183 OFFCURVE",
"1722 594 CURVE",
"1806 538 OFFCURVE",
"1849 471 OFFCURVE",
"1849 367 CURVE SMOOTH",
"1849 288 OFFCURVE",
"1799 204 OFFCURVE",
"1700 117 CURVE",
"1825 -2 LINE",
"1942 106 OFFCURVE",
"2001 223 OFFCURVE",
"2001 348 CURVE SMOOTH",
"2001 511 OFFCURVE",
"1946 601 OFFCURVE",
"1761 745 CURVE",
"1790 860 OFFCURVE",
"1804 963 OFFCURVE",
"1804 1055 CURVE SMOOTH",
"1804 1263 OFFCURVE",
"1698 1380 OFFCURVE",
"1517 1380 CURVE SMOOTH",
"1365 1380 OFFCURVE",
"1259 1271 OFFCURVE",
"1259 1106 CURVE SMOOTH",
"1259 953 OFFCURVE",
"1351 840 OFFCURVE",
"1599 688 CURVE",
"1526 323 OFFCURVE",
"1364 141 OFFCURVE",
"1114 141 CURVE SMOOTH",
"817 141 OFFCURVE",
"645 361 OFFCURVE",
"645 741 CURVE SMOOTH",
"645 803 LINE",
"700 766 OFFCURVE",
"769 748 OFFCURVE",
"852 748 CURVE SMOOTH",
"1016 748 OFFCURVE",
"1124 870 OFFCURVE",
"1124 1061 CURVE SMOOTH",
"1124 1260 OFFCURVE",
"1019 1382 OFFCURVE",
"848 1382 CURVE SMOOTH",
"620 1382 OFFCURVE",
"508 1160 OFFCURVE",
"508 741 CURVE SMOOTH",
"508 256 OFFCURVE",
"732 -23 OFFCURVE",
"1108 -23 CURVE SMOOTH"
);
},
{
closed = 1;
nodes = (
"172 -182 OFFCURVE",
"141 -151 OFFCURVE",
"141 -106 CURVE SMOOTH",
"141 -65 OFFCURVE",
"170 -31 OFFCURVE",
"223 -31 CURVE SMOOTH",
"254 -31 OFFCURVE",
"290 -39 OFFCURVE",
"332 -55 CURVE",
"308 -148 OFFCURVE",
"273 -182 OFFCURVE",
"217 -182 CURVE SMOOTH"
);
},
{
closed = 1;
nodes = (
"346 -325 OFFCURVE",
"425 -264 OFFCURVE",
"465 -127 CURVE",
"568 -192 LINE SMOOTH",
"705 -279 OFFCURVE",
"796 -319 OFFCURVE",
"877 -319 CURVE SMOOTH",
"1010 -319 OFFCURVE",
"1113 -263 OFFCURVE",
"1185 -150 CURVE",
"1058 -81 LINE",
"1016 -135 OFFCURVE",
"955 -162 OFFCURVE",
"875 -162 CURVE SMOOTH",
"780 -162 OFFCURVE",
"696 -125 OFFCURVE",
"587 -54 CURVE SMOOTH",
"498 4 LINE",
"499 34 LINE",
"499 63 LINE SMOOTH",
"499 224 OFFCURVE",
"454 359 OFFCURVE",
"401 459 CURVE SMOOTH",
"348 559 OFFCURVE",
"285 622 OFFCURVE",
"248 641 CURVE",
"167 519 LINE",
"195 502 OFFCURVE",
"224 471 OFFCURVE",
"255 424 CURVE SMOOTH",
"315 330 OFFCURVE",
"359 200 OFFCURVE",
"363 80 CURVE",
"311 103 OFFCURVE",
"266 115 OFFCURVE",
"227 115 CURVE SMOOTH",
"90 115 OFFCURVE",
"0 30 OFFCURVE",
"0 -106 CURVE SMOOTH",
"0 -235 OFFCURVE",
"93 -325 OFFCURVE",
"217 -325 CURVE SMOOTH"
);
},
{
closed = 1;
nodes = (
"775 907 OFFCURVE",
"717 926 OFFCURVE",
"668 965 CURVE",
"684 1140 OFFCURVE",
"741 1223 OFFCURVE",
"850 1223 CURVE SMOOTH",
"931 1223 OFFCURVE",
"983 1169 OFFCURVE",
"983 1061 CURVE SMOOTH",
"983 969 OFFCURVE",
"934 907 OFFCURVE",
"842 907 CURVE SMOOTH"
);
},
{
closed = 1;
nodes = (
"2312 -293 OFFCURVE",
"2274 -258 OFFCURVE",
"2274 -195 CURVE SMOOTH",
"2274 -125 OFFCURVE",
"2304 -65 OFFCURVE",
"2365 -16 CURVE",
"2421 -63 OFFCURVE",
"2456 -127 OFFCURVE",
"2456 -195 CURVE SMOOTH",
"2456 -258 OFFCURVE",
"2418 -293 OFFCURVE",
"2365 -293 CURVE SMOOTH"
);
},
{
closed = 1;
nodes = (
"1483 915 OFFCURVE",
"1411 997 OFFCURVE",
"1411 1098 CURVE SMOOTH",
"1411 1166 OFFCURVE",
"1460 1221 OFFCURVE",
"1528 1221 CURVE SMOOTH",
"1616 1221 OFFCURVE",
"1653 1172 OFFCURVE",
"1653 1055 CURVE SMOOTH",
"1653 968 OFFCURVE",
"1645 893 OFFCURVE",
"1628 831 CURVE"
);
},
{
closed = 1;
nodes = (
"2519 -442 OFFCURVE",
"2614 -346 OFFCURVE",
"2614 -195 CURVE SMOOTH",
"2614 -120 OFFCURVE",
"2570 -39 OFFCURVE",
"2513 0 CURVE",
"2726 0 LINE",
"2765 133 LINE",
"2447 133 LINE",
"2474 241 OFFCURVE",
"2491 390 OFFCURVE",
"2491 498 CURVE SMOOTH",
"2491 661 OFFCURVE",
"2470 808 OFFCURVE",
"2427 939 CURVE SMOOTH",
"2342 1201 OFFCURVE",
"2182 1352 OFFCURVE",
"1967 1380 CURVE",
"1967 1231 LINE",
"2202 1190 OFFCURVE",
"2339 914 OFFCURVE",
"2339 482 CURVE SMOOTH",
"2339 373 OFFCURVE",
"2321 222 OFFCURVE",
"2294 133 CURVE",
"2050 133 LINE",
"2011 0 LINE",
"2217 0 LINE",
"2158 -40 OFFCURVE",
"2116 -122 OFFCURVE",
"2116 -195 CURVE SMOOTH",
"2116 -347 OFFCURVE",
"2212 -442 OFFCURVE",
"2372 -442 CURVE SMOOTH"
);
}
);
width = 2845;
}
);
note = uniA8B0A89CA8AC;
},
{
glyphname = uniA8A1A8AB;
lastChange = "2016-11-10 17:39:07 +0000";
layers = (
{
layerId = "C218C3DC-F535-40CE-915C-45F049FE9E78";
paths = (
{
closed = 1;
nodes = (
"1228 168 LINE",
"961 168 OFFCURVE",
"823 345 OFFCURVE",
"823 696 CURVE SMOOTH",
"823 1045 OFFCURVE",
"941 1219 OFFCURVE",
"1177 1219 CURVE SMOOTH",
"1350 1219 OFFCURVE",
"1437 1115 OFFCURVE",
"1437 907 CURVE SMOOTH",
"1437 0 LINE",
"1597 0 LINE",
"1597 920 LINE SMOOTH",
"1597 1216 OFFCURVE",
"1443 1380 OFFCURVE",
"1175 1380 CURVE SMOOTH",
"844 1380 OFFCURVE",
"667 1141 OFFCURVE",
"667 694 CURVE SMOOTH",
"667 238 OFFCURVE",
"865 -4 OFFCURVE",
"1240 -4 CURVE"
);
},
{
closed = 1;
nodes = (
"333 -209 OFFCURVE",
"276 -126 OFFCURVE",
"260 49 CURVE",
"309 88 OFFCURVE",
"367 107 OFFCURVE",
"434 107 CURVE SMOOTH",
"526 107 OFFCURVE",
"575 45 OFFCURVE",
"575 -47 CURVE SMOOTH",
"575 -155 OFFCURVE",
"523 -209 OFFCURVE",
"442 -209 CURVE SMOOTH"
);
},
{
closed = 1;
nodes = (
"612 -368 OFFCURVE",
"716 -246 OFFCURVE",
"716 -47 CURVE SMOOTH",
"716 138 OFFCURVE",
"609 266 OFFCURVE",
"444 266 CURVE SMOOTH",
"361 266 OFFCURVE",
"292 248 OFFCURVE",
"237 211 CURVE",
"237 273 LINE SMOOTH",
"237 530 OFFCURVE",
"314 708 OFFCURVE",
"451 801 CURVE",
"337 917 LINE",
"179 788 OFFCURVE",
"100 573 OFFCURVE",
"100 273 CURVE SMOOTH",
"100 -146 OFFCURVE",
"212 -368 OFFCURVE",
"440 -368 CURVE SMOOTH"
);
}
);
width = 1730;
}
);
note = uniA8A1A8AB;
},
